#N canvas 149 23 1105 781 10;
#X declare -lib cyclone;
#X obj 311 411 inlet~;
#X obj 281 485 outlet~;
#X obj 26 10 declare -lib cyclone;
#X obj 105 138 hsl 128 15 20 20000 1 1 \$1_svf_frequency_slider_s \$1_svf_frequency_slider_r
Centre_Frequency_(log) -2 -8 0 10 -261682 -1 -1 8500 1;
#X obj 105 166 hsl 128 15 0 1 0 0 \$1_svf_resonance_slider_s \$1_svf_resonance_slider_r
Resonance -2 -8 0 10 -261682 -1 -1 1700 1;
#X floatatom 237 138 5 0 0 0 - #1_svf_frequency_slider_s -;
#X obj 281 438 + 1;
#X obj 281 461 selector~ 4 1, f 21;
#X obj 311 434 svf~, f 16;
#X text 100 210 OUTPUT~;
#X text 100 100 INPUT~;
#X text 101 111 STATE VARIABLE FILTER;
#X text 356 215 Centre Frequency Slider recieved \, and ramped into
signal, f 20;
#X text 418 432 State variable Filter.;
#X text 578 412 Resonance Reciever;
#X text 304 394 Audio in;
#X text 415 461 Selector chooses which filter type is outputted;
#X obj 104 185 hradio 15 1 0 4 \$1_svf_type_radio_s \$1_svf_type_radio_r
empty 0 -8 0 10 -204786 -1 -1 0;
#X text 103 199 LP;
#X text 118 199 HP;
#X text 133 199 BP;
#X text 154 199 N;
#X obj 170 186 tgl 15 1 \$1_svf_mod_tog_s \$1_svf_mod_tog_r MOD_on/off
17 7 0 10 -204800 -1 -1 0 1;
#X obj 540 254 inlet;
#X obj 540 275 cyclone/scale 0 127 20 20000;
#X obj 358 316 spigot;
#X text 582 237 LFO inlet \, converted from 0-127 to 0-20000, f 17
;
#X obj 391 294 == 0;
#X obj 540 310 spigot;
#X obj 171 412 r \$1_svf_type_radio_s;
#X obj 403 413 r \$1_svf_resonance_slider_s;
#X text 180 99 FREQ MOD INLET;
#X obj 358 253 r \$1_svf_frequency_slider_s;
#X obj 391 274 r \$1_svf_mod_tog_s;
#X obj 573 293 r \$1_svf_mod_tog_s;
#N canvas 672 70 685 576 save 0;
#X obj 202 250 textfile;
#X msg 470 188 clear;
#X obj 205 -33 bng 15 250 50 0 empty empty empty 17 7 0 10 -262144
-1 -1;
#X obj 333 94 f;
#X obj -12 177 t b b b;
#X msg 118 208 bang;
#X msg 155 208 rewind;
#X obj 205 -54 r save_parameters;
#X obj -11 104 r recall_parameters;
#X obj 117 -29 loadbang;
#X obj 117 -6 f \$1;
#X obj -12 203 f;
#X obj 204 20 f;
#X obj 4 141 t b f;
#X obj 204 0 t b b b, f 63;
#X obj 179 -71 r \$1_svf_savebutton;
#X obj -36 85 r \$1_svf_recallbutton;
#X msg -12 228 read svf_\$1.txt;
#X msg 203 177 write svf_\$1.txt;
#X obj 344 119 pack f f f f;
#X msg 345 139 set \$1 \$2 \$3 \$4;
#X obj 202 272 unpack f f f f;
#X obj 390 79 r \$1_svf_resonance_slider_s;
#X obj 366 60 r \$1_svf_type_radio_s;
#X obj 414 99 r \$1_svf_mod_tog_s;
#X obj 348 41 r \$1_svf_frequency_slider_s;
#X obj 283 291 s \$1_svf_mod_tog_r;
#X obj 256 312 s \$1_svf_resonance_slider_r;
#X obj 229 335 s \$1_svf_type_radio_r;
#X obj 202 356 s \$1_svf_frequency_slider_r;
#X connect 0 0 21 0;
#X connect 1 0 0 0;
#X connect 2 0 14 0;
#X connect 3 0 19 0;
#X connect 4 0 11 0;
#X connect 4 1 5 0;
#X connect 4 2 6 0;
#X connect 5 0 0 0;
#X connect 6 0 0 0;
#X connect 7 0 2 0;
#X connect 8 0 4 0;
#X connect 9 0 10 0;
#X connect 10 0 12 1;
#X connect 10 0 13 0;
#X connect 11 0 17 0;
#X connect 12 0 18 0;
#X connect 13 0 4 0;
#X connect 13 1 11 1;
#X connect 14 0 12 0;
#X connect 14 1 3 0;
#X connect 14 2 1 0;
#X connect 15 0 2 0;
#X connect 16 0 4 0;
#X connect 17 0 0 0;
#X connect 18 0 0 0;
#X connect 19 0 20 0;
#X connect 20 0 0 0;
#X connect 21 0 29 0;
#X connect 21 1 28 0;
#X connect 21 2 27 0;
#X connect 21 3 26 0;
#X connect 22 0 19 2;
#X connect 23 0 19 1;
#X connect 24 0 19 3;
#X connect 25 0 3 1;
#X restore 532 125 pd save mechanism;
#X obj 196 207 bng 15 250 50 0 \$1_svf_savebutton empty Save 17 7 0
5 -262130 -1 -258113;
#X obj 233 207 bng 15 250 50 0 \$1_svf_recallbutton empty Recall 17
7 0 5 -262130 -1 -258113;
#X obj 540 330 s \$1_svf_frequency_slider_r;
#X connect 0 0 8 0;
#X connect 6 0 7 0;
#X connect 7 0 1 0;
#X connect 8 0 7 1;
#X connect 8 1 7 2;
#X connect 8 2 7 3;
#X connect 8 3 7 4;
#X connect 23 0 24 0;
#X connect 24 0 28 0;
#X connect 25 0 8 1;
#X connect 27 0 25 1;
#X connect 28 0 8 1;
#X connect 28 0 38 0;
#X connect 29 0 6 0;
#X connect 30 0 8 2;
#X connect 32 0 25 0;
#X connect 33 0 27 0;
#X connect 34 0 28 1;
#X coords 0 -1 1 1 175 125 2 100 100;
