#N canvas 471 148 590 386 10;
#X obj 103 3 inlet~;
#X obj 159 242 outlet~;
#X obj 21 57 +~;
#X obj 173 60 -~;
#X floatatom 258 -2 5 0 0 0 - - -;
#X obj 258 20 * -1;
#X obj 159 211 +~;
#X obj 21 81 delwrite~ \$0-ap 1000;
#X obj 21 147 *~;
#X obj 260 70 expr 1-($f1*$f1);
#X obj -10 104 *~;
#X obj 21 123 delread~ \$0-ap \$1;
#X obj 258 -22 r apgain;
#X connect 0 0 3 0;
#X connect 0 0 2 1;
#X connect 2 0 7 0;
#X connect 3 0 6 1;
#X connect 4 0 5 0;
#X connect 4 0 9 0;
#X connect 4 0 10 1;
#X connect 5 0 3 1;
#X connect 6 0 1 0;
#X connect 8 0 6 0;
#X connect 8 0 10 0;
#X connect 9 0 8 1;
#X connect 10 0 2 0;
#X connect 11 0 8 0;
#X connect 12 0 4 0;
