#N canvas 191 35 988 687 10;
#X msg 329 35 1 \, 0 10;
#X obj 329 56 line~;
#X obj 254 87 *~;
#X obj 254 108 *~ 1;
#X obj 256 244 catch~ combs;
#X obj 255 205 throw~ combs;
#X obj 256 339 *~ 0.1;
#X obj 254 156 acomb 17;
#X obj 430 156 acomb 33;
#X obj 531 156 acomb 47;
#X obj 466 63 s combgain;
#X floatatom 466 38 5 0 0.99 0 - - -;
#X obj 469 14 hsl 128 15 0 0.99 0 0 empty empty empty -2 -8 0 10 -262144
-1 -1 12700 1;
#X obj 625 58 s apgain;
#X floatatom 625 34 5 0 0 0 - - -;
#X obj 628 13 hsl 128 15 0 1 0 0 empty empty empty -2 -8 0 10 -262144
-1 -1 7400 1;
#X obj 256 265 anallpass 5;
#X obj 256 286 anallpass 19;
#X obj 292 316 hsl 128 15 0 1 0 0 empty empty empty -2 -8 0 10 -262144
-1 -1 11000 1;
#X obj 341 156 acomb 19;
#X obj 882 155 acomb 60;
#X obj 781 155 acomb 70;
#X obj 692 155 acomb 80;
#X obj 605 155 acomb 100;
#X obj 254 66 osc~ 500;
#X msg 330 406 1 \, 0 10;
#X obj 330 427 line~;
#X obj 255 458 *~;
#X obj 628 489 s apgain;
#X floatatom 628 465 5 0 0 0 - - -;
#X obj 631 444 hsl 128 15 0 1 0 0 empty empty empty -2 -8 0 10 -262144
-1 -1 11900 1;
#X obj 363 734 hsl 128 15 0 1 0 0 empty empty empty -2 -8 0 10 -262144
-1 -1 12700 1;
#X obj 255 437 osc~ 500;
#X obj 254 762 *~ 0.1;
#X obj 254 805 dac~;
#X obj 254 592 catch~ delay;
#X obj 255 481 anallpass 7.86;
#X obj 255 502 anallpass 2.56;
#X obj 255 523 anallpass 6.84;
#X obj 255 544 throw~ delay;
#X obj 254 640 acomb 38.25 0.773;
#X obj 371 639 acomb 36.3 0.802;
#X obj 480 640 acomb 46.55 0.753;
#X obj 602 638 acomb 51.04 0.733;
#X text 143 404 John Channing (FM guy) version;
#X obj 256 360 *~, f 16;
#X obj 349 340 tgl 15 0 empty empty empty 17 7 0 10 -262144 -1 -1 0
1;
#X obj 256 381 dac~;
#X obj 254 783 *~, f 19;
#X obj 365 761 tgl 15 0 empty empty empty 17 7 0 10 -262144 -1 -1 1
1;
#X connect 0 0 1 0;
#X connect 1 0 2 1;
#X connect 2 0 3 0;
#X connect 3 0 7 0;
#X connect 3 0 9 0;
#X connect 3 0 8 0;
#X connect 3 0 19 0;
#X connect 3 0 20 0;
#X connect 3 0 21 0;
#X connect 3 0 22 0;
#X connect 3 0 23 0;
#X connect 4 0 16 0;
#X connect 6 0 45 0;
#X connect 7 0 5 0;
#X connect 8 0 5 0;
#X connect 9 0 5 0;
#X connect 11 0 10 0;
#X connect 12 0 11 0;
#X connect 14 0 13 0;
#X connect 15 0 14 0;
#X connect 16 0 17 0;
#X connect 17 0 6 0;
#X connect 18 0 6 1;
#X connect 19 0 5 0;
#X connect 20 0 5 0;
#X connect 21 0 5 0;
#X connect 22 0 5 0;
#X connect 23 0 5 0;
#X connect 24 0 2 0;
#X connect 25 0 26 0;
#X connect 26 0 27 1;
#X connect 27 0 36 0;
#X connect 29 0 28 0;
#X connect 30 0 29 0;
#X connect 31 0 33 1;
#X connect 32 0 27 0;
#X connect 33 0 48 0;
#X connect 35 0 40 0;
#X connect 35 0 41 0;
#X connect 35 0 42 0;
#X connect 35 0 43 0;
#X connect 36 0 37 0;
#X connect 37 0 38 0;
#X connect 38 0 39 0;
#X connect 40 0 33 0;
#X connect 41 0 33 0;
#X connect 42 0 33 0;
#X connect 43 0 33 0;
#X connect 45 0 47 0;
#X connect 45 0 47 1;
#X connect 46 0 45 1;
#X connect 48 0 34 0;
#X connect 48 0 34 1;
#X connect 49 0 48 1;
