#N canvas 5 25 1435 773 10;
#X declare -lib cyclone;
#X declare -lib zexy;
#X declare -lib else;
#X declare -path Samples;
#X declare -path All_Modules;
#X declare -lib mrpeach;
#X text 2004 1574 Issac Thomas;
#N canvas 365 97 1075 638 Control 0;
#X obj 100 100 cnv 15 800 100 empty empty empty 20 12 0 14 -204800
-66577 0;
#X obj 193 108 bng 15 250 50 0 \$0_open_modules open-modulesbng Modules
17 7 0 10 -228856 -1 -1;
#X obj 269 108 bng 15 250 50 0 save_parameters empty Save_Parameters
17 7 0 10 -228856 -1 -1;
#X obj 393 108 bng 15 250 50 0 recall_parameters empty Recall_Parameters
17 7 0 10 -228856 -1 -1;
#X obj 720 100 Utilities/masterout 2;
#X obj 6 -60 declare -lib cyclone;
#X obj 1080 297 f \$0;
#X floatatom 1080 317 5 0 0 0 - - -;
#X obj 1085 263 bng 15 250 50 0 empty empty empty 17 7 0 10 -262144
-1 -1;
#N canvas 48 23 1050 663 MasterClock 0;
#X obj 37 299 bonk~;
#X obj 100 100 cnv 15 200 100 empty empty empty 20 12 0 14 -228856
-66577 0;
#X text 102 100 Master Clock;
#X obj 101 117 vradio 15 1 1 3 \$0_masterclock_radio_s \$0_masterclock_radio_r
empty 0 -8 0 10 -204786 -1 -1 0;
#X text 118 133 Recieve from DAW;
#X obj 184 115 nbx 3 14 -1e+37 1e+37 0 1 \$0_masterclock_set_s \$0_masterclock_set_r
empty 0 -8 0 10 -204786 -1 -1 60 256;
#X obj 102 177 nbx 2 14 -1e+37 1e+37 0 1 \$0_masterclock_adc_s \$0_masterclock_adc_r
empty 0 -8 0 10 -261682 -1 -1 3 256;
#X text 132 178 ADC~ input;
#X obj 244 182 tgl 15 1 \$0_masterclock_on/off_s \$0_masterclock_on/off_r
On/Off 17 7 0 10 -262130 -1 -1 1 1;
#X obj 37 247 adc~;
#X obj 36 209 r \$0_masterclock_adc_s;
#X msg 36 229 set \$1;
#X obj 37 341 spigot;
#X obj 70 322 r \$0_masterclock_radio_s;
#X obj 37 381 spigot;
#X obj 70 360 r \$0_masterclock_on/off_s;
#X obj 37 403 s \$0_masterclock_daw_bpm;
#X obj 265 131 bng 15 250 50 0 empty \$0_masterclock_set1_bpm_r empty
17 7 0 10 -204786 -1 -1;
#X obj 283 160 bng 15 250 50 0 empty \$0_masterclock_daw_bpm empty
17 7 0 10 -261682 -1 -1;
#X obj 283 131 bng 15 250 50 0 empty \$0_masterclock_set2_bpm_r empty
17 7 0 10 -204786 -1 -1;
#X text 117 115 Set Tempo;
#X obj 223 115 nbx 2 14 1 64 0 1 \$0_masterclock_timesig_s \$0_masterclock_timesig_r
Time_Sig 30 8 0 10 -204786 -1 -1 4 256;
#X obj 342 530 spigot;
#X obj 388 530 spigot;
#X obj 375 414 r \$0_masterclock_radio_s;
#X obj 375 434 == 1;
#X obj 421 434 == 0;
#X obj 349 583 spigot;
#X obj 382 564 r \$0_masterclock_on/off_s;
#X obj 342 508 t b;
#X obj 349 603 bng 15 250 50 0 empty empty empty 17 7 0 10 -262144
-1 -1;
#X obj 349 627 s masterclock_bangs;
#X text 82 230 Nbx tells the ADC which cahnnel to listen to;
#X text 76 300 Creates a bang wuith each metronome attack;
#X text 81 343 On if master on/off toggle is on;
#X text 80 382 On is receive from DAW is selected;
#X text 186 404 Sends to orange bang object for visual display;
#X text 548 574 Chooses which input to pass based on radio;
#X text 396 583 On if master toggle is on;
#X text 495 604 Send to be recieved by matching receives in modules.
;
#N canvas 0 23 450 300 patchclock 0;
#X obj 108 142 metro 200;
#X obj 108 123 tgl 15 0 empty empty empty 17 7 0 10 -262144 -1 -1 1
1;
#X floatatom 158 103 5 0 0 0 - - -;
#X obj 159 121 expr ((60/$f2)*1000);
#X text 208 100 BPM;
#X obj 109 200 f;
#X obj 109 220 mod 4;
#X obj 156 201 + 1;
#X floatatom 109 264 5 0 0 0 - - -;
#X obj 109 240 + 1;
#X text 154 262 BEAT COUNTER;
#X obj 110 379 sel 1;
#X floatatom 200 207 5 0 0 0 - - -;
#X obj 108 39 r \$0_masterclock_radio_s;
#X obj 108 59 == 0;
#X obj 110 319 spigot;
#X obj 137 424 s \$0_masterclock_set2_bpm_r;
#X obj 110 441 s \$0_masterclock_set1_bpm_r;
#X obj 158 83 r \$0_masterclock_set_s;
#X obj 41 152 sel 1;
#X obj 108 98 t f f;
#X msg 41 169 0;
#X obj 144 280 r \$0_masterclock_radio_s;
#X obj 144 300 == 0;
#X obj 200 188 r \$0_masterclock_timesig_s;
#X obj 111 356 spigot;
#X obj 144 337 r \$0_masterclock_on/off_s;
#X obj -79 122 r \$0_masterclock_on/off_s;
#X obj 110 399 bng 15 250 50 0 empty empty empty 17 7 0 10 -262144
-1 -1;
#X obj 137 399 bng 15 250 50 0 empty empty empty 17 7 0 10 -262144
-1 -1;
#X text 150 57 Turns metronome on is set tempo is selected;
#X text 314 84 Receives BPM value from nbx;
#X text 298 122 Calculates BPM intervals in ms;
#X text -86 156 Resets count to 1;
#X text 236 208 Creates crude time signature;
#X text 178 301 On is radio selects set tempo;
#X text 169 401 Sends bangs to the two green bangs \, indicating beat
;
#X obj 3 347 outlet;
#X connect 0 0 5 0;
#X connect 1 0 0 0;
#X connect 2 0 3 1;
#X connect 2 0 3 0;
#X connect 3 0 0 1;
#X connect 5 0 6 0;
#X connect 5 0 7 0;
#X connect 6 0 9 0;
#X connect 7 0 5 1;
#X connect 8 0 15 0;
#X connect 9 0 8 0;
#X connect 11 0 28 0;
#X connect 11 1 29 0;
#X connect 12 0 6 1;
#X connect 13 0 14 0;
#X connect 14 0 20 0;
#X connect 15 0 25 0;
#X connect 15 0 37 0;
#X connect 18 0 2 0;
#X connect 19 0 21 0;
#X connect 20 0 1 0;
#X connect 20 1 19 0;
#X connect 21 0 5 1;
#X connect 22 0 23 0;
#X connect 23 0 15 1;
#X connect 24 0 12 0;
#X connect 25 0 11 0;
#X connect 26 0 25 1;
#X connect 27 0 19 0;
#X connect 28 0 17 0;
#X connect 29 0 16 0;
#X restore 388 496 pd patchclock;
#X obj 446 529 spigot;
#X obj 462 435 == 2;
#X text 118 149 Recieve from Phasor;
#X obj 37 267 bp~ 100 10, f 14;
#X text 622 154 use 48/41;
#X text 702 176 1.08844;
#N canvas 320 82 450 300 Recieve 0;
#X obj 36 127 bonk~;
#X obj 35 37 r \$0_masterclock_adc_s;
#X msg 35 57 set \$1;
#X obj 36 169 spigot;
#X obj 69 150 r \$0_masterclock_radio_s;
#X obj 36 209 spigot;
#X obj 69 188 r \$0_masterclock_on/off_s;
#X obj 36 231 s \$0_masterclock_daw_bpm;
#X obj 75 254 t b;
#X text 81 58 Nbx tells the ADC which cahnnel to listen to;
#X text 75 128 Creates a bang wuith each metronome attack;
#X text 80 171 On if master on/off toggle is on;
#X text 79 210 On is receive from DAW is selected;
#X text 185 232 Sends to orange bang object for visual display;
#X obj 36 95 bp~ 100 10, f 14;
#X obj 35 77 adc~;
#X obj 75 274 outlet;
#X connect 0 0 3 0;
#X connect 1 0 2 0;
#X connect 2 0 15 0;
#X connect 3 0 5 0;
#X connect 4 0 3 1;
#X connect 5 0 7 0;
#X connect 5 0 8 0;
#X connect 6 0 5 1;
#X connect 8 0 16 0;
#X connect 14 0 0 0;
#X connect 15 0 14 0;
#X restore 37 456 pd Recieve from DAw;
#N canvas 496 178 944 454 ReceivefromPhasor 0;
#X obj 292 110 adc~;
#X obj 291 73 r \$0_masterclock_adc_s;
#X msg 291 93 set \$1;
#X text 337 94 Nbx tells the ADC which cahnnel to listen to;
#X obj 292 150 bng 15 250 50 0 empty empty empty 17 7 0 10 -262144
-1 -1;
#X obj 291 130 threshold~ 0.7 300 0.1 1;
#X obj 318 179 timer;
#X floatatom 317 199 10 0 0 0 - - -;
#X obj 205 236 outlet;
#X obj 317 290 sig~;
#X obj 271 241 bng 15 250 50 0 empty empty empty 17 7 0 10 -262144
-1 -1;
#X floatatom 344 245 5 0 0 0 - - -;
#X obj 316 217 expr 1000/$f1;
#X obj 317 322 phasor~;
#X obj 318 346 s~ tempo_phasor;
#X obj 344 264 s phasor_timeperiod;
#X floatatom 252 98 5 0 0 0 - - -;
#X connect 0 0 5 0;
#X connect 1 0 16 0;
#X connect 1 0 2 0;
#X connect 2 0 0 0;
#X connect 4 0 6 1;
#X connect 4 0 6 0;
#X connect 4 0 8 0;
#X connect 4 0 10 0;
#X connect 5 0 4 0;
#X connect 6 0 7 0;
#X connect 7 0 12 0;
#X connect 9 0 13 0;
#X connect 11 0 15 0;
#X connect 12 0 9 0;
#X connect 12 0 11 0;
#X connect 13 0 14 0;
#X restore 630 395 pd ReceivefromPhasor;
#X obj 459 148 samplerate~;
#X obj 459 168 s samplerate;
#X obj 459 128 loadbang;
#X obj 518 128 bng 15 250 50 0 empty empty empty 17 7 0 10 -262144
-1 -1;
#X connect 0 0 12 0;
#X connect 9 0 44 0;
#X connect 10 0 11 0;
#X connect 11 0 9 0;
#X connect 12 0 14 0;
#X connect 13 0 12 1;
#X connect 14 0 16 0;
#X connect 15 0 14 1;
#X connect 22 0 27 0;
#X connect 23 0 27 0;
#X connect 24 0 25 0;
#X connect 24 0 26 0;
#X connect 24 0 42 0;
#X connect 25 0 22 1;
#X connect 26 0 23 1;
#X connect 27 0 30 0;
#X connect 28 0 27 1;
#X connect 29 0 22 0;
#X connect 30 0 31 0;
#X connect 40 0 23 0;
#X connect 41 0 27 0;
#X connect 42 0 41 1;
#X connect 44 0 0 0;
#X connect 47 0 22 0;
#X connect 48 0 41 0;
#X connect 49 0 50 0;
#X connect 51 0 49 0;
#X connect 52 0 49 0;
#X coords 0 -1 1 1 200 100 1 100 100;
#X restore 519 100 pd MasterClock;
#X obj 6 -43 declare -lib zexy;
#X obj 6 -26 declare -lib else;
#X obj 7 -9 declare -path Samples;
#N canvas 555 154 731 586 set 0;
#N canvas 255 51 889 647 modules 0;
#X obj 9 174 bng 15 250 50 0 empty open-autotune Autotune 17 7 0 10
-262144 -1 -1;
#X obj 15 397 bng 15 250 50 0 empty open-lfo LFO 17 7 0 10 -262144
-1 -1;
#X text 423 85 Utilities;
#X text 8 9 Modules;
#X text 6 157 Processing;
#X text 13 381 Modulators;
#X obj 425 100 bng 15 250 50 0 empty open-mixsend Master_Bus_send 17
7 0 10 -262144 -1 -1;
#X text 425 256 Generative;
#X obj 428 275 bng 15 250 50 0 empty open-generativescale Generative_Scale
17 7 0 10 -262144 -1 -1;
#X obj 9 74 bng 15 250 50 0 empty open-phasemod Phase_Modulation 17
7 0 10 -262144 -1 -1;
#N canvas 767 221 673 471 pm 0;
#X obj 37 37 inlet;
#X obj 37 57 t b b, f 23;
#X obj 173 97 f;
#X obj 246 88 + 1;
#X obj 292 54 loadbang;
#X msg 38 298 loadbang;
#X obj 173 117 + 1;
#X obj 173 153 t f f;
#X obj 174 135 nbx 5 14 -1e+37 1e+37 0 0 empty empty empty 0 -8 0 10
-262144 -1 -1 0 256;
#X obj 292 119 f;
#X obj 309 101 nbx 5 14 -1e+37 1e+37 0 1 empty empty empty 0 -8 0 10
-262144 -1 -1 4 256;
#X obj 292 74 t b b;
#X obj 371 53 r \$0_resetcount;
#X msg 371 73 0;
#X obj 38 318 s pd-Phase_Modulation.pd;
#N canvas 626 204 706 504 make 0;
#X obj 202 250 textfile;
#X msg 470 188 clear;
#N canvas 699 49 736 667 save 0;
#X obj 150 412 outlet;
#X obj 143 204 inlet;
#X msg 149 325 set 0.323741 0 0 0 0 0 2404.17 3033.46 0.874016 2207.52
3977.4 1381.57 0.590551 2836.81 3505.43 1538.9 0.330709 2876.14 673.622
909.606 0.543307 2640.16 3466.1 2168.19 0.299213 3308.78 2246.85 1342.24
0.0866142 1145.59 1 4 6 2 4 2 0.768116 0.0289855 0.188406 0.956522
0.057971 0.101449;
#X connect 1 0 2 0;
#X connect 2 0 0 0;
#X restore 390 129 pd save receives;
#N canvas 255 117 735 694 save 0;
#X obj 37 37 inlet;
#X obj 38 58 unpack f f f f f f f f f f f f f s f;
#X connect 0 0 1 0;
#X restore 202 270 pd save sends;
#X obj 204 -18 inlet;
#X obj 204 0 t f b b, f 63;
#X obj 204 20 + 1;
#X msg 203 55 write All_Modules/phasemod/Phase_modulation_\$1.txt;
#X connect 0 0 3 0;
#X connect 1 0 0 0;
#X connect 2 0 0 0;
#X connect 4 0 5 0;
#X connect 5 0 6 0;
#X connect 5 1 2 0;
#X connect 5 2 1 0;
#X connect 6 0 7 0;
#X connect 7 0 0 0;
#X restore 233 193 pd make text;
#X obj 37 77 del 40;
#X obj 37 97 cyclone/uzi 2;
#X obj 173 173 t f f;
#X msg 172 249 \; pd-Master_Patch.pd obj 20 120 phasemod/Phase_Modulation
\$1;
#X connect 0 0 1 0;
#X connect 1 0 16 0;
#X connect 1 1 2 0;
#X connect 2 0 6 0;
#X connect 2 0 3 0;
#X connect 3 0 2 1;
#X connect 4 0 11 0;
#X connect 4 0 9 0;
#X connect 5 0 14 0;
#X connect 6 0 8 0;
#X connect 7 0 18 0;
#X connect 7 1 10 0;
#X connect 8 0 7 0;
#X connect 9 0 2 1;
#X connect 10 0 9 1;
#X connect 11 0 9 0;
#X connect 11 1 10 0;
#X connect 12 0 13 0;
#X connect 13 0 10 0;
#X connect 16 0 17 0;
#X connect 17 0 5 0;
#X connect 18 0 19 0;
#X connect 18 1 15 0;
#X restore 9 92 pd pm;
#N canvas 0 23 450 300 autotune 0;
#X obj 47 47 inlet;
#X obj 47 67 t b b, f 23;
#X obj 183 107 f;
#X obj 256 98 + 1;
#X obj 302 64 loadbang;
#X msg 46 171 loadbang;
#X obj 183 127 + 1;
#X obj 183 163 t f f;
#X obj 183 145 nbx 5 14 -1e+37 1e+37 0 0 empty empty empty 0 -8 0 10
-262144 -1 -1 0 256;
#X obj 302 129 f;
#X obj 319 111 nbx 5 14 -1e+37 1e+37 0 1 empty empty empty 0 -8 0 10
-262144 -1 -1 1 256;
#X obj 302 84 t b b;
#X obj 376 60 r \$0_resetcount;
#X msg 376 80 0;
#X obj 46 191 s pd-autotune.pd;
#X msg 183 230 \; pd-Master_Patch.pd obj 20 120 autotune \$1;
#X obj 183 183 t f f;
#N canvas 626 204 706 504 make 0;
#X obj 202 250 textfile;
#X msg 470 188 clear;
#N canvas 699 49 736 667 save 0;
#X obj 150 412 outlet;
#X obj 143 204 inlet;
#X msg 149 325 set 1 600;
#X connect 1 0 2 0;
#X connect 2 0 0 0;
#X restore 390 129 pd save receives;
#X obj 204 -18 inlet;
#X obj 204 0 t f b b, f 63;
#X obj 204 20 + 1;
#X msg 203 55 write All_Modules/Autotune/Autotune_\$1.txt;
#X connect 1 0 0 0;
#X connect 2 0 0 0;
#X connect 3 0 4 0;
#X connect 4 0 5 0;
#X connect 4 1 2 0;
#X connect 4 2 1 0;
#X connect 5 0 6 0;
#X connect 6 0 0 0;
#X restore 211 206 pd make text;
#X obj 47 87 del 20;
#X obj 47 107 uzi 3;
#X connect 0 0 1 0;
#X connect 1 0 18 0;
#X connect 1 1 2 0;
#X connect 2 0 6 0;
#X connect 2 0 3 0;
#X connect 3 0 2 1;
#X connect 4 0 11 0;
#X connect 4 0 9 0;
#X connect 5 0 14 0;
#X connect 6 0 8 0;
#X connect 7 0 16 0;
#X connect 7 1 10 0;
#X connect 8 0 7 0;
#X connect 9 0 2 1;
#X connect 10 0 9 1;
#X connect 11 0 9 0;
#X connect 11 1 10 0;
#X connect 12 0 13 0;
#X connect 13 0 10 0;
#X connect 16 0 15 0;
#X connect 16 1 17 0;
#X connect 18 0 19 0;
#X connect 19 0 5 0;
#X restore 9 194 pd autotune;
#N canvas 736 281 544 361 lfo 0;
#X obj 47 47 inlet;
#X obj 47 67 t b b, f 23;
#X obj 183 107 f;
#X obj 256 98 + 1;
#X obj 302 64 loadbang;
#X msg 46 171 loadbang;
#X obj 183 127 + 1;
#X obj 183 163 t f f;
#X obj 183 145 nbx 5 14 -1e+37 1e+37 0 0 empty empty empty 0 -8 0 10
-262144 -1 -1 0 256;
#X obj 302 129 f;
#X obj 319 111 nbx 5 14 -1e+37 1e+37 0 1 empty empty empty 0 -8 0 10
-262144 -1 -1 9 256;
#X obj 302 84 t b b;
#X obj 376 60 r \$0_resetcount;
#X msg 376 80 0;
#X obj 46 191 s pd-LFO.pd;
#X msg 183 222 \; pd-Master_Patch.pd obj 20 120 LFO \$1;
#N canvas 626 204 706 504 make 0;
#X obj 202 250 textfile;
#X msg 470 188 clear;
#N canvas 699 49 736 667 save 0;
#X obj 150 412 outlet;
#X obj 143 204 inlet;
#X msg 147 325 set 1 50 100;
#X connect 1 0 2 0;
#X connect 2 0 0 0;
#X restore 390 129 pd save receives;
#N canvas 255 117 735 694 save 0;
#X obj 37 37 inlet;
#X obj 38 58 unpack f f f f f f f f f f f f f s f;
#X connect 0 0 1 0;
#X restore 202 270 pd save sends;
#X obj 204 -18 inlet;
#X obj 204 0 t f b b, f 63;
#X obj 204 20 + 1;
#X msg 203 55 write All_Modules/lfo/lfo_\$1.txt;
#X connect 0 0 3 0;
#X connect 1 0 0 0;
#X connect 2 0 0 0;
#X connect 4 0 5 0;
#X connect 5 0 6 0;
#X connect 5 1 2 0;
#X connect 5 2 1 0;
#X connect 6 0 7 0;
#X connect 7 0 0 0;
#X restore 233 193 pd make text;
#X obj 47 87 del 40;
#X obj 47 107 uzi 3;
#X connect 0 0 1 0;
#X connect 1 0 17 0;
#X connect 1 1 2 0;
#X connect 2 0 6 0;
#X connect 2 0 3 0;
#X connect 3 0 2 1;
#X connect 4 0 11 0;
#X connect 4 0 9 0;
#X connect 5 0 14 0;
#X connect 6 0 8 0;
#X connect 7 0 15 0;
#X connect 7 1 10 0;
#X connect 7 1 16 0;
#X connect 8 0 7 0;
#X connect 9 0 2 1;
#X connect 10 0 9 1;
#X connect 11 0 9 0;
#X connect 11 1 10 0;
#X connect 12 0 13 0;
#X connect 13 0 10 0;
#X connect 17 0 18 0;
#X connect 18 0 5 0;
#X restore 15 417 pd lfo;
#N canvas 666 23 486 323 mixsend 0;
#X obj 47 47 inlet;
#X obj 47 67 t b b, f 23;
#X obj 183 107 f;
#X obj 256 98 + 1;
#X obj 302 64 loadbang;
#X msg 46 171 loadbang;
#X obj 183 127 + 1;
#X obj 183 163 t f f;
#X obj 183 145 nbx 5 14 -1e+37 1e+37 0 0 empty empty empty 0 -8 0 10
-262144 -1 -1 0 256;
#X obj 302 129 f;
#X obj 319 111 nbx 5 14 -1e+37 1e+37 0 1 empty empty empty 0 -8 0 10
-262144 -1 -1 13 256;
#X obj 302 84 t b b;
#X obj 376 60 r \$0_resetcount;
#X msg 376 80 0;
#X obj 46 191 s pd-mixsend.pd;
#X obj 183 183 t f f;
#N canvas 626 204 706 504 make 0;
#X obj 202 250 textfile;
#X msg 470 188 clear;
#N canvas 699 49 736 667 save 0;
#X obj 150 412 outlet;
#X obj 143 204 inlet;
#X msg 149 325 set 0 0;
#X connect 1 0 2 0;
#X connect 2 0 0 0;
#X restore 390 129 pd save receives;
#N canvas 255 117 735 694 save 0;
#X obj 37 37 inlet;
#X obj 38 58 unpack f f f f f f f f f f f f f s f;
#X connect 0 0 1 0;
#X restore 202 270 pd save sends;
#X obj 204 -18 inlet;
#X obj 204 0 t f b b, f 63;
#X obj 204 20 + 1;
#X msg 203 55 write All_Modules/Utilities/mixsend_\$1.txt;
#X connect 0 0 3 0;
#X connect 1 0 0 0;
#X connect 2 0 0 0;
#X connect 4 0 5 0;
#X connect 5 0 6 0;
#X connect 5 1 2 0;
#X connect 5 2 1 0;
#X connect 6 0 7 0;
#X connect 7 0 0 0;
#X restore 210 202 pd make text;
#X msg 183 222 \; pd-Master_Patch.pd obj 20 120 Utilities/mixsend \$1
;
#X connect 0 0 1 0;
#X connect 1 0 5 0;
#X connect 1 1 2 0;
#X connect 2 0 6 0;
#X connect 2 0 3 0;
#X connect 3 0 2 1;
#X connect 4 0 11 0;
#X connect 4 0 9 0;
#X connect 5 0 14 0;
#X connect 6 0 8 0;
#X connect 7 0 15 0;
#X connect 7 1 10 0;
#X connect 8 0 7 0;
#X connect 9 0 2 1;
#X connect 10 0 9 1;
#X connect 11 0 9 0;
#X connect 11 1 10 0;
#X connect 12 0 13 0;
#X connect 13 0 10 0;
#X connect 15 0 17 0;
#X connect 15 1 16 0;
#X restore 425 120 pd mixsend;
#N canvas 746 26 638 480 Generative 0;
#X obj 47 47 inlet;
#X obj 47 67 t b b, f 23;
#X obj 183 107 f;
#X obj 256 98 + 1;
#X obj 302 64 loadbang;
#X msg 46 285 loadbang;
#X obj 183 127 + 1;
#X obj 183 163 t f f;
#X obj 183 145 nbx 5 14 -1e+37 1e+37 0 0 empty empty empty 0 -8 0 10
-262144 -1 -1 0 256;
#X obj 302 129 f;
#X obj 319 111 nbx 5 14 -1e+37 1e+37 0 1 empty empty empty 0 -8 0 10
-262144 -1 -1 6 256;
#X obj 302 84 t b b;
#X obj 376 60 r \$0_resetcount;
#X msg 376 80 0;
#X obj 46 305 s pd-Generative_scale.pd;
#N canvas 626 204 706 504 make 0;
#X obj 202 250 textfile;
#X msg 470 188 clear;
#N canvas 699 49 736 667 save 0;
#X obj 150 412 outlet;
#X obj 143 204 inlet;
#X msg 147 325 set 3 90_20_35_15_80_25_15_40_80_35_25_25_95_10_15_25
48_50_52_53_55_57_59_60_62_64_65_67_69_71_72 0 0 0 120 0;
#X connect 1 0 2 0;
#X connect 2 0 0 0;
#X restore 390 129 pd save receives;
#N canvas 255 117 735 694 save 0;
#X obj 37 37 inlet;
#X obj 38 58 unpack f f f f f f f f f f f f f s f;
#X connect 0 0 1 0;
#X restore 202 270 pd save sends;
#X obj 204 -18 inlet;
#X obj 204 0 t f b b, f 63;
#X obj 204 20 + 1;
#X msg 203 55 write All_Modules/Generative/Generative_scale_\$1.txt
;
#X connect 0 0 3 0;
#X connect 1 0 0 0;
#X connect 2 0 0 0;
#X connect 4 0 5 0;
#X connect 5 0 6 0;
#X connect 5 1 2 0;
#X connect 5 2 1 0;
#X connect 6 0 7 0;
#X connect 7 0 0 0;
#X restore 249 207 pd make text;
#X obj 47 87 del 40;
#X obj 47 107 uzi 3;
#X msg 183 229 \; pd-Master_Patch.pd obj 20 120 Generative/Generative_scale
\$1;
#X connect 0 0 1 0;
#X connect 1 0 16 0;
#X connect 1 1 2 0;
#X connect 2 0 6 0;
#X connect 2 0 3 0;
#X connect 3 0 2 1;
#X connect 4 0 11 0;
#X connect 4 0 9 0;
#X connect 5 0 14 0;
#X connect 6 0 8 0;
#X connect 7 0 18 0;
#X connect 7 1 10 0;
#X connect 7 1 15 0;
#X connect 8 0 7 0;
#X connect 9 0 2 1;
#X connect 10 0 9 1;
#X connect 11 0 9 0;
#X connect 11 1 10 0;
#X connect 12 0 13 0;
#X connect 13 0 10 0;
#X connect 16 0 17 0;
#X connect 17 0 5 0;
#X restore 428 295 pd Generative Scale;
#X obj 9 28 bng 15 250 50 0 empty open-granular Granular_sampler 17
7 0 10 -262144 -1 -1;
#N canvas 572 195 692 517 Granular 0;
#X obj 37 37 inlet;
#X obj 37 57 t b b, f 23;
#X obj 173 97 f;
#X obj 246 88 + 1;
#X obj 292 54 loadbang;
#X msg 36 257 loadbang;
#X obj 173 117 + 1;
#X obj 173 153 t f f;
#X obj 173 135 nbx 5 14 -1e+37 1e+37 0 0 empty empty empty 0 -8 0 10
-262144 -1 -1 0 256;
#X obj 292 119 f;
#X obj 309 101 nbx 5 14 -1e+37 1e+37 0 1 empty empty empty 0 -8 0 10
-262144 -1 -1 3 256;
#X obj 292 74 t b b;
#X obj 383 53 r \$0_resetcount;
#X msg 383 73 0;
#X obj 36 277 s pd-Granular_sampler.pd;
#N canvas 469 174 706 504 make 0;
#X obj 202 250 textfile;
#X msg 470 188 clear;
#N canvas 699 49 736 667 save 0;
#X obj 150 412 outlet;
#X obj 143 204 inlet;
#X msg 149 325 set 2.5748 0.535433 -1 0.1 4410 0.0652174 0 0 0 0.11811
0.9951 0 0.286432 COOK^ME^ILL^MELT_01-13.wav 100 \;;
#X connect 1 0 2 0;
#X connect 2 0 0 0;
#X restore 390 129 pd save receives;
#X obj 204 -18 inlet;
#X obj 204 0 t f b b, f 63;
#X obj 204 20 + 1;
#X msg 203 55 write All_Modules/Granular_sampler/Granular_sampler_\$1.txt
;
#X text 568 56 Saves the file;
#X text 500 128 States the load preset values.;
#X connect 1 0 0 0;
#X connect 2 0 0 0;
#X connect 3 0 4 0;
#X connect 4 0 5 0;
#X connect 4 1 2 0;
#X connect 4 2 1 0;
#X connect 5 0 6 0;
#X connect 6 0 0 0;
#X restore 204 198 pd make text;
#X obj 173 173 t f f;
#X obj 37 77 del 40;
#X obj 37 97 cyclone/uzi 3;
#X msg 174 227 \; pd-Master_Patch.pd obj 20 120 Granular_sampler \$1
;
#X text 377 102 Float feedback system adds 1 to the f cold inlet eachtime
a module is selected. This allows the creation argument to go up by
1 incrementaly with each load. This allows all internal send and recieves
to be differentiated.;
#X text 290 192 Creates the parameter file and preset for the next
time the module is laoded.;
#X text 482 233 Creates the module on the master patch with the creation
value;
#X text 189 277 Sends a loadbang to the Module after it is created
;
#X connect 0 0 1 0;
#X connect 1 0 17 0;
#X connect 1 1 2 0;
#X connect 2 0 6 0;
#X connect 2 0 3 0;
#X connect 3 0 2 1;
#X connect 4 0 11 0;
#X connect 4 0 9 0;
#X connect 5 0 14 0;
#X connect 6 0 8 0;
#X connect 7 0 16 0;
#X connect 7 1 10 0;
#X connect 8 0 7 0;
#X connect 9 0 2 1;
#X connect 10 0 9 1;
#X connect 11 0 9 0;
#X connect 11 1 10 0;
#X connect 12 0 13 0;
#X connect 13 0 10 0;
#X connect 16 0 19 0;
#X connect 16 1 15 0;
#X connect 17 0 18 0;
#X connect 18 0 5 0;
#X restore 9 48 pd Granular;
#X text 429 333 MIDI;
#X obj 431 351 bng 15 250 50 0 empty open-externalmidiin External_MIDI_in
17 7 0 10 -262144 -1 -1;
#X obj 431 392 bng 15 250 50 0 empty open-externalmidiout External_MIDI_out
17 7 0 10 -262144 -1 -1;
#N canvas 0 457 487 357 External 0;
#X obj 47 47 inlet;
#X obj 47 67 t b b, f 23;
#X obj 183 107 f;
#X obj 256 98 + 1;
#X obj 302 64 loadbang;
#X msg 46 210 loadbang;
#X obj 183 127 + 1;
#X obj 183 163 t f f;
#X obj 183 145 nbx 5 14 -1e+37 1e+37 0 0 empty empty empty 0 -8 0 10
-262144 -1 -1 0 256;
#X obj 302 129 f;
#X obj 319 111 nbx 5 14 -1e+37 1e+37 0 1 empty empty empty 0 -8 0 10
-262144 -1 -1 2 256;
#X obj 302 84 t b b;
#X obj 376 60 r \$0_resetcount;
#X msg 376 80 0;
#X obj 47 230 s pd-externalmidiout.pd;
#X msg 183 197 \; pd-Master_Patch.pd obj 20 120 MIDI/externalmidiout
\$1;
#X connect 0 0 1 0;
#X connect 1 0 5 0;
#X connect 1 1 2 0;
#X connect 2 0 6 0;
#X connect 2 0 3 0;
#X connect 3 0 2 1;
#X connect 4 0 11 0;
#X connect 4 0 9 0;
#X connect 5 0 14 0;
#X connect 6 0 8 0;
#X connect 7 0 15 0;
#X connect 7 1 10 0;
#X connect 8 0 7 0;
#X connect 9 0 2 1;
#X connect 10 0 9 1;
#X connect 11 0 9 0;
#X connect 11 1 10 0;
#X connect 12 0 13 0;
#X connect 13 0 10 0;
#X restore 431 412 pd External MIDI out;
#N canvas 0 23 487 357 External 0;
#X obj 47 47 inlet;
#X obj 47 67 t b b, f 23;
#X obj 183 107 f;
#X obj 256 98 + 1;
#X obj 302 64 loadbang;
#X msg 46 210 loadbang;
#X obj 183 127 + 1;
#X obj 183 163 t f f;
#X obj 183 145 nbx 5 14 -1e+37 1e+37 0 0 empty empty empty 0 -8 0 10
-262144 -1 -1 0 256;
#X obj 302 129 f;
#X obj 319 111 nbx 5 14 -1e+37 1e+37 0 1 empty empty empty 0 -8 0 10
-262144 -1 -1 3 256;
#X obj 302 84 t b b;
#X obj 376 60 r \$0_resetcount;
#X msg 376 80 0;
#X obj 46 230 s pd-externalmidiin.pd;
#X msg 183 197 \; pd-Master_Patch.pd obj 20 120 MIDI/externalmidiin
\$1;
#X connect 0 0 1 0;
#X connect 1 0 5 0;
#X connect 1 1 2 0;
#X connect 2 0 6 0;
#X connect 2 0 3 0;
#X connect 3 0 2 1;
#X connect 4 0 11 0;
#X connect 4 0 9 0;
#X connect 5 0 14 0;
#X connect 6 0 8 0;
#X connect 7 0 15 0;
#X connect 7 1 10 0;
#X connect 8 0 7 0;
#X connect 9 0 2 1;
#X connect 10 0 9 1;
#X connect 11 0 9 0;
#X connect 11 1 10 0;
#X connect 12 0 13 0;
#X connect 13 0 10 0;
#X restore 431 371 pd External MIDI in;
#X obj 432 431 bng 15 250 50 0 empty open-externalccin External_CC_in
17 7 0 10 -262144 -1 -1;
#X obj 432 472 bng 15 250 50 0 empty open-externalccout External_CC_out
17 7 0 10 -262144 -1 -1;
#N canvas 0 23 487 357 External 0;
#X obj 47 47 inlet;
#X obj 47 67 t b b, f 23;
#X obj 183 107 f;
#X obj 256 98 + 1;
#X obj 302 64 loadbang;
#X msg 46 210 loadbang;
#X obj 183 127 + 1;
#X obj 183 163 t f f;
#X obj 183 145 nbx 5 14 -1e+37 1e+37 0 0 empty empty empty 0 -8 0 10
-262144 -1 -1 0 256;
#X obj 302 129 f;
#X obj 319 111 nbx 5 14 -1e+37 1e+37 0 1 empty empty empty 0 -8 0 10
-262144 -1 -1 4 256;
#X obj 302 84 t b b;
#X obj 376 60 r \$0_resetcount;
#X msg 376 80 0;
#X obj 46 230 s pd-externalccin.pd;
#X msg 183 197 \; pd-Master_Patch.pd obj 20 120 MIDI/externalccin \$1
;
#X connect 0 0 1 0;
#X connect 1 0 5 0;
#X connect 1 1 2 0;
#X connect 2 0 6 0;
#X connect 2 0 3 0;
#X connect 3 0 2 1;
#X connect 4 0 11 0;
#X connect 4 0 9 0;
#X connect 5 0 14 0;
#X connect 6 0 8 0;
#X connect 7 0 15 0;
#X connect 7 1 10 0;
#X connect 8 0 7 0;
#X connect 9 0 2 1;
#X connect 10 0 9 1;
#X connect 11 0 9 0;
#X connect 11 1 10 0;
#X connect 12 0 13 0;
#X connect 13 0 10 0;
#X restore 432 451 pd External cc in;
#N canvas 0 457 487 357 External 0;
#X obj 47 47 inlet;
#X obj 47 67 t b b, f 23;
#X obj 183 107 f;
#X obj 256 98 + 1;
#X obj 302 64 loadbang;
#X msg 46 210 loadbang;
#X obj 183 127 + 1;
#X obj 183 163 t f f;
#X obj 183 145 nbx 5 14 -1e+37 1e+37 0 0 empty empty empty 0 -8 0 10
-262144 -1 -1 0 256;
#X obj 302 129 f;
#X obj 319 111 nbx 5 14 -1e+37 1e+37 0 1 empty empty empty 0 -8 0 10
-262144 -1 -1 0 256;
#X obj 302 84 t b b;
#X obj 376 60 r \$0_resetcount;
#X msg 376 80 0;
#X obj 47 230 s pd-externalccout.pd;
#X msg 183 197 \; pd-Master_Patch.pd obj 20 120 MIDI/externalccout
\$1;
#X connect 0 0 1 0;
#X connect 1 0 5 0;
#X connect 1 1 2 0;
#X connect 2 0 6 0;
#X connect 2 0 3 0;
#X connect 3 0 2 1;
#X connect 4 0 11 0;
#X connect 4 0 9 0;
#X connect 5 0 14 0;
#X connect 6 0 8 0;
#X connect 7 0 15 0;
#X connect 7 1 10 0;
#X connect 8 0 7 0;
#X connect 9 0 2 1;
#X connect 10 0 9 1;
#X connect 11 0 9 0;
#X connect 11 1 10 0;
#X connect 12 0 13 0;
#X connect 13 0 10 0;
#X restore 432 491 pd External cc out;
#X text 14 478 Filters;
#X obj 16 493 bng 15 250 50 0 empty open-svf SVF 17 7 0 10 -262144
-1 -1;
#N canvas 706 156 569 416 svf 0;
#X obj 47 47 inlet;
#X obj 47 67 t b b, f 23;
#X obj 183 107 f;
#X obj 256 98 + 1;
#X obj 302 64 loadbang;
#X msg 46 171 loadbang;
#X obj 183 127 + 1;
#X obj 183 163 t f f;
#X obj 183 145 nbx 5 14 -1e+37 1e+37 0 0 empty empty empty 0 -8 0 10
-262144 -1 -1 0 256;
#X obj 302 129 f;
#X obj 319 111 nbx 5 14 -1e+37 1e+37 0 1 empty empty empty 0 -8 0 10
-262144 -1 -1 2 256;
#X obj 302 84 t b b;
#X obj 376 60 r \$0_resetcount;
#X msg 376 80 0;
#X obj 46 191 s pd-svf.pd;
#X msg 183 221 \; pd-Master_Patch.pd obj 20 120 svf \$1;
#X obj 183 183 t f f;
#N canvas 210 315 706 504 make 0;
#X obj 202 250 textfile;
#X msg 470 188 clear;
#N canvas 699 49 736 667 save 0;
#X obj 150 412 outlet;
#X obj 143 204 inlet;
#X msg 149 326 set 20000 0 0 0;
#X connect 1 0 2 0;
#X connect 2 0 0 0;
#X restore 390 129 pd save receives;
#N canvas 255 117 735 694 save 0;
#X obj 37 37 inlet;
#X obj 38 58 unpack f f f f f f f f f f f f f s f;
#X connect 0 0 1 0;
#X restore 202 270 pd save sends;
#X obj 204 -18 inlet;
#X obj 204 0 t f b b, f 63;
#X obj 204 20 + 1;
#X msg 204 56 write All_Modules/svf/svf_\$1.txt;
#X connect 0 0 3 0;
#X connect 1 0 0 0;
#X connect 2 0 0 0;
#X connect 4 0 5 0;
#X connect 5 0 6 0;
#X connect 5 1 2 0;
#X connect 5 2 1 0;
#X connect 6 0 7 0;
#X connect 7 0 0 0;
#X restore 211 203 pd make text;
#X connect 0 0 1 0;
#X connect 1 0 5 0;
#X connect 1 1 2 0;
#X connect 2 0 6 0;
#X connect 2 0 3 0;
#X connect 3 0 2 1;
#X connect 4 0 11 0;
#X connect 4 0 9 0;
#X connect 5 0 14 0;
#X connect 6 0 8 0;
#X connect 7 0 16 0;
#X connect 7 1 10 0;
#X connect 8 0 7 0;
#X connect 9 0 2 1;
#X connect 10 0 9 1;
#X connect 11 0 9 0;
#X connect 11 1 10 0;
#X connect 12 0 13 0;
#X connect 13 0 10 0;
#X connect 16 0 15 0;
#X connect 16 1 17 0;
#X restore 16 513 pd svf;
#X obj 15 438 bng 15 250 50 0 empty open-midiadsr MIDI_ADSR 17 7 0
10 -262144 -1 -1;
#N canvas 467 170 488 349 midiadsr 0;
#X obj 47 47 inlet;
#X obj 47 67 t b b, f 23;
#X obj 183 107 f;
#X obj 256 98 + 1;
#X obj 302 64 loadbang;
#X msg 46 171 loadbang;
#X obj 183 127 + 1;
#X obj 183 163 t f f;
#X obj 183 145 nbx 5 14 -1e+37 1e+37 0 0 empty empty empty 0 -8 0 10
-262144 -1 -1 0 256;
#X obj 302 129 f;
#X obj 319 111 nbx 5 14 -1e+37 1e+37 0 1 empty empty empty 0 -8 0 10
-262144 -1 -1 0 256;
#X obj 302 84 t b b;
#X obj 376 60 r \$0_resetcount;
#X msg 376 80 0;
#X obj 46 191 s pd-midiadsr.pd;
#X msg 183 227 \; pd-Master_Patch.pd obj 20 120 adsr/midiadsr \$1;
#N canvas 626 204 706 504 make 0;
#X obj 202 250 textfile;
#X msg 470 188 clear;
#N canvas 699 49 736 667 save 0;
#X obj 150 412 outlet;
#X obj 143 204 inlet;
#X msg 148 325 set 1814.21 1145.59 0.850394 2246.85;
#X connect 1 0 2 0;
#X connect 2 0 0 0;
#X restore 390 129 pd save receives;
#N canvas 255 117 735 694 save 0;
#X obj 37 37 inlet;
#X obj 38 58 unpack f f f f f f f f f f f f f s f;
#X connect 0 0 1 0;
#X restore 202 270 pd save sends;
#X obj 204 -18 inlet;
#X obj 204 0 t f b b, f 63;
#X obj 204 20 + 1;
#X msg 203 55 write All_Modules/adsr/midiadsr_\$1.txt;
#X connect 0 0 3 0;
#X connect 1 0 0 0;
#X connect 2 0 0 0;
#X connect 4 0 5 0;
#X connect 5 0 6 0;
#X connect 5 1 2 0;
#X connect 5 2 1 0;
#X connect 6 0 7 0;
#X connect 7 0 0 0;
#X restore 233 193 pd make text;
#X obj 47 87 del 30;
#X obj 47 107 uzi 3;
#X connect 0 0 1 0;
#X connect 1 0 17 0;
#X connect 1 1 2 0;
#X connect 2 0 6 0;
#X connect 2 0 3 0;
#X connect 3 0 2 1;
#X connect 4 0 11 0;
#X connect 4 0 9 0;
#X connect 5 0 14 0;
#X connect 6 0 8 0;
#X connect 7 0 15 0;
#X connect 7 1 10 0;
#X connect 7 1 16 0;
#X connect 8 0 7 0;
#X connect 9 0 2 1;
#X connect 10 0 9 1;
#X connect 11 0 9 0;
#X connect 11 1 10 0;
#X connect 12 0 13 0;
#X connect 13 0 10 0;
#X connect 17 0 18 0;
#X connect 18 0 5 0;
#X restore 15 458 pd midiadsr;
#X obj 13 308 bng 15 250 50 0 empty open-chebychev Chebychev 17 7 0
10 -262144 -1 -1;
#N canvas 767 221 673 471 Chebychev 0;
#X obj 37 37 inlet;
#X obj 37 57 t b b, f 23;
#X obj 173 97 f;
#X obj 246 88 + 1;
#X obj 292 54 loadbang;
#X msg 38 298 loadbang;
#X obj 173 117 + 1;
#X obj 173 153 t f f;
#X obj 174 135 nbx 5 14 -1e+37 1e+37 0 0 empty empty empty 0 -8 0 10
-262144 -1 -1 0 256;
#X obj 292 119 f;
#X obj 309 101 nbx 5 14 -1e+37 1e+37 0 1 empty empty empty 0 -8 0 10
-262144 -1 -1 1 256;
#X obj 292 74 t b b;
#X obj 371 53 r \$0_resetcount;
#X msg 371 73 0;
#N canvas 626 204 706 504 make 0;
#X obj 202 250 textfile;
#X msg 470 188 clear;
#N canvas 699 49 736 667 save 0;
#X obj 150 412 outlet;
#X obj 143 204 inlet;
#X msg 146 325 set 1 0.212598 1 0 0 1 0 0.565657;
#X connect 1 0 2 0;
#X connect 2 0 0 0;
#X restore 390 129 pd save receives;
#N canvas 255 117 735 694 save 0;
#X obj 37 37 inlet;
#X obj 38 58 unpack f f f f f f f f f f f f f s f;
#X connect 0 0 1 0;
#X restore 202 270 pd save sends;
#X obj 204 -18 inlet;
#X obj 204 0 t f b b, f 63;
#X obj 204 20 + 1;
#X msg 203 55 write All_Modules/Chebychev/chebychev_\$1.txt;
#X connect 0 0 3 0;
#X connect 1 0 0 0;
#X connect 2 0 0 0;
#X connect 4 0 5 0;
#X connect 5 0 6 0;
#X connect 5 1 2 0;
#X connect 5 2 1 0;
#X connect 6 0 7 0;
#X connect 7 0 0 0;
#X restore 233 193 pd make text;
#X obj 37 77 del 40;
#X obj 37 97 cyclone/uzi 2;
#X obj 173 173 t f f;
#X msg 172 249 \; pd-Master_Patch.pd obj 20 120 chebychev \$1;
#X obj 38 318 s pd-chebychev.pd;
#X connect 0 0 1 0;
#X connect 1 0 15 0;
#X connect 1 1 2 0;
#X connect 2 0 6 0;
#X connect 2 0 3 0;
#X connect 3 0 2 1;
#X connect 4 0 11 0;
#X connect 4 0 9 0;
#X connect 5 0 19 0;
#X connect 6 0 8 0;
#X connect 7 0 17 0;
#X connect 7 1 10 0;
#X connect 8 0 7 0;
#X connect 9 0 2 1;
#X connect 10 0 9 1;
#X connect 11 0 9 0;
#X connect 11 1 10 0;
#X connect 12 0 13 0;
#X connect 13 0 10 0;
#X connect 15 0 16 0;
#X connect 16 0 5 0;
#X connect 17 0 18 0;
#X connect 17 1 14 0;
#X restore 13 327 pd Chebychev;
#X text 8 290 Effects;
#X obj 10 212 bng 15 250 50 0 empty open-pitchshifter Pitch_Shifter
17 7 0 10 -262144 -1 -1;
#N canvas 255 239 450 300 pitch 0;
#X obj 47 47 inlet;
#X obj 47 67 t b b, f 23;
#X obj 183 107 f;
#X obj 256 98 + 1;
#X obj 302 64 loadbang;
#X msg 46 171 loadbang;
#X obj 183 127 + 1;
#X obj 183 163 t f f;
#X obj 183 145 nbx 5 14 -1e+37 1e+37 0 0 empty empty empty 0 -8 0 10
-262144 -1 -1 0 256;
#X obj 302 129 f;
#X obj 319 111 nbx 5 14 -1e+37 1e+37 0 1 empty empty empty 0 -8 0 10
-262144 -1 -1 1 256;
#X obj 302 84 t b b;
#X obj 376 60 r \$0_resetcount;
#X msg 376 80 0;
#X obj 183 183 t f f;
#N canvas 626 204 706 504 make 0;
#X obj 202 250 textfile;
#X msg 470 188 clear;
#N canvas 699 49 736 667 save 0;
#X obj 150 412 outlet;
#X obj 143 204 inlet;
#X msg 149 325 set 1 441 0;
#X connect 1 0 2 0;
#X connect 2 0 0 0;
#X restore 392 129 pd save receives;
#X obj 204 -18 inlet;
#X obj 204 0 t f b b, f 63;
#X obj 204 20 + 1;
#X msg 203 55 write All_Modules/Pitch_shifter/Pitch_shifter_\$1.txt
;
#X connect 1 0 0 0;
#X connect 2 0 0 0;
#X connect 3 0 4 0;
#X connect 4 0 5 0;
#X connect 4 1 2 0;
#X connect 4 2 1 0;
#X connect 5 0 6 0;
#X connect 6 0 0 0;
#X restore 211 206 pd make text;
#X obj 47 87 del 20;
#X obj 47 107 uzi 3;
#X msg 183 230 \; pd-Master_Patch.pd obj 20 120 Pitch_shifter \$1;
#X obj 47 191 s pd-Pitch_shifter.pd;
#X connect 0 0 1 0;
#X connect 1 0 16 0;
#X connect 1 1 2 0;
#X connect 2 0 6 0;
#X connect 2 0 3 0;
#X connect 3 0 2 1;
#X connect 4 0 11 0;
#X connect 4 0 9 0;
#X connect 5 0 19 0;
#X connect 6 0 8 0;
#X connect 7 0 14 0;
#X connect 7 1 10 0;
#X connect 8 0 7 0;
#X connect 9 0 2 1;
#X connect 10 0 9 1;
#X connect 11 0 9 0;
#X connect 11 1 10 0;
#X connect 12 0 13 0;
#X connect 13 0 10 0;
#X connect 14 0 18 0;
#X connect 14 1 15 0;
#X connect 16 0 17 0;
#X connect 17 0 5 0;
#X restore 10 232 pd pitch shifter;
#X obj 11 251 bng 15 250 50 0 empty open-shepard Shepard_Tone_(real_time)
17 7 0 10 -262144 -1 -1;
#N canvas 255 239 450 300 Shepard 0;
#X obj 47 47 inlet;
#X obj 47 67 t b b, f 23;
#X obj 183 107 f;
#X obj 256 98 + 1;
#X obj 302 64 loadbang;
#X msg 46 171 loadbang;
#X obj 183 127 + 1;
#X obj 183 163 t f f;
#X obj 183 145 nbx 5 14 -1e+37 1e+37 0 0 empty empty empty 0 -8 0 10
-262144 -1 -1 0 256;
#X obj 302 129 f;
#X obj 319 111 nbx 5 14 -1e+37 1e+37 0 1 empty empty empty 0 -8 0 10
-262144 -1 -1 0 256;
#X obj 302 84 t b b;
#X obj 376 60 r \$0_resetcount;
#X msg 376 80 0;
#X obj 183 183 t f f;
#N canvas 549 203 706 504 make 0;
#X obj 202 250 textfile;
#X msg 470 188 clear;
#N canvas 699 49 736 667 save 0;
#X obj 150 412 outlet;
#X obj 143 204 inlet;
#X msg 149 325 set 1 441 10 1 -1;
#X connect 1 0 2 0;
#X connect 2 0 0 0;
#X restore 390 129 pd save receives;
#X obj 204 -18 inlet;
#X obj 204 0 t f b b, f 63;
#X obj 204 20 + 1;
#X msg 203 55 write All_Modules/Shepard_tone/shepard_\$1.txt;
#X connect 1 0 0 0;
#X connect 2 0 0 0;
#X connect 3 0 4 0;
#X connect 4 0 5 0;
#X connect 4 1 2 0;
#X connect 4 2 1 0;
#X connect 5 0 6 0;
#X connect 6 0 0 0;
#X restore 211 206 pd make text;
#X obj 47 87 del 20;
#X obj 47 107 uzi 3;
#X obj 47 191 s pd-Shepard_tone.pd;
#X msg 183 230 \; pd-Master_Patch.pd obj 20 120 Shepard_tone \$1;
#X connect 0 0 1 0;
#X connect 1 0 16 0;
#X connect 1 1 2 0;
#X connect 2 0 6 0;
#X connect 2 0 3 0;
#X connect 3 0 2 1;
#X connect 4 0 11 0;
#X connect 4 0 9 0;
#X connect 5 0 18 0;
#X connect 6 0 8 0;
#X connect 7 0 14 0;
#X connect 7 1 10 0;
#X connect 8 0 7 0;
#X connect 9 0 2 1;
#X connect 10 0 9 1;
#X connect 11 0 9 0;
#X connect 11 1 10 0;
#X connect 12 0 13 0;
#X connect 13 0 10 0;
#X connect 14 0 19 0;
#X connect 14 1 15 0;
#X connect 16 0 17 0;
#X connect 17 0 5 0;
#X restore 11 271 pd Shepard;
#X text 422 5 FFT;
#X obj 422 20 bng 15 250 50 0 empty open-fft_spectrum_selection FFT_Spectrum_selection
17 7 0 10 -262144 -1 -1;
#N canvas 510 314 513 340 Spectrum 0;
#X obj 47 47 inlet;
#X obj 47 67 t b b, f 23;
#X obj 183 107 f;
#X obj 256 98 + 1;
#X obj 302 64 loadbang;
#X msg 47 236 loadbang;
#X obj 183 127 + 1;
#X obj 183 163 t f f;
#X obj 183 145 nbx 5 14 -1e+37 1e+37 0 0 empty empty empty 0 -8 0 10
-262144 -1 -1 0 256;
#X obj 302 129 f;
#X obj 319 111 nbx 5 14 -1e+37 1e+37 0 1 empty empty empty 0 -8 0 10
-262144 -1 -1 3 256;
#X obj 302 84 t b b;
#X obj 376 60 r \$0_resetcount;
#X msg 376 80 0;
#X obj 47 256 s pd-FFT_Spectrum_selection.pd;
#X obj 183 183 t f f;
#X msg 185 223 \; pd-Master_Patch.pd obj 20 120 FFT_Spectrum_selection
\$1;
#N canvas 210 315 706 504 make 0;
#X obj 202 250 textfile;
#X msg 470 188 clear;
#N canvas 699 49 736 667 save 0;
#X obj 150 412 outlet;
#X obj 143 204 inlet;
#X msg 144 261 set 0_0_0_0_0_0_0_0_0_0_0.85_0_0_0_0_0_0.6625_0_0_0_0_0_0.75_0_0_0_0_0_0_0_0_0_0.7_0_0_0_0_0_0.9625_0_0_0_0_0_0_0_0_0_0.775_0.775_0_0_0_0_0_0_0_0_0_0_0_0_0_0_0.9_0_0_0_0_0_0_0_0_0_0_0_0_0_0_0_0.7625_0_0_0_0_0_0_0_0_0_0_0_0_0_0_0_0_0_0_0_0_0.85_0_0_0_0_0_0_0_0_0_0_0_0_0_0_0_0_0_0_0.9375_0_0_0_0_0_0.925_0
256 9.82677;
#X connect 1 0 2 0;
#X connect 2 0 0 0;
#X restore 390 129 pd save receives;
#N canvas 255 117 735 694 save 0;
#X obj 37 37 inlet;
#X obj 38 58 unpack f f f f f f f f f f f f f s f;
#X connect 0 0 1 0;
#X restore 202 270 pd save sends;
#X obj 204 -18 inlet;
#X obj 204 0 t f b b, f 63;
#X obj 204 20 + 1;
#X msg 204 56 write All_Modules/FFT_Spectrum_selection/FFT_Spectrum_selection_\$1.txt
;
#X connect 0 0 3 0;
#X connect 1 0 0 0;
#X connect 2 0 0 0;
#X connect 4 0 5 0;
#X connect 5 0 6 0;
#X connect 5 1 2 0;
#X connect 5 2 1 0;
#X connect 6 0 7 0;
#X connect 7 0 0 0;
#X restore 211 203 pd make text;
#X obj 47 87 del 40;
#X obj 47 107 uzi 3;
#X connect 0 0 1 0;
#X connect 1 0 18 0;
#X connect 1 1 2 0;
#X connect 2 0 6 0;
#X connect 2 0 3 0;
#X connect 3 0 2 1;
#X connect 4 0 11 0;
#X connect 4 0 9 0;
#X connect 5 0 14 0;
#X connect 6 0 8 0;
#X connect 7 0 15 0;
#X connect 7 1 10 0;
#X connect 8 0 7 0;
#X connect 9 0 2 1;
#X connect 10 0 9 1;
#X connect 11 0 9 0;
#X connect 11 1 10 0;
#X connect 12 0 13 0;
#X connect 13 0 10 0;
#X connect 15 0 16 0;
#X connect 15 1 17 0;
#X connect 18 0 19 0;
#X connect 19 0 5 0;
#X restore 422 40 pd Spectrum Selection;
#X text 132 27 Recieves a bang from when Module is selected;
#X text 83 46 Dynamic Patching Subpatch;
#X obj 11 112 bng 15 250 50 0 empty open-sampleplayer Sample_Player
17 7 0 10 -262144 -1 -1;
#N canvas 767 221 673 471 sample 0;
#X obj 37 37 inlet;
#X obj 37 57 t b b, f 23;
#X obj 173 97 f;
#X obj 246 88 + 1;
#X obj 292 54 loadbang;
#X msg 38 298 loadbang;
#X obj 173 117 + 1;
#X obj 173 153 t f f;
#X obj 174 135 nbx 5 14 -1e+37 1e+37 0 0 empty empty empty 0 -8 0 10
-262144 -1 -1 0 256;
#X obj 292 119 f;
#X obj 309 101 nbx 5 14 -1e+37 1e+37 0 1 empty empty empty 0 -8 0 10
-262144 -1 -1 18 256;
#X obj 292 74 t b b;
#X obj 371 53 r \$0_resetcount;
#X msg 371 73 0;
#N canvas 626 204 706 504 make 0;
#X obj 202 250 textfile;
#X msg 470 188 clear;
#N canvas 699 49 736 667 save 0;
#X obj 150 412 outlet;
#X obj 143 204 inlet;
#X msg 149 325 set 0.5 COOK^ME^ILL^MELT_01-13.wav;
#X connect 1 0 2 0;
#X connect 2 0 0 0;
#X restore 390 129 pd save receives;
#N canvas 255 117 735 694 save 0;
#X obj 37 37 inlet;
#X obj 38 58 unpack f f f f f f f f f f f f f s f;
#X connect 0 0 1 0;
#X restore 202 270 pd save sends;
#X obj 204 -18 inlet;
#X obj 204 0 t f b b, f 63;
#X obj 204 20 + 1;
#X msg 203 56 write All_Modules/Sample_player/Sample_player_\$1.txt
;
#X connect 0 0 3 0;
#X connect 1 0 0 0;
#X connect 2 0 0 0;
#X connect 4 0 5 0;
#X connect 5 0 6 0;
#X connect 5 1 2 0;
#X connect 5 2 1 0;
#X connect 6 0 7 0;
#X connect 7 0 0 0;
#X restore 233 193 pd make text;
#X obj 37 77 del 40;
#X obj 37 97 cyclone/uzi 2;
#X obj 173 173 t f f;
#X msg 172 249 \; pd-Master_Patch.pd obj 20 120 Sample_player \$1;
#X obj 38 318 s pd-Sample_player.pd;
#X connect 0 0 1 0;
#X connect 1 0 15 0;
#X connect 1 1 2 0;
#X connect 2 0 6 0;
#X connect 2 0 3 0;
#X connect 3 0 2 1;
#X connect 4 0 11 0;
#X connect 4 0 9 0;
#X connect 5 0 19 0;
#X connect 6 0 8 0;
#X connect 7 0 17 0;
#X connect 7 1 10 0;
#X connect 8 0 7 0;
#X connect 9 0 2 1;
#X connect 10 0 9 1;
#X connect 11 0 9 0;
#X connect 11 1 10 0;
#X connect 12 0 13 0;
#X connect 13 0 10 0;
#X connect 15 0 16 0;
#X connect 16 0 5 0;
#X connect 17 0 18 0;
#X connect 17 1 14 0;
#X restore 11 131 pd sample player;
#X obj 425 137 bng 15 250 50 0 empty open-externalaudioout External_Audio_Out
17 7 0 10 -262144 -1 -1;
#N canvas 666 23 533 375 external 0;
#X obj 47 47 inlet;
#X obj 47 67 t b b, f 23;
#X obj 183 107 f;
#X obj 256 98 + 1;
#X obj 302 64 loadbang;
#X msg 46 171 loadbang;
#X obj 183 127 + 1;
#X obj 183 163 t f f;
#X obj 183 145 nbx 5 14 -1e+37 1e+37 0 0 empty empty empty 0 -8 0 10
-262144 -1 -1 0 256;
#X obj 302 129 f;
#X obj 319 111 nbx 5 14 -1e+37 1e+37 0 1 empty empty empty 0 -8 0 10
-262144 -1 -1 3 256;
#X obj 302 84 t b b;
#X obj 376 60 r \$0_resetcount;
#X msg 376 80 0;
#X obj 46 191 s pd-mixsend.pd;
#X obj 183 183 t f f;
#N canvas 626 204 706 504 make 0;
#X obj 202 250 textfile;
#X msg 470 188 clear;
#N canvas 699 49 736 667 save 0;
#X obj 150 412 outlet;
#X obj 143 204 inlet;
#X msg 149 325 set 2 0 3 4;
#X connect 1 0 2 0;
#X connect 2 0 0 0;
#X restore 390 129 pd save receives;
#N canvas 255 117 735 694 save 0;
#X obj 37 37 inlet;
#X obj 38 58 unpack f f f f f f f f f f f f f s f;
#X connect 0 0 1 0;
#X restore 202 270 pd save sends;
#X obj 204 -18 inlet;
#X obj 204 0 t f b b, f 63;
#X obj 204 20 + 1;
#X msg 203 55 write All_Modules/Utilities/externalaudio_\$1.txt;
#X connect 0 0 3 0;
#X connect 1 0 0 0;
#X connect 2 0 0 0;
#X connect 4 0 5 0;
#X connect 5 0 6 0;
#X connect 5 1 2 0;
#X connect 5 2 1 0;
#X connect 6 0 7 0;
#X connect 7 0 0 0;
#X restore 210 202 pd make text;
#X msg 183 222 \; pd-Master_Patch.pd obj 20 120 Utilities/externalaudioout
\$1;
#X connect 0 0 1 0;
#X connect 1 0 5 0;
#X connect 1 1 2 0;
#X connect 2 0 6 0;
#X connect 2 0 3 0;
#X connect 3 0 2 1;
#X connect 4 0 11 0;
#X connect 4 0 9 0;
#X connect 5 0 14 0;
#X connect 6 0 8 0;
#X connect 7 0 15 0;
#X connect 7 1 10 0;
#X connect 8 0 7 0;
#X connect 9 0 2 1;
#X connect 10 0 9 1;
#X connect 11 0 9 0;
#X connect 11 1 10 0;
#X connect 12 0 13 0;
#X connect 13 0 10 0;
#X connect 15 0 17 0;
#X connect 15 1 16 0;
#X restore 425 157 pd external audio out;
#X obj 14 345 bng 15 250 50 0 empty open-vocoder Vocoder 17 7 0 10
-262144 -1 -1;
#N canvas 767 221 673 471 Vocoder 0;
#X obj 37 37 inlet;
#X obj 37 57 t b b, f 23;
#X obj 173 97 f;
#X obj 246 88 + 1;
#X obj 292 54 loadbang;
#X msg 38 298 loadbang;
#X obj 173 117 + 1;
#X obj 173 153 t f f;
#X obj 174 135 nbx 5 14 -1e+37 1e+37 0 0 empty empty empty 0 -8 0 10
-262144 -1 -1 0 256;
#X obj 292 119 f;
#X obj 309 101 nbx 5 14 -1e+37 1e+37 0 1 empty empty empty 0 -8 0 10
-262144 -1 -1 4 256;
#X obj 292 74 t b b;
#X obj 371 53 r \$0_resetcount;
#X msg 371 73 0;
#N canvas 626 204 706 504 make 0;
#X obj 202 251 textfile;
#X msg 470 188 clear;
#N canvas 699 49 736 667 save 0;
#X obj 150 412 outlet;
#X obj 143 204 inlet;
#X msg 146 325 set 1 0 200 0 4.6063 0.181102 1 0 14965.7 1000 0 1000
;
#X connect 1 0 2 0;
#X connect 2 0 0 0;
#X restore 390 129 pd save receives;
#N canvas 255 117 735 694 save 0;
#X obj 37 37 inlet;
#X obj 38 58 unpack f f f f f f f f f f f f f s f;
#X connect 0 0 1 0;
#X restore 202 270 pd save sends;
#X obj 204 -18 inlet;
#X obj 204 0 t f b b, f 63;
#X obj 204 20 + 1;
#X msg 203 55 write All_Modules/Vocoder/Vocoder_\$1.txt;
#X connect 0 0 3 0;
#X connect 1 0 0 0;
#X connect 2 0 0 0;
#X connect 4 0 5 0;
#X connect 5 0 6 0;
#X connect 5 1 2 0;
#X connect 5 2 1 0;
#X connect 6 0 7 0;
#X connect 7 0 0 0;
#X restore 233 193 pd make text;
#X obj 37 77 del 40;
#X obj 37 97 cyclone/uzi 2;
#X obj 173 173 t f f;
#X obj 38 318 s pd-Vocoder.pd;
#X msg 172 249 \; pd-Master_Patch.pd obj 20 120 Vocoder \$1;
#X connect 0 0 1 0;
#X connect 1 0 15 0;
#X connect 1 1 2 0;
#X connect 2 0 6 0;
#X connect 2 0 3 0;
#X connect 3 0 2 1;
#X connect 4 0 11 0;
#X connect 4 0 9 0;
#X connect 5 0 18 0;
#X connect 6 0 8 0;
#X connect 7 0 17 0;
#X connect 7 1 10 0;
#X connect 8 0 7 0;
#X connect 9 0 2 1;
#X connect 10 0 9 1;
#X connect 11 0 9 0;
#X connect 11 1 10 0;
#X connect 12 0 13 0;
#X connect 13 0 10 0;
#X connect 15 0 16 0;
#X connect 16 0 5 0;
#X connect 17 0 19 0;
#X connect 17 1 14 0;
#X restore 14 364 pd Vocoder;
#X obj 434 533 bng 15 250 50 0 empty open-OSCin OSC_in 17 7 0 10 -262144
-1 -1;
#X text 431 514 OSC;
#N canvas 0 23 487 357 OSC 0;
#X obj 47 47 inlet;
#X obj 47 67 t b b, f 23;
#X obj 183 107 f;
#X obj 256 98 + 1;
#X obj 302 64 loadbang;
#X msg 46 210 loadbang;
#X obj 183 127 + 1;
#X obj 183 163 t f f;
#X obj 183 145 nbx 5 14 -1e+37 1e+37 0 0 empty empty empty 0 -8 0 10
-262144 -1 -1 0 256;
#X obj 302 129 f;
#X obj 319 111 nbx 5 14 -1e+37 1e+37 0 1 empty empty empty 0 -8 0 10
-262144 -1 -1 13 256;
#X obj 302 84 t b b;
#X obj 376 60 r \$0_resetcount;
#X msg 376 80 0;
#X msg 181 246 \; pd-Master_Patch.pd obj 20 120 OSC/OSCin \$1;
#X obj 45 230 s pd-OSCin.pd;
#N canvas 626 204 706 504 make 0;
#X obj 202 250 textfile;
#X msg 470 188 clear;
#N canvas 699 49 736 667 save 0;
#X obj 150 412 outlet;
#X obj 143 204 inlet;
#X msg 147 325 set 9001;
#X connect 1 0 2 0;
#X connect 2 0 0 0;
#X restore 390 129 pd save receives;
#X obj 204 -18 inlet;
#X obj 204 0 t f b b, f 63;
#X obj 204 20 + 1;
#X msg 203 55 write All_Modules/OSC/OSCin_\$1.txt;
#X connect 1 0 0 0;
#X connect 2 0 0 0;
#X connect 3 0 4 0;
#X connect 4 0 5 0;
#X connect 4 1 2 0;
#X connect 4 2 1 0;
#X connect 5 0 6 0;
#X connect 6 0 0 0;
#X restore 233 193 pd make text;
#X connect 0 0 1 0;
#X connect 1 0 5 0;
#X connect 1 1 2 0;
#X connect 2 0 6 0;
#X connect 2 0 3 0;
#X connect 3 0 2 1;
#X connect 4 0 11 0;
#X connect 4 0 9 0;
#X connect 5 0 15 0;
#X connect 6 0 8 0;
#X connect 7 0 14 0;
#X connect 7 1 10 0;
#X connect 7 1 16 0;
#X connect 8 0 7 0;
#X connect 9 0 2 1;
#X connect 10 0 9 1;
#X connect 11 0 9 0;
#X connect 11 1 10 0;
#X connect 12 0 13 0;
#X connect 13 0 10 0;
#X restore 434 553 pd OSC in;
#X obj 437 650 bng 15 250 50 0 empty open-OSCroute OSC_route 17 7 0
10 -262144 -1 -1;
#N canvas 572 195 692 517 OSC 0;
#X obj 37 37 inlet;
#X obj 37 57 t b b, f 23;
#X obj 173 97 f;
#X obj 246 88 + 1;
#X obj 292 54 loadbang;
#X msg 36 257 loadbang;
#X obj 173 117 + 1;
#X obj 173 153 t f f;
#X obj 173 135 nbx 5 14 -1e+37 1e+37 0 0 empty empty empty 0 -8 0 10
-262144 -1 -1 0 256;
#X obj 292 119 f;
#X obj 309 101 nbx 5 14 -1e+37 1e+37 0 1 empty empty empty 0 -8 0 10
-262144 -1 -1 16 256;
#X obj 292 74 t b b;
#X obj 383 53 r \$0_resetcount;
#X msg 383 73 0;
#N canvas 469 174 706 504 make 0;
#X obj 202 250 textfile;
#X msg 470 188 clear;
#N canvas 699 49 736 667 save 0;
#X obj 150 412 outlet;
#X obj 143 204 inlet;
#X msg 149 325 set;
#X connect 1 0 2 0;
#X connect 2 0 0 0;
#X restore 390 129 pd save receives;
#X obj 204 -18 inlet;
#X obj 204 0 t f b b, f 63;
#X obj 204 20 + 1;
#X text 568 56 Saves the file;
#X text 500 128 States the load preset values.;
#X msg 203 55 write All_Modules/OSC/OSCroute_\$1.txt;
#X connect 1 0 0 0;
#X connect 2 0 0 0;
#X connect 3 0 4 0;
#X connect 4 0 5 0;
#X connect 4 1 2 0;
#X connect 4 2 1 0;
#X connect 5 0 8 0;
#X connect 8 0 0 0;
#X restore 204 198 pd make text;
#X obj 173 173 t f f;
#X obj 37 77 del 40;
#X obj 37 97 cyclone/uzi 3;
#X text 377 102 Float feedback system adds 1 to the f cold inlet eachtime
a module is selected. This allows the creation argument to go up by
1 incrementaly with each load. This allows all internal send and recieves
to be differentiated.;
#X text 290 192 Creates the parameter file and preset for the next
time the module is laoded.;
#X text 482 233 Creates the module on the master patch with the creation
value;
#X text 189 277 Sends a loadbang to the Module after it is created
;
#X msg 174 227 \; pd-Master_Patch.pd obj 20 120 OSC/OSCroute \$1;
#X obj 36 277 s pd-OSCroute.pd;
#X connect 0 0 1 0;
#X connect 1 0 16 0;
#X connect 1 1 2 0;
#X connect 2 0 6 0;
#X connect 2 0 3 0;
#X connect 3 0 2 1;
#X connect 4 0 11 0;
#X connect 4 0 9 0;
#X connect 5 0 23 0;
#X connect 6 0 8 0;
#X connect 7 0 15 0;
#X connect 7 1 10 0;
#X connect 8 0 7 0;
#X connect 9 0 2 1;
#X connect 10 0 9 1;
#X connect 11 0 9 0;
#X connect 11 1 10 0;
#X connect 12 0 13 0;
#X connect 13 0 10 0;
#X connect 15 0 22 0;
#X connect 15 1 14 0;
#X connect 16 0 17 0;
#X connect 17 0 5 0;
#X restore 437 670 pd OSC route;
#X obj 425 176 bng 15 250 50 0 empty open-4channelmixer 4_Channel_Mixer
17 7 0 10 -262144 -1 -1;
#N canvas 0 23 450 300 4chanmixer 0;
#X obj 47 47 inlet;
#X obj 47 67 t b b, f 23;
#X obj 183 107 f;
#X obj 256 98 + 1;
#X obj 302 64 loadbang;
#X msg 46 171 loadbang;
#X obj 183 127 + 1;
#X obj 183 163 t f f;
#X obj 183 145 nbx 5 14 -1e+37 1e+37 0 0 empty empty empty 0 -8 0 10
-262144 -1 -1 0 256;
#X obj 302 129 f;
#X obj 319 111 nbx 5 14 -1e+37 1e+37 0 1 empty empty empty 0 -8 0 10
-262144 -1 -1 8 256;
#X obj 302 84 t b b;
#X obj 376 60 r \$0_resetcount;
#X msg 376 80 0;
#X obj 183 183 t f f;
#N canvas 626 204 706 504 make 0;
#X obj 202 250 textfile;
#X msg 470 188 clear;
#N canvas 699 49 736 667 save 0;
#X obj 150 412 outlet;
#X obj 143 204 inlet;
#X msg 149 325 set 0.5 0.5 0.5 0.5 0 500 500 0.5 0.8 \;;
#X connect 1 0 2 0;
#X connect 2 0 0 0;
#X restore 390 129 pd save receives;
#X obj 204 -18 inlet;
#X obj 204 0 t f b b, f 63;
#X obj 204 20 + 1;
#X msg 203 55 write All_Modules/Utilities/4chanmixer_\$1.txt;
#X connect 1 0 0 0;
#X connect 2 0 0 0;
#X connect 3 0 4 0;
#X connect 4 0 5 0;
#X connect 4 1 2 0;
#X connect 4 2 1 0;
#X connect 5 0 6 0;
#X connect 6 0 0 0;
#X restore 211 206 pd make text;
#X obj 47 87 del 20;
#X obj 47 107 uzi 3;
#X msg 183 230 \; pd-Master_Patch.pd obj 20 120 Utilities/4channelmixer
\$1;
#X obj 47 191 s pd-4channelmixer.pd;
#X connect 0 0 1 0;
#X connect 1 0 16 0;
#X connect 1 1 2 0;
#X connect 2 0 6 0;
#X connect 2 0 3 0;
#X connect 3 0 2 1;
#X connect 4 0 11 0;
#X connect 4 0 9 0;
#X connect 5 0 19 0;
#X connect 6 0 8 0;
#X connect 7 0 14 0;
#X connect 7 1 10 0;
#X connect 8 0 7 0;
#X connect 9 0 2 1;
#X connect 10 0 9 1;
#X connect 11 0 9 0;
#X connect 11 1 10 0;
#X connect 12 0 13 0;
#X connect 13 0 10 0;
#X connect 14 0 18 0;
#X connect 14 1 15 0;
#X connect 16 0 17 0;
#X connect 17 0 5 0;
#X restore 426 195 pd 4chanmixer;
#X obj 435 572 bng 15 250 50 0 empty open-OSCout(local) OSC_out(local)
17 7 0 10 -262144 -1 -1;
#N canvas 0 23 487 357 OSC 0;
#X obj 47 47 inlet;
#X obj 47 67 t b b, f 23;
#X obj 183 107 f;
#X obj 256 98 + 1;
#X obj 302 64 loadbang;
#X msg 46 210 loadbang;
#X obj 183 127 + 1;
#X obj 183 163 t f f;
#X obj 183 145 nbx 5 14 -1e+37 1e+37 0 0 empty empty empty 0 -8 0 10
-262144 -1 -1 0 256;
#X obj 302 129 f;
#X obj 319 111 nbx 5 14 -1e+37 1e+37 0 1 empty empty empty 0 -8 0 10
-262144 -1 -1 13 256;
#X obj 302 84 t b b;
#X obj 376 60 r \$0_resetcount;
#X msg 376 80 0;
#X msg 183 219 \; pd-Master_Patch.pd obj 20 120 OSC/OSCout(local) \$1
;
#X obj 46 230 s pd-OSCout(local).pd;
#N canvas 626 204 706 504 make 0;
#X obj 202 250 textfile;
#X msg 470 188 clear;
#N canvas 699 49 736 667 save 0;
#X obj 150 412 outlet;
#X obj 143 204 inlet;
#X msg 147 325 set 9001;
#X connect 1 0 2 0;
#X connect 2 0 0 0;
#X restore 390 129 pd save receives;
#X obj 204 -18 inlet;
#X obj 204 0 t f b b, f 63;
#X obj 204 20 + 1;
#X msg 203 55 write All_Modules/OSC/OSCout(local)_\$1.txt;
#X connect 1 0 0 0;
#X connect 2 0 0 0;
#X connect 3 0 4 0;
#X connect 4 0 5 0;
#X connect 4 1 2 0;
#X connect 4 2 1 0;
#X connect 5 0 6 0;
#X connect 6 0 0 0;
#X restore 233 193 pd make text;
#X connect 0 0 1 0;
#X connect 1 0 5 0;
#X connect 1 1 2 0;
#X connect 2 0 6 0;
#X connect 2 0 3 0;
#X connect 3 0 2 1;
#X connect 4 0 11 0;
#X connect 4 0 9 0;
#X connect 5 0 15 0;
#X connect 6 0 8 0;
#X connect 7 0 14 0;
#X connect 7 1 10 0;
#X connect 7 1 16 0;
#X connect 8 0 7 0;
#X connect 9 0 2 1;
#X connect 10 0 9 1;
#X connect 11 0 9 0;
#X connect 11 1 10 0;
#X connect 12 0 13 0;
#X connect 13 0 10 0;
#X restore 435 592 pd OSC out local;
#X obj 437 609 bng 15 250 50 0 empty open-OSCout(IP) OSC_out(IP) 17
7 0 10 -262144 -1 -1;
#N canvas 0 23 487 357 OSC 0;
#X obj 47 47 inlet;
#X obj 47 67 t b b, f 23;
#X obj 183 107 f;
#X obj 256 98 + 1;
#X obj 302 64 loadbang;
#X msg 46 210 loadbang;
#X obj 183 127 + 1;
#X obj 183 163 t f f;
#X obj 183 145 nbx 5 14 -1e+37 1e+37 0 0 empty empty empty 0 -8 0 10
-262144 -1 -1 0 256;
#X obj 302 129 f;
#X obj 319 111 nbx 5 14 -1e+37 1e+37 0 1 empty empty empty 0 -8 0 10
-262144 -1 -1 11 256;
#X obj 302 84 t b b;
#X obj 376 60 r \$0_resetcount;
#X msg 376 80 0;
#N canvas 626 204 706 504 make 0;
#X obj 202 250 textfile;
#X msg 470 188 clear;
#N canvas 699 49 736 667 save 0;
#X obj 150 412 outlet;
#X obj 143 204 inlet;
#X msg 147 325 set 9001;
#X connect 1 0 2 0;
#X connect 2 0 0 0;
#X restore 390 129 pd save receives;
#X obj 204 -18 inlet;
#X obj 204 0 t f b b, f 63;
#X obj 204 20 + 1;
#X msg 203 55 write All_Modules/OSC/OSCout(IP)_\$1.txt;
#X connect 1 0 0 0;
#X connect 2 0 0 0;
#X connect 3 0 4 0;
#X connect 4 0 5 0;
#X connect 4 1 2 0;
#X connect 4 2 1 0;
#X connect 5 0 6 0;
#X connect 6 0 0 0;
#X restore 233 193 pd make text;
#X msg 183 219 \; pd-Master_Patch.pd obj 20 120 OSC/OSCout(IP) \$1
;
#X obj 46 230 s pd-OSCout(IP).pd;
#X connect 0 0 1 0;
#X connect 1 0 5 0;
#X connect 1 1 2 0;
#X connect 2 0 6 0;
#X connect 2 0 3 0;
#X connect 3 0 2 1;
#X connect 4 0 11 0;
#X connect 4 0 9 0;
#X connect 5 0 16 0;
#X connect 6 0 8 0;
#X connect 7 0 15 0;
#X connect 7 1 10 0;
#X connect 7 1 14 0;
#X connect 8 0 7 0;
#X connect 9 0 2 1;
#X connect 10 0 9 1;
#X connect 11 0 9 0;
#X connect 11 1 10 0;
#X connect 12 0 13 0;
#X connect 13 0 10 0;
#X restore 437 628 pd OSC out IP;
#X obj 655 25 bng 15 250 50 0 empty open-CVout CV_out 17 7 0 10 -262144
-1 -1;
#X text 652 6 CV;
#N canvas 0 23 487 357 CV 0;
#X obj 47 47 inlet;
#X obj 47 67 t b b, f 23;
#X obj 183 107 f;
#X obj 256 98 + 1;
#X obj 302 64 loadbang;
#X msg 46 210 loadbang;
#X obj 183 127 + 1;
#X obj 183 163 t f f;
#X obj 183 145 nbx 5 14 -1e+37 1e+37 0 0 empty empty empty 0 -8 0 10
-262144 -1 -1 0 256;
#X obj 302 129 f;
#X obj 319 111 nbx 5 14 -1e+37 1e+37 0 1 empty empty empty 0 -8 0 10
-262144 -1 -1 10 256;
#X obj 302 84 t b b;
#X obj 376 60 r \$0_resetcount;
#X msg 376 80 0;
#N canvas 626 204 706 504 make 0;
#X obj 202 250 textfile;
#X msg 470 188 clear;
#N canvas 699 49 736 667 save 0;
#X obj 150 412 outlet;
#X obj 143 204 inlet;
#X msg 147 325 set 9001;
#X connect 1 0 2 0;
#X connect 2 0 0 0;
#X restore 390 129 pd save receives;
#X obj 204 -18 inlet;
#X obj 204 0 t f b b, f 63;
#X obj 204 20 + 1;
#X msg 203 55 write All_Modules/CV/CVout_\$1.txt;
#X connect 1 0 0 0;
#X connect 2 0 0 0;
#X connect 3 0 4 0;
#X connect 4 0 5 0;
#X connect 4 1 2 0;
#X connect 4 2 1 0;
#X connect 5 0 6 0;
#X connect 6 0 0 0;
#X restore 233 193 pd make text;
#X msg 181 246 \; pd-Master_Patch.pd obj 20 120 CV/CVout \$1;
#X obj 45 230 s pd-CV/CVout.pd;
#X obj 47 87 del 40;
#X obj 47 107 uzi 3;
#X connect 0 0 1 0;
#X connect 1 0 17 0;
#X connect 1 1 2 0;
#X connect 2 0 6 0;
#X connect 2 0 3 0;
#X connect 3 0 2 1;
#X connect 4 0 11 0;
#X connect 4 0 9 0;
#X connect 5 0 16 0;
#X connect 6 0 8 0;
#X connect 7 0 15 0;
#X connect 7 1 10 0;
#X connect 7 1 14 0;
#X connect 8 0 7 0;
#X connect 9 0 2 1;
#X connect 10 0 9 1;
#X connect 11 0 9 0;
#X connect 11 1 10 0;
#X connect 12 0 13 0;
#X connect 13 0 10 0;
#X connect 17 0 18 0;
#X connect 18 0 5 0;
#X restore 655 45 pd CV out;
#X obj 655 65 bng 15 250 50 0 empty open-CVin CV_in 17 7 0 10 -262144
-1 -1;
#N canvas 0 23 487 357 CV 0;
#X obj 47 47 inlet;
#X obj 47 67 t b b, f 23;
#X obj 183 107 f;
#X obj 256 98 + 1;
#X obj 302 64 loadbang;
#X msg 46 210 loadbang;
#X obj 183 127 + 1;
#X obj 183 163 t f f;
#X obj 183 145 nbx 5 14 -1e+37 1e+37 0 0 empty empty empty 0 -8 0 10
-262144 -1 -1 0 256;
#X obj 302 129 f;
#X obj 319 111 nbx 5 14 -1e+37 1e+37 0 1 empty empty empty 0 -8 0 10
-262144 -1 -1 10 256;
#X obj 302 84 t b b;
#X obj 376 60 r \$0_resetcount;
#X msg 376 80 0;
#N canvas 626 204 706 504 make 0;
#X obj 202 250 textfile;
#X msg 470 188 clear;
#N canvas 699 49 736 667 save 0;
#X obj 150 412 outlet;
#X obj 143 204 inlet;
#X msg 147 325 set 9001;
#X connect 1 0 2 0;
#X connect 2 0 0 0;
#X restore 390 129 pd save receives;
#X obj 204 -18 inlet;
#X obj 204 0 t f b b, f 63;
#X obj 204 20 + 1;
#X msg 203 55 write All_Modules/CV/CVin_\$1.txt;
#X connect 1 0 0 0;
#X connect 2 0 0 0;
#X connect 3 0 4 0;
#X connect 4 0 5 0;
#X connect 4 1 2 0;
#X connect 4 2 1 0;
#X connect 5 0 6 0;
#X connect 6 0 0 0;
#X restore 233 193 pd make text;
#X obj 47 87 del 40;
#X obj 47 107 uzi 3;
#X obj 45 230 s pd-CV/CVin.pd;
#X msg 181 246 \; pd-Master_Patch.pd obj 20 120 CV/CVin \$1;
#X connect 0 0 1 0;
#X connect 1 0 15 0;
#X connect 1 1 2 0;
#X connect 2 0 6 0;
#X connect 2 0 3 0;
#X connect 3 0 2 1;
#X connect 4 0 11 0;
#X connect 4 0 9 0;
#X connect 5 0 17 0;
#X connect 6 0 8 0;
#X connect 7 0 18 0;
#X connect 7 1 10 0;
#X connect 7 1 14 0;
#X connect 8 0 7 0;
#X connect 9 0 2 1;
#X connect 10 0 9 1;
#X connect 11 0 9 0;
#X connect 11 1 10 0;
#X connect 12 0 13 0;
#X connect 13 0 10 0;
#X connect 15 0 16 0;
#X connect 16 0 5 0;
#X restore 655 85 pd CV in;
#X obj 426 212 bng 15 250 50 0 empty open-scaler Value_Scaler 17 7
0 10 -262144 -1 -1;
#N canvas 363 63 609 363 Scaler 0;
#X obj 47 47 inlet;
#X obj 47 67 t b b, f 23;
#X obj 183 107 f;
#X obj 256 98 + 1;
#X obj 302 64 loadbang;
#X msg 46 171 loadbang;
#X obj 183 127 + 1;
#X obj 183 163 t f f;
#X obj 183 145 nbx 5 14 -1e+37 1e+37 0 0 empty empty empty 0 -8 0 10
-262144 -1 -1 0 256;
#X obj 302 129 f;
#X obj 319 111 nbx 5 14 -1e+37 1e+37 0 1 empty empty empty 0 -8 0 10
-262144 -1 -1 10 256;
#X obj 302 84 t b b;
#X obj 376 60 r \$0_resetcount;
#X msg 376 80 0;
#X obj 183 183 t f f;
#N canvas 626 204 706 504 make 0;
#X obj 202 250 textfile;
#X msg 470 188 clear;
#N canvas 699 49 736 667 save 0;
#X obj 150 412 outlet;
#X obj 143 204 inlet;
#X msg 149 325 set 127 0 1 0 \;;
#X connect 1 0 2 0;
#X connect 2 0 0 0;
#X restore 390 129 pd save receives;
#X obj 204 -18 inlet;
#X obj 204 0 t f b b, f 63;
#X obj 204 20 + 1;
#X msg 203 55 write All_Modules/Scaler/Scaler_\$1.txt;
#X connect 1 0 0 0;
#X connect 2 0 0 0;
#X connect 3 0 4 0;
#X connect 4 0 5 0;
#X connect 4 1 2 0;
#X connect 4 2 1 0;
#X connect 5 0 6 0;
#X connect 6 0 0 0;
#X restore 211 206 pd make text;
#X obj 47 87 del 20;
#X obj 47 107 uzi 3;
#X msg 183 230 \; pd-Master_Patch.pd obj 20 120 Scaler/Scaler \$1;
#X obj 47 191 s pd-Scaler.pd;
#X connect 0 0 1 0;
#X connect 1 0 16 0;
#X connect 1 1 2 0;
#X connect 2 0 6 0;
#X connect 2 0 3 0;
#X connect 3 0 2 1;
#X connect 4 0 11 0;
#X connect 4 0 9 0;
#X connect 5 0 19 0;
#X connect 6 0 8 0;
#X connect 7 0 14 0;
#X connect 7 1 10 0;
#X connect 8 0 7 0;
#X connect 9 0 2 1;
#X connect 10 0 9 1;
#X connect 11 0 9 0;
#X connect 11 1 10 0;
#X connect 12 0 13 0;
#X connect 13 0 10 0;
#X connect 14 0 18 0;
#X connect 14 1 15 0;
#X connect 16 0 17 0;
#X connect 17 0 5 0;
#X restore 427 231 pd Scaler;
#X connect 0 0 11 0;
#X connect 1 0 12 0;
#X connect 6 0 13 0;
#X connect 8 0 14 0;
#X connect 9 0 10 0;
#X connect 15 0 16 0;
#X connect 18 0 21 0;
#X connect 19 0 20 0;
#X connect 22 0 24 0;
#X connect 23 0 25 0;
#X connect 27 0 28 0;
#X connect 29 0 30 0;
#X connect 31 0 32 0;
#X connect 34 0 35 0;
#X connect 36 0 37 0;
#X connect 39 0 40 0;
#X connect 43 0 44 0;
#X connect 45 0 46 0;
#X connect 47 0 48 0;
#X connect 49 0 51 0;
#X connect 52 0 53 0;
#X connect 54 0 55 0;
#X connect 56 0 57 0;
#X connect 58 0 59 0;
#X connect 60 0 62 0;
#X connect 63 0 64 0;
#X connect 65 0 66 0;
#X restore 54 90 pd modules;
#N canvas 782 191 450 300 Menu 0;
#X obj -21 19 bng 15 250 50 0 empty \$0_open_modules empty 17 7 0 10
-262144 -1 -1;
#X msg -19 43 1;
#N canvas 503 42 503 516 Modules 0;
#X obj 0 0 cnv 15 500 500 empty empty empty 20 12 0 14 -204800 -66577
0;
#X obj 14 104 bng 15 250 50 0 open-autotune empty Autotune 17 7 0 10
-262144 -1 -1;
#X obj 15 26 bng 15 250 50 0 open-granular empty Granular_Sampler 17
7 0 10 -262144 -1 -1;
#X obj 12 256 bng 15 250 50 0 open-lfo empty LFO 17 7 0 10 -262144
-1 -1;
#X obj 11 322 bng 15 250 50 0 open-mixsend empty Mix_Send_(bus_to_master_out)
17 7 0 10 -262144 -1 -1;
#X text 12 9 SOUND MODULES;
#X text 11 240 MODULATORS;
#X text 10 299 UTILITIES;
#X text 261 71 GENERATIVE;
#X obj 265 86 bng 15 250 50 0 open-generativescale empty Generative_Scale
17 7 0 10 -262144 -1 -1;
#X obj 15 45 bng 15 250 50 0 open-phasemod empty Phase_Modulation 17
7 0 10 -262144 -1 -1;
#X obj 264 134 bng 15 250 50 0 open-externalmidiin empty External_MIDI_In
17 7 0 10 -262144 -1 -1;
#X text 260 116 MIDI;
#X obj 264 154 bng 15 250 50 0 open-externalmidiout empty External_MIDI_Out
17 7 0 10 -262144 -1 -1;
#X obj 264 174 bng 15 250 50 0 open-externalccin empty External_CC_In
17 7 0 10 -262144 -1 -1;
#X obj 264 194 bng 15 250 50 0 open-externalccout empty External_CC_Out
17 7 0 10 -262144 -1 -1;
#X text 261 8 FILTER;
#X obj 263 25 bng 15 250 50 0 open-svf empty SVF 17 7 0 10 -262144
-1 -1;
#X obj 12 278 bng 15 250 50 0 open-midiadsr empty MIDI_ADSR 17 7 0
10 -262144 -1 -1;
#X obj 13 196 bng 15 250 50 0 open-chebychev empty Chebychev_Waveshaper
17 7 0 10 -262144 -1 -1;
#X text 12 89 PITCH PROCESSORS;
#X obj 14 122 bng 15 250 50 0 open-pitchshifter empty Pitch_Shifter
17 7 0 10 -262144 -1 -1;
#X obj 14 140 bng 15 250 50 0 open-shepard empty Shepard_Tone_(real_time)
17 7 0 10 -262144 -1 -1;
#X obj 263 44 bng 15 250 50 0 open-fft_spectrum_selection empty Spectrum_Selection
17 7 0 10 -262144 -1 -1;
#X obj 15 63 bng 15 250 50 0 open-sampleplayer empty Sample_Player
17 7 0 10 -262144 -1 -1;
#X obj 11 342 bng 15 250 50 0 open-externalaudioout empty External_Audio_Out
17 7 0 10 -262144 -1 -1;
#X text 10 180 PROCCESSING;
#X obj 13 214 bng 15 250 50 0 open-vocoder empty Filterbank_Vocoder
17 7 0 10 -262144 -1 -1;
#X obj 265 242 bng 15 250 50 0 open-OSCin empty OSC_in 17 7 0 10 -262144
-1 -1;
#X obj 265 302 bng 15 250 50 0 open-OSCroute empty OSC_route 17 7 0
10 -262144 -1 -1;
#X text 263 225 OSC;
#X obj 11 360 bng 15 250 50 0 open-4channelmixer empty 4_Channel_Mixer
17 7 0 10 -262144 -1 -1;
#X obj 265 262 bng 15 250 50 0 open-OSCout(local) empty OSC_out(local)
17 7 0 10 -262144 -1 -1;
#X obj 265 282 bng 15 250 50 0 open-OSCout(IP) empty OSC_out(IP) 17
7 0 10 -262144 -1 -1;
#X obj 265 341 bng 15 250 50 0 open-CVout empty CV_out 17 7 0 10 -262144
-1 -1;
#X text 263 324 CV;
#X obj 265 360 bng 15 250 50 0 open-CVin empty CV_in 17 7 0 10 -262144
-1 -1;
#X obj 11 378 bng 15 250 50 0 open-scaler empty Value_Scaler 17 7 0
10 -262144 -1 -1;
#X restore -24 4 pd Modules;
#X msg -21 68 \; pd-Modules vis \$1;
#X msg 10 43 \; pd-Modules editmode 0;
#X obj 243 27 bng 15 250 50 0 empty \$0_open-help empty 17 7 0 10 -262144
-1 -1;
#X msg 243 47 1;
#X msg 275 48 \; pd-Help editmode 0;
#X msg 244 73 \; pd-Help vis \$1;
#N canvas 477 56 364 657 Help 0;
#X obj -5 -1 cnv 15 550 650 empty empty empty 20 12 0 14 -203904 -66577
0;
#X text 2 24 INFO;
#X text 2 42 The Modular system has been created for experimental sound
design \, and to extend the features of Digital Audio Workstations
by implementing a more graphical and patched based worksflow. Using
internal sound and MIDI drivers such as Soundflower and the IAC driver
\, users are able to send audio and MIDI between the Modular system
\, DAW's and other programmes.;
#X text 2 120 QUICK SET UP;
#X text 2 229 WORK ENVIRONMENT;
#X obj 5 288 bng 15 250 50 0 \$0_open_modules empty Modules 17 7 0
10 -262144 -1 -1;
#X text 2 305 Modules are all loaded below the control panel \, but
it's best to move them and keep that general area clear for loading
new modules.;
#X text 3 337 Inlets and outlets are labelled \, so that it should
be clear what inlets and outlets can be patched together.;
#X text 2 366 The Control Panel contains the Master Clock \, Master
Out \, and Master Save/Recall functions. The master volume slider must
be up \, as well as the appropriate output channels selected before
anything can be heard. The output sends channels can be selected to
run audio through an internal audio bus into other programmes. The
masterclock sends bangs to modules that use tempo \, such as the generative
scale. You can choose between an internal BPM \, or send a metronome
output into Pure Data via an audio channel \, and have the patch create
a bang based on the Attack of the metronome. This is a good way to
combine DAW tempo maps with the System.;
#X text 2 1 MODULAR SYSTEM HELP AND SET UP;
#X text 3 487 SAVING (VERY IMPORTANT TO AVOID LOSING WORK);
#X text 4 502 The Master Patch must not be altered or renamed \, and
modules must not be moved from their folders. To create a new patch
\, the entire Modular System folder should be copied. This can be renamed
to whatever you want to call it \, and a patch can be saved in there
\, and different samples can be added to the Samples folder. The reason
for copying the whole folder \, is that the dynamic patching can only
be loaded to the patch if it is called "Master_Patch" \, and also text
files are written into the mdolues folder containing all of the saved
parameter information.;
#X text 2 138 Start by selecting an audio interface- if you are using
wanting to pass audio in and out of other programmes then an aggregate
device will have to be created that includes an internal sound bus.
Also \, for MIDI to be passed in and out of the Pure Data then the
IAC driver must be turned on (on mac) and the IAC Driver selected in
MIDI preferences. All Modules require DSP to be turned on once you
are ready to perform.;
#X text 2 242 The system comprises of individual Modules that can be
patched together to create interesting sound design and compositions.
Modules can be selected from the Modules button on the control panel.
;
#X restore 241 9 pd Help;
#X text 41 4 Module load subpatch;
#X text 293 10 Module help subpatch;
#X text 394 53 Perform mode;
#X text 145 46 Perform mode;
#X text 86 74 Show modules subpatch;
#X text 2 21 Receive bang from control panel;
#X connect 0 0 1 0;
#X connect 0 0 4 0;
#X connect 1 0 3 0;
#X connect 5 0 6 0;
#X connect 5 0 7 0;
#X connect 6 0 8 0;
#X restore 54 63 pd Menu operations;
#X obj 220 -3 loadbang;
#X obj 220 17 s recall_parameters;
#X obj 53 -3 bng 15 250 50 0 empty save_parameters empty 17 7 0 10
-262144 -1 -1;
#X msg 53 17 menusave;
#X msg 396 -3 0;
#X obj 396 17 s \$0_resetcount;
#X obj 276 -4 bng 15 250 50 0 empty empty empty 17 7 0 10 -262144 -1
-1;
#X text -189 -3 Saves patch when save button is pressed;
#X text 218 33 recalls parameters on load;
#X text 493 16 Resets module counts- Should only be used on a new Master
Patch;
#X text 170 61 Contains subpatchs of open module page and help;
#X text 123 91 Contains the dynamic patching for each module;
#X obj 53 37 s pd-Master_Patch.pd;
#X connect 2 0 3 0;
#X connect 4 0 5 0;
#X connect 5 0 14 0;
#X connect 6 0 7 0;
#X connect 8 0 3 0;
#X restore 6 -78 pd set up;
#X obj 193 146 bng 15 250 50 0 \$0_open-help empty Help_and_Set_Up
17 7 0 10 -228856 -1 -1;
#X obj 6 8 declare -path All_Modules;
#X text 148 -41 Libraries and Paths are stated when laoded.;
#X text 71 -78 Contains subpatches for dynamic patching;
#X text 152 54 Sends bangs to: open the Modules Subpatch \; save parameters
\; recall last saved parameters \; open help subpatch.;
#X text 104 107 CONTROL PANEL;
#X obj 7 26 declare -lib mrpeach;
#X connect 6 0 7 0;
#X connect 8 0 6 0;
#X coords 0 -1 1 1 800 100 1 100 100;
#X restore -4 5 pd Control Pannel;
#X obj 877 925 Utilities/mixsend 11;
