#N canvas 676 82 732 814 10;
#X obj 227 376 text define \$0-prob;
#X obj 395 466 text search \$0-prob;
#X obj 395 487 sel -1;
#X obj 395 508 f;
#X obj 464 657 list store;
#X msg 464 636 append \$1;
#X msg 428 636 bang;
#X obj 428 594 f;
#X obj 428 615 t b f;
#X obj 418 572 t b l;
#X obj 378 204 until;
#X obj 378 225 f;
#X obj 405 268 + 1;
#X obj 519 323 + 1;
#X obj 519 344 mod 2;
#X obj 428 552 text get \$0-prob;
#X obj 378 331 list store;
#X msg 479 401 set;
#X msg 395 422 \$7;
#X msg 395 401 adddollar \$1;
#X msg 422 211 0;
#X msg 456 190 bang;
#X obj 395 445 t f f;
#X obj 378 180 t f b f;
#X msg 622 407 set;
#X msg 519 448 \$1;
#X msg 538 407 adddollar \$1;
#X obj 519 427 list store;
#X obj 519 387 t b f b;
#X obj 464 680 text set \$0-prob;
#X obj 378 158 list length;
#X obj 428 508 t f f;
#X obj 532 636 f;
#X obj 378 246 t f f;
#X obj 405 289 t f f;
#X msg 460 104 1 2 3 4 2 3 1;
#X obj 488 171 text delete \$0-prob;
#X msg 488 151 -1;
#X obj 378 137 t l l l b;
#X obj 519 365 + 1;
#X obj 395 381 + 1;
#X msg 548 104 11 20 3 4 2 3 11;
#X obj 395 529 t b f b;
#X obj 378 309 t b f b f;
#X obj 194 534 text size \$0-prob;
#X obj 194 555 - 1;
#X obj 194 576 max 1;
#X obj 149 620 + 1;
#X obj 149 598 random 1;
#X obj 118 682 text get \$0-prob;
#X msg 180 660 1;
#X obj 149 641 t f b;
#X obj 118 499 text search \$0-prob;
#X obj 118 520 t f b f;
#X obj 118 475 f;
#X obj 118 703 t f f;
#X msg 200 461 \$1;
#X obj 378 352 t l l;
#X obj 145 728 outlet;
#X obj 118 53 inlet;
#X obj 159 398 text get \$0-prob;
#X msg 159 419 \$1;
#X obj 378 93 inlet;
#X msg 323 107 2;
#X msg 227 354 read \$1;
#X obj 200 440 text get \$0-prob;
#X obj 200 324 t b a;
#X msg 200 419 0;
#X obj 147 112 bng 15 250 50 0 empty empty ld 17 7 0 10 -262144 -1
-1;
#X obj 104 112 bng 15 250 50 0 empty empty sv 17 7 0 10 -262144 -1
-1;
#X obj 232 281 openpanel;
#X obj 286 334 savepanel;
#X msg 286 355 write \$1;
#X text 297 72 right inlet takes lists and generates probability matrix
;
#X text 29 184 left inlet:;
#X text 29 198 bang - output next step;
#X text 28 212 float - outputs specific line;
#X obj 118 302 route bang float read;
#X text 28 226 read & path - load matrix;
#X msg 55 362 click;
#X text 35 346 view matrix;
#X text 192 110 save / load matrix;
#X connect 1 0 2 0;
#X connect 2 0 3 0;
#X connect 2 1 31 0;
#X connect 3 0 42 0;
#X connect 4 0 29 0;
#X connect 5 0 4 0;
#X connect 6 0 4 0;
#X connect 7 0 8 0;
#X connect 8 0 6 0;
#X connect 8 1 5 0;
#X connect 9 0 7 0;
#X connect 9 1 4 1;
#X connect 10 0 11 0;
#X connect 11 0 33 0;
#X connect 12 0 34 0;
#X connect 13 0 14 0;
#X connect 14 0 39 0;
#X connect 15 0 9 0;
#X connect 16 0 57 0;
#X connect 17 0 18 0;
#X connect 18 0 22 0;
#X connect 19 0 18 0;
#X connect 20 0 11 1;
#X connect 21 0 10 1;
#X connect 22 0 1 0;
#X connect 22 1 3 1;
#X connect 23 0 10 0;
#X connect 23 1 20 0;
#X connect 23 2 14 1;
#X connect 24 0 25 0;
#X connect 25 0 7 1;
#X connect 26 0 25 0;
#X connect 27 0 25 0;
#X connect 28 0 27 0;
#X connect 28 1 26 0;
#X connect 28 2 24 0;
#X connect 30 0 23 0;
#X connect 31 0 15 0;
#X connect 31 1 29 1;
#X connect 32 0 29 1;
#X connect 33 0 43 0;
#X connect 33 1 12 0;
#X connect 34 0 11 1;
#X connect 34 1 32 1;
#X connect 35 0 38 0;
#X connect 37 0 36 0;
#X connect 38 0 30 0;
#X connect 38 1 16 1;
#X connect 38 2 27 1;
#X connect 38 3 37 0;
#X connect 39 0 28 0;
#X connect 40 0 19 0;
#X connect 41 0 38 0;
#X connect 42 0 7 0;
#X connect 42 1 4 1;
#X connect 42 2 32 0;
#X connect 43 0 16 0;
#X connect 43 1 40 0;
#X connect 43 2 17 0;
#X connect 43 3 13 0;
#X connect 44 0 45 0;
#X connect 45 0 46 0;
#X connect 46 0 48 1;
#X connect 47 0 51 0;
#X connect 48 0 47 0;
#X connect 49 0 55 0;
#X connect 50 0 49 2;
#X connect 51 0 49 1;
#X connect 51 1 50 0;
#X connect 52 0 53 0;
#X connect 53 0 49 0;
#X connect 53 1 48 0;
#X connect 53 2 44 0;
#X connect 54 0 52 0;
#X connect 55 0 54 1;
#X connect 55 1 58 0;
#X connect 56 0 54 1;
#X connect 57 0 18 0;
#X connect 57 1 56 0;
#X connect 59 0 77 0;
#X connect 60 0 56 0;
#X connect 60 0 61 0;
#X connect 61 0 54 0;
#X connect 62 0 38 0;
#X connect 63 0 38 0;
#X connect 64 0 0 0;
#X connect 65 0 56 0;
#X connect 66 0 67 0;
#X connect 66 1 64 0;
#X connect 67 0 65 0;
#X connect 68 0 70 0;
#X connect 69 0 71 0;
#X connect 70 0 66 0;
#X connect 71 0 72 0;
#X connect 72 0 0 0;
#X connect 77 0 54 0;
#X connect 77 1 60 0;
#X connect 77 2 66 0;
#X connect 79 0 0 0;
#X coords 0 -1 1 1 85 30 1 100 100;
