#N canvas 495 232 600 389 10;
#X obj 323 190 spigot;
#X obj 456 144 >= 0;
#X obj 456 167 == 0;
#X obj 423 190 spigot;
#X obj 322 125 t f f;
#X obj 323 252 int;
#X obj 323 273 outlet;
#X obj 322 101 inlet;
#X floatatom 256 252 5 0 0 0 - - -;
#X floatatom 256 280 5 0 0 0 - - -;
#X obj 423 211 - 0.501;
#X obj 323 211 + 0.501;
#X connect 0 0 11 0;
#X connect 1 0 0 1;
#X connect 1 0 2 0;
#X connect 2 0 3 1;
#X connect 3 0 10 0;
#X connect 4 0 0 0;
#X connect 4 0 3 0;
#X connect 4 1 1 0;
#X connect 5 0 6 0;
#X connect 5 0 9 0;
#X connect 7 0 4 0;
#X connect 10 0 5 0;
#X connect 11 0 5 0;
#X connect 11 0 8 0;
