#N canvas 0 23 450 300 10;
#X floatatom 23 139 5 0 0 0 - - -;
#X obj 23 112 line \$1, f 9;
#X obj 23 59 t f b;
#X obj 48 95 f;
#X obj 23 159 outlet;
#X obj 24 36 inlet;
#X obj 62 72 r \$1_fadevalue;
#X connect 0 0 4 0;
#X connect 1 0 0 0;
#X connect 2 0 1 0;
#X connect 2 1 3 0;
#X connect 3 0 1 1;
#X connect 5 0 2 0;
#X connect 6 0 3 1;
