#N canvas 381 87 752 711 10;
#X msg -59 362 1 \$2 \, \$4 \$3 \$2;
#X obj 105 115 hsl 128 15 5 5000 0 0 empty empty Attack -2 -8 0 10
-204800 -1 -1 0 1;
#X obj 105 144 hsl 128 15 5 5000 0 0 empty empty Decay -2 -8 0 10 -204800
-1 -1 0 1;
#X obj 106 172 hsl 128 15 0 1 0 0 empty empty Sustain -2 -8 0 10 -204786
-1 -1 0 1;
#X obj 105 203 hsl 128 15 5 5000 0 0 empty empty Release -2 -8 0 10
-204800 -1 -1 0 1;
#X obj -59 329 pack f f f f, f 10;
#X obj 71 398 pack f f;
#X obj 70 376 sel 0;
#X msg 71 422 0 \$2;
#X obj -112 550 outlet~;
#X obj -59 122 inlet;
#X obj -59 142 unpack f f f, f 17;
#X obj -116 477 inlet~;
#X obj -114 528 *~, f 9;
#X obj -61 457 vline~;
#X obj 52 83 f \$1;
#X obj 52 108 f \$2;
#X obj 52 133 f \$3;
#X obj 52 158 f \$4;
#X obj 7 46 loadbang;
#X text 49 66 ADSR positions initialised as creation arguments.;
#X text -53 529 Aduio input is multiplied by ADSR output.;
#X text -158 140 ADSR triggered by MIDI velocity, f 14;
#X text -169 476 Audio in;
#X text -19 458 ADSR created from messages.;
#X text 136 398 Release triggered by note-off;
#X text 10 334 Parameters packed;
#X text 35 359 Parameters sent as listed message;
#X text 241 113 5ms-5sec;
#X text 239 144 5ms-5sec;
#X text 241 204 5ms-5sec;
#X text 243 171 0-1 (0%-100%);
#X obj -109 275 stripnote;
#X text -265 269 Removes note off to stop triggering when velocity
=0, f 24;
#X connect 0 0 14 0;
#X connect 1 0 5 1;
#X connect 2 0 5 2;
#X connect 3 0 5 3;
#X connect 4 0 6 1;
#X connect 5 0 0 0;
#X connect 6 0 8 0;
#X connect 7 0 6 0;
#X connect 8 0 14 0;
#X connect 10 0 11 0;
#X connect 11 0 32 0;
#X connect 11 1 7 0;
#X connect 11 1 32 1;
#X connect 12 0 13 0;
#X connect 13 0 9 0;
#X connect 14 0 13 1;
#X connect 15 0 1 0;
#X connect 16 0 2 0;
#X connect 17 0 3 0;
#X connect 18 0 4 0;
#X connect 19 0 15 0;
#X connect 19 0 18 0;
#X connect 19 0 17 0;
#X connect 19 0 16 0;
#X connect 32 1 5 0;
#X coords 0 -1 1 1 137 125 2 100 100;
