#N canvas 822 36 1057 656 10;
#X declare -lib zexy;
#X declare -lib zexy;
#X obj 118 112 hsl 128 15 5 5000 0 0 empty \$2_attack A -15 10 0 10
-204800 -1 -1 8000 1;
#X obj 118 129 hsl 128 15 5 5000 0 0 empty \$2_decay D -15 10 0 10
-204800 -1 -1 6100 1;
#X obj 118 146 hsl 128 15 0 1 0 0 empty \$2_sustain S -15 10 0 10 -204786
-1 -1 7700 1;
#X obj 118 163 hsl 128 15 5 5000 0 0 empty \$2_release R -15 10 0 10
-204800 -1 -1 0 1;
#X obj -161 386 pack f f f f, f 10;
#X obj -50 409 pack f f;
#X obj -51 387 sel 0;
#X msg -50 433 0 \$2;
#X obj -161 269 stripnote;
#X obj -159 134 inlet;
#X obj -159 154 unpack f f f, f 17;
#X obj -161 485 vline~;
#X obj -161 515 outlet~;
#X floatatom -193 293 5 0 0 0 - - -;
#X floatatom -110 288 5 0 0 0 - - -;
#X obj -110 308 / 127;
#X msg -161 433 \$1 \$2 \, \$4 \$3 \$2;
#X obj -34 323 r gen;
#X obj -34 344 sel 0;
#X msg -34 365 0;
#X floatatom -165 77 5 0 0 0 - - #2_attack;
#X floatatom -128 77 5 0 0 0 - - #2_decay;
#X floatatom -91 79 5 0 0 0 - - #2_sustain;
#X floatatom -48 80 5 0 0 0 - - #2_release;
#X obj -165 56 route attack decay sustain release;
#X text -35 9 ADSRt Messages are recieved from the master adsr's \,
and the ones with matching operator numbers are routed into another
route which filters the right parameter. The values are sent from the
number boxes into the ADSR faders.;
#X text -120 133 MIDI inlet;
#X text -70 288 Scales velocity between 0-1;
#X text -96 265 Removes note off;
#X text 9 327 When master toggle is turned off \, zero (note off) is
sent to all ADSR's.;
#X text -6 437 Release value.;
#X text -153 418 ADS messages;
#X text -115 485 ADSR messages sent into Vramp to change volume over
time \, according to note velocity \, and parameter settings.;
#X obj -167 -62 r \$1_opadsr;
#X obj -167 -42 route \$2;
#X obj 422 84 declare -lib zexy;
#X symbolatom -166 -2 20 0 0 0 - - -;
#X obj -166 -23 a2l;
#X obj -166 17 s2l _;
#X obj -166 35 route list;
#X obj -32 -24 declare -lib zexy;
#X connect 0 0 4 1;
#X connect 1 0 4 2;
#X connect 2 0 4 3;
#X connect 3 0 5 1;
#X connect 4 0 16 0;
#X connect 5 0 7 0;
#X connect 6 0 5 0;
#X connect 7 0 11 0;
#X connect 8 0 13 0;
#X connect 8 1 14 0;
#X connect 9 0 10 0;
#X connect 10 0 8 0;
#X connect 10 1 8 1;
#X connect 10 1 6 0;
#X connect 11 0 12 0;
#X connect 14 0 15 0;
#X connect 15 0 4 0;
#X connect 16 0 11 0;
#X connect 17 0 18 0;
#X connect 18 0 19 0;
#X connect 19 0 6 0;
#X connect 24 0 20 0;
#X connect 24 1 21 0;
#X connect 24 2 22 0;
#X connect 24 3 23 0;
#X connect 33 0 34 0;
#X connect 34 0 37 0;
#X connect 36 0 38 0;
#X connect 37 0 36 0;
#X connect 38 0 39 0;
#X connect 39 0 24 0;
#X coords 0 -1 1 1 150 80 1 100 100;
