#N canvas 653 85 758 642 10;
#X obj 82 23 inlet;
#X obj 101 308 unpack;
#X obj 87 436 f;
#X msg 126 434 0;
#X obj 171 292 *, f 19;
#X obj 105 470 pack;
#X obj 142 405 t b b;
#X obj 76 565 outlet;
#X obj 81 128 t l l b;
#X obj 172 260 + 1;
#X obj 153 161 bng 15 250 50 0 empty empty empty 17 7 0 10 -262144
-1 -1;
#X obj 171 215 t b b, f 13;
#X obj 270 272 f;
#X obj 172 236 random 7;
#X obj 82 44 stripnote;
#X obj 82 107 pack;
#X floatatom 307 275 5 0 0 0 - - -;
#X floatatom 291 325 5 0 0 0 - - -;
#X obj 141 362 del;
#X obj 141 341 bng 15 250 50 0 empty empty empty 17 7 0 10 -262144
-1 -1;
#X obj 142 384 bng 15 250 50 0 empty empty empty 17 7 0 10 -262144
-1 -1;
#X obj 82 65 change;
#X obj 133 65 change;
#X floatatom 82 86 5 0 0 0 - - -;
#X floatatom 133 86 5 0 0 0 - - -;
#X text 144 21 MIDI inlet. Strip note removes note-off messages as
this patch will be deciding when to send the note off message randomly.
;
#X text 180 63 Change only outputs values when the input values change.
;
#X text 431 197 Master bpm reciever;
#X text 344 272 Stores time period of 1 beat;
#X text 296 291 Random chooses a value to multiply the 1 beat time
period by (between 1-8) when a midi message is inputted.;
#X text 139 115 Note on is sent straight to outlet \, however the values
are also send to the random section which will decide when to turn
the note off.;
#X text 173 360 the time period is the val \; ue of the delayed bang.
;
#X text 184 385 When the bang is finally sent the note is turned off
\, repacked and outputted;
#X obj 285 166 t b b;
#X obj 285 186 timer;
#X floatatom 309 224 5 0 0 0 - - -;
#X obj 309 204 <= 1800;
#X obj 285 247 spigot;
#X obj 285 147 r masterclock_bangs;
#X connect 0 0 14 0;
#X connect 1 0 2 1;
#X connect 1 1 19 0;
#X connect 2 0 5 0;
#X connect 3 0 5 1;
#X connect 4 0 17 0;
#X connect 4 0 18 1;
#X connect 5 0 7 0;
#X connect 6 0 2 0;
#X connect 6 1 3 0;
#X connect 8 0 7 0;
#X connect 8 1 1 0;
#X connect 8 2 10 0;
#X connect 8 2 11 0;
#X connect 9 0 4 0;
#X connect 11 0 13 0;
#X connect 11 1 12 0;
#X connect 12 0 4 1;
#X connect 12 0 16 0;
#X connect 13 0 9 0;
#X connect 14 0 21 0;
#X connect 14 1 22 0;
#X connect 15 0 8 0;
#X connect 18 0 20 0;
#X connect 19 0 18 0;
#X connect 20 0 6 0;
#X connect 21 0 23 0;
#X connect 22 0 24 0;
#X connect 23 0 15 0;
#X connect 24 0 15 1;
#X connect 33 0 34 0;
#X connect 33 1 34 1;
#X connect 34 0 36 0;
#X connect 34 0 37 0;
#X connect 35 0 37 1;
#X connect 36 0 35 0;
#X connect 37 0 12 1;
#X connect 38 0 33 0;
