#N canvas 10 23 883 796 10;
#X declare -lib zexy;
#X obj 72 705 outlet~;
#X obj 60 6 declare -lib zexy;
#X obj 72 683 *~;
#X obj 105 349 list append 5;
#X obj 106 368 line~;
#X obj 71 540 pack 0 0 0;
#X obj 69 494 inlet, f 9;
#X text 762 167 This window (graph on parent) is for master control
of the synth. It shows the Phase Modulation patch on the parent window
\, but is only being used to send parameter changes to the actual synth
patch in the clone object below. Although they look almost identical
\, the master operators contain send object rather than produce sound.
A creation argument states which master operator it is \, which is
vital for the recieve objects in actual phase mod patches.;
#X text 759 114 Master fader of Phase Mod synth.;
#X text 174 366 Volume changes are ramped as signals \, and send to
the *~ objwct before the outlet~;
#X text 224 662 Master volume;
#X text 228 600 Cloning the phase modulation patch to enable polyphony
(open to see synth engine), f 21;
#X text 142 79 Initialises Ratio Values;
#X obj 73 516 poly 5 1;
#X text 140 515 Midi messages are made into 5 note polyphony with voice
stealing \, and are packed before entering the clone object \, containing
the synth engine.;
#X obj 103 116 master_operator \$1 1;
#X obj 103 223 master_operator \$1 4;
#X obj 286 223 master_operator \$1 5;
#X obj 286 116 master_operator \$1 2;
#X obj 468 116 master_operator \$1 3;
#X obj 468 223 master_operator \$1 6;
#X obj 109 331 hsl 140 15 0 1 0 0 \$1_pm_master_slider_s \$1_pm_master_slider_r
Master_Volume 150 10 0 10 -128992 -1 -1 7100 1;
#X text 103 99 MIDI IN;
#X text 314 101 PHASE MODULATION SYNTH;
#X text 154 116 1;
#X text 337 116 2;
#X text 519 115 3;
#X text 153 223 4;
#X text 336 222 5;
#X text 517 222 6;
#N canvas 644 177 787 643 save 0;
#X obj 202 250 textfile;
#X msg 470 188 clear;
#X obj 205 -33 bng 15 250 50 0 empty empty empty 17 7 0 10 -262144
-1 -1;
#X obj -12 177 t b b b;
#X msg 118 208 bang;
#X msg 155 208 rewind;
#X obj 205 -54 r save_parameters;
#X obj -11 103 r recall_parameters;
#X obj 117 -29 loadbang;
#X obj 117 -6 f \$1;
#X obj -12 203 f;
#X obj 204 20 f;
#X obj 4 141 t b f;
#X obj 204 0 t b b b, f 63;
#X obj -11 123 bng 15 250 50 0 empty empty empty 17 7 0 10 -262144
-1 -1;
#N canvas 331 23 1109 667 save 0;
#X obj 15 412 outlet;
#X obj 8 204 inlet;
#X obj 62 262 f;
#X obj 526 168 r \$1_ratio;
#X obj 617 226 r \$1_opvolume;
#X obj 617 246 route 1 2 3 4 5 6;
#X msg 77 345 set \$1 \$2 \$3 \$4 \$5 \$6 \$7 \$8 \$9 \$10 \$11 \$12
\$13 \$14 \$15 \$16 \$17 \$18 \$19 \$20 \$21 \$22 \$23 \$24 \$25 \$26
\$27 \$28 \$29 \$30 \$31 \$32 \$33 \$34 \$35 \$36 \$37 \$38 \$39 \$40
\$41 \$42;
#N canvas 328 54 1112 446 ADSR 0;
#X obj 26 178 route attack decay sustain release;
#X obj 24 6 r \$1_opadsr;
#X symbolatom 25 120 20 0 0 0 - - -;
#X obj 25 99 a2l;
#X obj 25 139 s2l _;
#X obj 25 157 route list;
#X obj 26 198 outlet;
#X obj 76 198 outlet;
#X obj 126 197 outlet;
#X obj 176 197 outlet;
#X obj 24 26 route 1 2 3 4 5 6, f 176;
#X obj 246 180 route attack decay sustain release;
#X symbolatom 245 122 20 0 0 0 - - -;
#X obj 245 101 a2l;
#X obj 245 141 s2l _;
#X obj 245 159 route list;
#X obj 246 200 outlet;
#X obj 296 200 outlet;
#X obj 346 199 outlet;
#X obj 396 199 outlet;
#X obj 469 181 route attack decay sustain release;
#X symbolatom 468 123 20 0 0 0 - - -;
#X obj 468 102 a2l;
#X obj 468 142 s2l _;
#X obj 468 160 route list;
#X obj 469 201 outlet;
#X obj 519 201 outlet;
#X obj 569 200 outlet;
#X obj 619 200 outlet;
#X obj 680 185 route attack decay sustain release;
#X symbolatom 679 127 20 0 0 0 - - -;
#X obj 679 106 a2l;
#X obj 679 146 s2l _;
#X obj 679 164 route list;
#X obj 680 205 outlet;
#X obj 730 205 outlet;
#X obj 780 204 outlet;
#X obj 830 204 outlet;
#X obj 904 188 route attack decay sustain release;
#X symbolatom 903 130 20 0 0 0 - - -;
#X obj 903 109 a2l;
#X obj 903 149 s2l _;
#X obj 903 167 route list;
#X obj 904 208 outlet;
#X obj 954 208 outlet;
#X obj 1004 207 outlet;
#X obj 1054 207 outlet;
#X obj 1115 192 route attack decay sustain release;
#X symbolatom 1114 134 20 0 0 0 - - -;
#X obj 1114 113 a2l;
#X obj 1114 153 s2l _;
#X obj 1114 171 route list;
#X obj 1115 212 outlet;
#X obj 1165 212 outlet;
#X obj 1215 211 outlet;
#X obj 1265 211 outlet;
#X connect 0 0 6 0;
#X connect 0 1 7 0;
#X connect 0 2 8 0;
#X connect 0 3 9 0;
#X connect 1 0 10 0;
#X connect 2 0 4 0;
#X connect 3 0 2 0;
#X connect 4 0 5 0;
#X connect 5 0 0 0;
#X connect 10 0 3 0;
#X connect 10 1 13 0;
#X connect 10 2 22 0;
#X connect 10 3 31 0;
#X connect 10 4 40 0;
#X connect 10 5 49 0;
#X connect 11 0 16 0;
#X connect 11 1 17 0;
#X connect 11 2 18 0;
#X connect 11 3 19 0;
#X connect 12 0 14 0;
#X connect 13 0 12 0;
#X connect 14 0 15 0;
#X connect 15 0 11 0;
#X connect 20 0 25 0;
#X connect 20 1 26 0;
#X connect 20 2 27 0;
#X connect 20 3 28 0;
#X connect 21 0 23 0;
#X connect 22 0 21 0;
#X connect 23 0 24 0;
#X connect 24 0 20 0;
#X connect 29 0 34 0;
#X connect 29 1 35 0;
#X connect 29 2 36 0;
#X connect 29 3 37 0;
#X connect 30 0 32 0;
#X connect 31 0 30 0;
#X connect 32 0 33 0;
#X connect 33 0 29 0;
#X connect 38 0 43 0;
#X connect 38 1 44 0;
#X connect 38 2 45 0;
#X connect 38 3 46 0;
#X connect 39 0 41 0;
#X connect 40 0 39 0;
#X connect 41 0 42 0;
#X connect 42 0 38 0;
#X connect 47 0 52 0;
#X connect 47 1 53 0;
#X connect 47 2 54 0;
#X connect 47 3 55 0;
#X connect 48 0 50 0;
#X connect 49 0 48 0;
#X connect 50 0 51 0;
#X connect 51 0 47 0;
#X restore 168 120 pd ADSR returns;
#X f 50;
#X obj 526 188 route 1 2 3 4 5 6;
#X obj 77 309 pack f f f f f f f f f f f f f f f f f f f f f f f f
f f f f f f f f f f f f f f f f f f, f 103;
#X obj 79 88 r \$1_pm_master_slider_s;
#X connect 1 0 2 0;
#X connect 2 0 9 0;
#X connect 3 0 8 0;
#X connect 4 0 5 0;
#X connect 5 0 9 36;
#X connect 5 1 9 37;
#X connect 5 2 9 38;
#X connect 5 3 9 39;
#X connect 5 4 9 40;
#X connect 5 5 9 41;
#X connect 6 0 0 0;
#X connect 7 0 9 6;
#X connect 7 1 9 7;
#X connect 7 2 9 8;
#X connect 7 3 9 9;
#X connect 7 4 9 10;
#X connect 7 5 9 11;
#X connect 7 6 9 12;
#X connect 7 7 9 13;
#X connect 7 8 9 14;
#X connect 7 9 9 15;
#X connect 7 10 9 16;
#X connect 7 11 9 17;
#X connect 7 12 9 18;
#X connect 7 13 9 19;
#X connect 7 14 9 20;
#X connect 7 15 9 21;
#X connect 7 16 9 22;
#X connect 7 17 9 23;
#X connect 7 18 9 24;
#X connect 7 19 9 25;
#X connect 7 20 9 26;
#X connect 7 21 9 27;
#X connect 7 22 9 28;
#X connect 7 23 9 29;
#X connect 8 0 9 30;
#X connect 8 1 9 31;
#X connect 8 2 9 32;
#X connect 8 3 9 33;
#X connect 8 4 9 34;
#X connect 8 5 9 35;
#X connect 9 0 6 0;
#X connect 10 0 2 1;
#X restore 390 129 pd save receives;
#N canvas 619 126 821 694 save 0;
#X obj 37 37 inlet;
#X obj 37 67 unpack f f f f f f f f f f f f f f f f f f f f f f f f
f f f f f f f f f f f f f f f f f f, f 103;
#X obj 573 280 s \$1_pm_volume_slider;
#X obj 480 405 s \$1_pm_ratio_nbx;
#X msg 482 345 1 \$1;
#X msg 497 324 2 \$1;
#X msg 513 303 3 \$1;
#X msg 528 283 4 \$1;
#X msg 544 262 5 \$1;
#X msg 559 241 6 \$1;
#X msg 575 221 1 \$1;
#X msg 590 199 2 \$1;
#X msg 606 178 3 \$1;
#X msg 621 158 4 \$1;
#X msg 637 137 5 \$1;
#X msg 652 116 6 \$1;
#N canvas 177 333 1291 446 ADSR 0;
#X obj 21 51 inlet;
#X obj 57 50 inlet;
#X obj 93 50 inlet;
#X obj 129 50 inlet;
#X msg 21 214 1 attack \$1;
#X msg 57 194 1 decay \$1;
#X msg 93 167 1 sustain \$1;
#X msg 129 143 1 release \$1;
#X obj 21 243 s \$1_pm_adsr_sliders;
#X obj 210 52 inlet;
#X obj 246 52 inlet;
#X obj 282 52 inlet;
#X obj 318 51 inlet;
#X obj 210 242 s \$1_pm_adsr_sliders;
#X msg 210 208 2 attack \$1;
#X msg 246 188 2 decay \$1;
#X msg 282 161 2 sustain \$1;
#X msg 318 137 2 release \$1;
#X obj 398 48 inlet;
#X obj 434 48 inlet;
#X obj 470 48 inlet;
#X obj 506 48 inlet;
#X obj 398 238 s \$1_pm_adsr_sliders;
#X obj 586 48 inlet;
#X obj 622 48 inlet;
#X obj 658 48 inlet;
#X obj 694 48 inlet;
#X obj 586 238 s \$1_pm_adsr_sliders;
#X obj 775 47 inlet;
#X obj 811 47 inlet;
#X obj 847 47 inlet;
#X obj 883 47 inlet;
#X obj 775 237 s \$1_pm_adsr_sliders;
#X obj 963 43 inlet;
#X obj 999 43 inlet;
#X obj 1035 43 inlet;
#X obj 1071 43 inlet;
#X obj 963 233 s \$1_pm_adsr_sliders;
#X msg 398 198 3 attack \$1;
#X msg 434 178 3 decay \$1;
#X msg 470 151 3 sustain \$1;
#X msg 506 127 3 release \$1;
#X msg 587 201 4 attack \$1;
#X msg 623 181 4 decay \$1;
#X msg 659 154 4 sustain \$1;
#X msg 695 130 4 release \$1;
#X msg 775 174 5 attack \$1;
#X msg 811 154 5 decay \$1;
#X msg 847 127 5 sustain \$1;
#X msg 883 103 5 release \$1;
#X msg 963 137 6 attack \$1;
#X msg 999 117 6 decay \$1;
#X msg 1035 90 6 sustain \$1;
#X msg 1071 66 6 release \$1;
#X connect 0 0 4 0;
#X connect 1 0 5 0;
#X connect 2 0 6 0;
#X connect 3 0 7 0;
#X connect 4 0 8 0;
#X connect 5 0 8 0;
#X connect 6 0 8 0;
#X connect 7 0 8 0;
#X connect 9 0 14 0;
#X connect 10 0 15 0;
#X connect 11 0 16 0;
#X connect 12 0 17 0;
#X connect 14 0 13 0;
#X connect 15 0 13 0;
#X connect 16 0 13 0;
#X connect 17 0 13 0;
#X connect 18 0 38 0;
#X connect 19 0 39 0;
#X connect 20 0 40 0;
#X connect 21 0 41 0;
#X connect 23 0 42 0;
#X connect 24 0 43 0;
#X connect 25 0 44 0;
#X connect 26 0 45 0;
#X connect 28 0 46 0;
#X connect 29 0 47 0;
#X connect 30 0 48 0;
#X connect 31 0 49 0;
#X connect 33 0 50 0;
#X connect 34 0 51 0;
#X connect 35 0 52 0;
#X connect 36 0 53 0;
#X connect 38 0 22 0;
#X connect 39 0 22 0;
#X connect 40 0 22 0;
#X connect 41 0 22 0;
#X connect 42 0 27 0;
#X connect 43 0 27 0;
#X connect 44 0 27 0;
#X connect 45 0 27 0;
#X connect 46 0 32 0;
#X connect 47 0 32 0;
#X connect 48 0 32 0;
#X connect 49 0 32 0;
#X connect 50 0 37 0;
#X connect 51 0 37 0;
#X connect 52 0 37 0;
#X connect 53 0 37 0;
#X restore 135 438 pd ADSR sends;
#X f 56;
#X obj 39 470 s \$1_pm_master_slider_r;
#X connect 0 0 1 0;
#X connect 1 0 17 0;
#X connect 1 6 16 0;
#X connect 1 7 16 1;
#X connect 1 8 16 2;
#X connect 1 9 16 3;
#X connect 1 10 16 4;
#X connect 1 11 16 5;
#X connect 1 12 16 6;
#X connect 1 13 16 7;
#X connect 1 14 16 8;
#X connect 1 15 16 9;
#X connect 1 16 16 10;
#X connect 1 17 16 11;
#X connect 1 18 16 12;
#X connect 1 19 16 13;
#X connect 1 20 16 14;
#X connect 1 21 16 15;
#X connect 1 22 16 16;
#X connect 1 23 16 17;
#X connect 1 24 16 18;
#X connect 1 25 16 19;
#X connect 1 26 16 20;
#X connect 1 27 16 21;
#X connect 1 28 16 22;
#X connect 1 29 16 23;
#X connect 1 30 4 0;
#X connect 1 31 5 0;
#X connect 1 32 6 0;
#X connect 1 33 7 0;
#X connect 1 34 8 0;
#X connect 1 35 9 0;
#X connect 1 36 10 0;
#X connect 1 37 11 0;
#X connect 1 38 12 0;
#X connect 1 39 13 0;
#X connect 1 40 14 0;
#X connect 1 41 15 0;
#X connect 4 0 3 0;
#X connect 5 0 3 0;
#X connect 6 0 3 0;
#X connect 7 0 3 0;
#X connect 8 0 3 0;
#X connect 9 0 3 0;
#X connect 10 0 2 0;
#X connect 11 0 2 0;
#X connect 12 0 2 0;
#X connect 13 0 2 0;
#X connect 14 0 2 0;
#X connect 15 0 2 0;
#X restore 202 270 pd save sends;
#X msg 204 55 write Phase_modulation_\$1.txt;
#X msg -12 228 read Phase_modulation_\$1.txt;
#X obj -36 85 r \$1_pm_recallbutton;
#X obj 179 -71 r \$1_pm_savebutton;
#X connect 0 0 16 0;
#X connect 1 0 0 0;
#X connect 2 0 13 0;
#X connect 3 0 10 0;
#X connect 3 1 4 0;
#X connect 3 2 5 0;
#X connect 4 0 0 0;
#X connect 5 0 0 0;
#X connect 6 0 2 0;
#X connect 7 0 14 0;
#X connect 8 0 9 0;
#X connect 9 0 11 1;
#X connect 9 0 12 0;
#X connect 10 0 18 0;
#X connect 11 0 17 0;
#X connect 12 0 3 0;
#X connect 12 1 10 1;
#X connect 13 0 11 0;
#X connect 13 1 15 0;
#X connect 13 2 1 0;
#X connect 14 0 3 0;
#X connect 15 0 0 0;
#X connect 17 0 0 0;
#X connect 18 0 0 0;
#X connect 19 0 3 0;
#X connect 20 0 2 0;
#X restore 911 78 pd save mechanism;
#X obj 72 620 clone phasemod 6 \$1 \$2;
#X obj 71 560 unpack f f f;
#X floatatom 71 580 5 0 0 0 - - -;
#X floatatom 111 585 5 0 0 0 - - -;
#X floatatom 149 580 5 0 0 0 - - -;
#X msg 17 598 vis 5 1;
#X obj 105 391 s~ \$1_pm_master_slider;
#X obj 86 663 r~ \$1_pm_master_slider;
#X obj 575 332 bng 15 250 50 0 \$1_pm_savebutton empty Save 17 7 0
5 -262130 -1 -258113;
#X obj 612 332 bng 15 250 50 0 \$1_pm_recallbutton empty Recall 17
7 0 5 -262130 -1 -258113;
#X connect 2 0 0 0;
#X connect 3 0 4 0;
#X connect 4 0 37 0;
#X connect 5 0 32 0;
#X connect 5 0 31 0;
#X connect 6 0 13 0;
#X connect 13 0 5 0;
#X connect 13 1 5 1;
#X connect 13 2 5 2;
#X connect 21 0 3 0;
#X connect 31 0 2 0;
#X connect 32 0 33 0;
#X connect 32 1 34 0;
#X connect 32 2 35 0;
#X connect 36 0 31 0;
#X connect 38 0 2 1;
#X coords 0 -1 1 1 550 250 2 100 100;
