#N canvas 376 144 1064 676 10;
#X obj 22 550 outlet~;
#X text 672 19 Midi Inlet;
#X obj 22 499 +~;
#X obj 22 519 *~ 0.5;
#X text 747 39 Note length randomly decides how long a note plays for.
Please Open;
#X text 72 497 The two outpouts are summed together and then multiplied
by 0.5 to avoid distortion.;
#X text 99 32 Phase Modulation Synth Engine Voice;
#X obj 102 102 operator \$2 1;
#X obj 279 102 operator \$2 2;
#X obj 457 101 operator \$2 3;
#X obj 100 284 operator \$2 4;
#X obj 278 284 operator \$2 5;
#X obj 455 283 operator \$2 6;
#X obj 635 44 note_length \$3;
#X obj 635 20 inlet;
#X connect 2 0 3 0;
#X connect 3 0 0 0;
#X connect 7 0 2 0;
#X connect 8 0 7 0;
#X connect 9 0 8 0;
#X connect 10 0 2 1;
#X connect 11 0 10 0;
#X connect 12 0 11 0;
#X connect 13 0 9 1;
#X connect 13 0 12 1;
#X connect 13 0 11 1;
#X connect 13 0 10 1;
#X connect 13 0 8 1;
#X connect 13 0 7 1;
#X connect 14 0 13 0;
#X coords 0 676 1 675 535 225 0;
