#N canvas 364 149 1076 671 10;
#X obj 18 536 *~;
#X obj 18 459 dbtorms;
#X obj 18 437 env~ 1024 64;
#X obj 59 216 inlet;
#X floatatom 60 311 5 0 0 0 - - -;
#X obj 1 216 loadbang;
#X obj 18 481 line~ \$1 1;
#X obj 18 381 bp~ 1 10, f 37;
#X obj 18 407 bp~ 1 10, f 37;
#X obj 308 376 bp~ 1 10, f 37;
#X obj 308 406 bp~ 1 10, f 37;
#X text 100 216 1;
#X text 420 534 2;
#X obj 701 225 zerox~;
#X floatatom 701 267 5 0 0 0 - - -;
#X obj 701 246 snapshot~;
#X obj 635 205 tgl 15 0 empty empty empty 17 7 0 10 -262144 -1 -1 0
1;
#X obj 634 184 loadbang;
#X obj 702 290 > 8;
#X obj 703 314 tgl 15 0 empty empty empty 17 7 0 10 -262144 -1 -1 0
1;
#X obj 608 340 *~;
#X obj 608 375 bp~ 1 10, f 37;
#X obj 608 405 bp~ 1 10, f 37;
#X obj 308 458 +~;
#X obj 703 336 line~ \$1 2 0 10;
#X obj 18 557 *~, f 47;
#X obj 381 534 inlet;
#X text 89 245 the centre frequency argument;
#X text 435 532 resolution switch;
#X text 849 402 Q value recieved and applied to each bandpass filter.
, f 18;
#X text 101 433 envelop follower is converted into rms. The line~ interpolates
values to avoid DC offset between values., f 27;
#X text 190 603 Main mix bus, f 9;
#X obj 637 225 metro 1;
#X obj 18 578 *~, f 96;
#X obj 362 58 random 100;
#X obj 362 79 / 100;
#X obj 362 34 metro 100;
#X msg 167 27 1;
#X obj 362 134 line \$1;
#X obj 413 111 f;
#X obj 362 100 t f b;
#X floatatom 362 155 5 0 0 0 - - -;
#X obj 4 13 hsl 90 15 0.01 1 0 0 empty empty Volume 0 -5 0 10 -228856
-1 -1 8900 1;
#X obj 98 13 tgl 15 0 empty empty empty -7 -5 0 10 -262144 -1 -1 1
1;
#X text 866 181 Unvoiced section. The pink noise is sent into each
filter. The zerox object calculates the number of zero crossings per
5ms. As constonant sounds tend to have more zero crossings per time
frame \, then a threshold is in place so that when the number of zero
crossings exceeds the threshold the noise section is opened.;
#X text 1043 258 this is the Unvoiced sensitivity value sent from the
carrier section;
#X text 586 25 This section controlles the output level of each filterbank
generativley when the generative toggle is turned on. A metronome object
sends a bang to the random object at intervals set by the rate of change
number box. A float number between 0 and 1 is sent to the line object
which interpolates the the change in values over a time period stated
by the fade time number box. Reset turns the fader back to the defult
of 1;
#X text 308 334 Recieved from the selected carrier signal;
#X text 14 341 Recieved from the selected modulator signal;
#X obj 787 263 r \$1_vocoder_unvoicedsensitivity_slider_s;
#X obj 59 246 f \$2;
#X obj 486 2 r \$1_vocoder_rateofchange_s;
#X obj 433 63 r \$1_vocoder_fadetime_s;
#X obj 18 359 r~ \$1_vocoder_modulator_inlet;
#X obj 308 355 r~ \$1_vocoder_carrier_signal;
#X obj 531 292 r~ \$1_vocoder_noise_signal;
#X obj 260 389 r \$1_vocoder_q_nbx_s;
#X obj 546 387 r \$1_vocoder_q_nbx_s;
#X obj 846 386 r \$1_vocoder_q_nbx_s;
#X obj 701 202 r~ \$1_vocoder_modulator_inlet;
#X obj 18 604 throw~ \$1_vocoder_masterout;
#X obj 341 1 r \$1_vocoder_gfv_tog_s;
#X obj 43 8 cnv 1 1 1 empty empty \$2_Frequency 0 0 0 8 -262144 -1
0;
#X obj 167 9 loadbang;
#X connect 0 0 25 0;
#X connect 1 0 6 0;
#X connect 2 0 1 0;
#X connect 3 0 50 0;
#X connect 5 0 50 0;
#X connect 6 0 0 0;
#X connect 7 0 8 0;
#X connect 8 0 2 0;
#X connect 9 0 10 0;
#X connect 10 0 23 0;
#X connect 13 0 15 0;
#X connect 14 0 18 0;
#X connect 15 0 14 0;
#X connect 16 0 32 0;
#X connect 17 0 16 0;
#X connect 18 0 19 0;
#X connect 19 0 24 0;
#X connect 20 0 21 0;
#X connect 21 0 22 0;
#X connect 22 0 23 1;
#X connect 23 0 0 1;
#X connect 24 0 20 1;
#X connect 25 0 33 0;
#X connect 26 0 43 0;
#X connect 32 0 15 0;
#X connect 33 0 60 0;
#X connect 34 0 35 0;
#X connect 35 0 40 0;
#X connect 36 0 34 0;
#X connect 37 0 42 0;
#X connect 38 0 41 0;
#X connect 38 0 42 0;
#X connect 39 0 38 1;
#X connect 40 0 38 0;
#X connect 40 1 39 0;
#X connect 42 0 33 1;
#X connect 43 0 25 1;
#X connect 49 0 18 1;
#X connect 50 0 4 0;
#X connect 50 0 7 1;
#X connect 50 0 8 1;
#X connect 50 0 9 1;
#X connect 50 0 10 1;
#X connect 50 0 21 1;
#X connect 50 0 22 1;
#X connect 51 0 36 1;
#X connect 52 0 39 1;
#X connect 53 0 7 0;
#X connect 54 0 9 0;
#X connect 55 0 20 0;
#X connect 56 0 7 2;
#X connect 56 0 8 2;
#X connect 57 0 9 2;
#X connect 57 0 10 2;
#X connect 58 0 21 2;
#X connect 58 0 22 2;
#X connect 59 0 13 0;
#X connect 61 0 36 0;
#X connect 63 0 37 0;
#X coords 0 -1 1 1 115 30 2 0 0;
