#N canvas 0 23 1173 782 10;
#X declare -lib cyclone;
#X obj 251 27 inlet~;
#X obj 437 26 inlet~;
#X text 292 26 Mod In;
#X text 481 25 Carrier in;
#X obj 103 139 vradio 15 1 0 2 \$1_vocoder_source_radio_s \$1_vocoder_source_radio_r
Carrier_Source 0 -8 0 10 -191407 -1 -1 0;
#X obj 107 48 declare -lib cyclone;
#X obj 105 274 hsl 128 15 0 1 0 0 \$1_vocoder_unvoicedlevel_slider_s
\$1_vocoder_unvoicedlevel_slider_r Unvoiced_Level -2 -8 0 10 -204786
-1 -1 2300 1;
#X floatatom 103 198 10 15 20000 0 - - #1_vocoder_wavefrequency_slider_s
;
#X text 102 166 Wave Frequency;
#X obj 105 245 hsl 128 15 15 0 0 0 \$1_vocoder_unvoicedsensitivity_slider_s
\$1_vocoder_unvoicedsensitivity_slider_r Unvoiced_Sensitivity -2 -8
0 10 -204786 -1 -1 8800 1;
#X obj 106 180 hsl 128 15 15 20000 1 0 empty \$1_vocoder_wavefrequency_slider_r
empty -2 -8 0 10 -204800 -1 -1 4500 1;
#X obj 105 332 hsl 128 15 0 1 0 0 \$1_vocoder_drymodlevel_slider_s
\$1_vocoder_drymodlevel_slider_r Dry_Modulator_Level -2 -8 0 10 -203904
-1 -1 0 1;
#X obj 105 361 hsl 128 15 20 20000 0 0 \$1_vocoder_modhpf_slider_s
\$1_vocoder_modhpf_slider_r Modulator_High_Pass_Filter -2 -8 0 10 -203904
-1 -1 12700 1;
#X obj 103 216 tgl 15 0 \$1_vocoder_modpitchtracking_toggle_s \$1_vocoder_modpitchtracking_toggle_r
Pitch_Tracking 17 7 0 10 -262144 -1 -1 0 1;
#X obj 105 303 hsl 128 15 0 1 0 0 \$1_vocoder_carrierlevel_slider_s
\$1_vocoder_carrierlevel_slider_r Carrier_Level -2 -8 0 10 -261682
-1 -1 12700 1;
#X text 121 139 Saw Wave;
#X obj 251 47 s~ \$1_vocoder_modulator_inlet;
#X obj 437 46 s~ \$1_vocoder_carrier_inlet;
#X text -98 143 \$1_vocoder_source_radio_s/r;
#X text -123 181 \$1_vocoder_wavefrequency_slider_s/r;
#X text -137 220 \$1_vocoder_modpitchtracking_toggle_s/r;
#N canvas 0 23 450 300 Pitch_tracking 0;
#X obj 178 165 mtof;
#X obj 45 51 + 1;
#X obj 43 185 switch 2, f 23;
#X obj 178 145 sigmund~ pitch;
#X obj 178 126 r~ \$1_vocoder_modulator_inlet;
#X obj 43 205 s \$1_vocoder_wavefrequency_slider_r;
#X obj 45 34 r \$1_vocoder_modpitchtracking_toggle_s;
#X obj 45 70 t f b;
#X obj 109 157 f;
#X obj 124 107 r \$1_vocoder_wavefrequency_slider_s;
#X connect 0 0 2 2;
#X connect 1 0 7 0;
#X connect 2 0 5 0;
#X connect 3 0 0 0;
#X connect 4 0 3 0;
#X connect 6 0 1 0;
#X connect 7 0 2 0;
#X connect 7 1 8 0;
#X connect 8 0 2 1;
#X connect 9 0 8 1;
#X restore -68 461 pd Pitch_tracking \$1;
#X text -113 296 \$1_vocoder_carrierlevel_slider_s/r;
#N canvas 154 23 450 300 carrier_output 0;
#X obj 234 82 *~ 2;
#X obj 234 103 -~ 1;
#X obj 234 59 phasor~;
#X obj 234 39 sig~;
#X text 269 84 'Wave' oscillator section \, with pitch control, f
18;
#X text 444 138 carrier source selector to be sent to filterbank,
f 22;
#X obj 64 175 *~, f 90;
#X obj 63 155 selector~ 2, f 58;
#X obj 61 85 r \$1_vocoder_source_radio_s;
#X obj 61 105 + 1;
#X obj 234 20 r \$1_vocoder_wavefrequency_slider_s;
#X obj 408 109 r~ \$1_vocoder_carrier_inlet;
#X obj 63 194 s~ \$1_vocoder_carrier_signal;
#X obj 599 157 r \$1_vocoder_carrierlevel_slider_s;
#X connect 0 0 1 0;
#X connect 1 0 7 1;
#X connect 2 0 0 0;
#X connect 3 0 2 0;
#X connect 6 0 12 0;
#X connect 7 0 6 0;
#X connect 8 0 9 0;
#X connect 9 0 7 0;
#X connect 10 0 3 0;
#X connect 11 0 7 2;
#X connect 13 0 6 1;
#X restore 437 67 pd carrier_output \$1;
#X text -151 235 \$1_vocoder_unvoicedsensitivity_slider_s/r;
#X text -118 264 \$1_vocoder_unvoicedlevel_slider_s/r;
#X text -108 326 \$1_vocoder_drymodlevel_slider_s/r;
#X text -82 351 \$1_vocoder_modhpf_slider_s/r;
#N canvas 0 23 450 300 dry_signal_mix 0;
#X obj -101 -159 pink~;
#X obj -101 -137 *~;
#X obj 256 123 line \$1 20;
#X obj -101 -116 *~;
#X obj 255 104 *;
#X msg 199 -271 1;
#X text 315 -172 This section allows you to add dry modulator signal
into the main mix. A high pass filter section is in use as the filterbanks
do not exceed 1250Hz due to a loss in vocoder intelligability- thereofore
blending in the high frequencies of the modulator signal is a compromise
which could yeild more inteligable results., f 20;
#X obj -16 31 line \$1 20;
#X obj -62 -140 line \$1 20;
#X obj 127 71 hip~;
#X obj 127 92 hip~;
#X obj 127 147 *~, f 22;
#X obj 201 -309 r \$1_vocoder_source_radio_s;
#X obj -16 11 r \$1_vocoder_modhpf_slider_s;
#X obj 254 86 r \$1_vocoder_drymodlevel_slider_s;
#X obj -62 -158 r \$1_vocoder_unvoicedlevel_slider_s;
#X obj 127 46 r~ \$1_vocoder_modulator_inlet;
#X obj -101 -98 s~ \$1_vocoder_noise_signal;
#X obj 126 169 throw~ \$1_vocoder_masterout;
#X obj 34 167 env~;
#X floatatom 34 187 5 0 0 0 - - -;
#X obj 201 -289 t b;
#X connect 0 0 1 0;
#X connect 1 0 3 0;
#X connect 2 0 11 1;
#X connect 3 0 17 0;
#X connect 4 0 2 0;
#X connect 5 0 4 1;
#X connect 5 0 3 1;
#X connect 7 0 9 1;
#X connect 7 0 10 1;
#X connect 8 0 1 1;
#X connect 9 0 10 0;
#X connect 10 0 11 0;
#X connect 11 0 18 0;
#X connect 11 0 19 0;
#X connect 12 0 21 0;
#X connect 13 0 7 0;
#X connect 14 0 4 0;
#X connect 15 0 8 0;
#X connect 16 0 9 0;
#X connect 19 0 20 0;
#X connect 21 0 5 0;
#X restore -100 405 pd dry_signal_mix \$1;
#X obj 286 323 bng 25 250 50 0 \$1_vocoder_lowres_s \$1_vocoder_lowres_r
Low_Resolution 35 7 0 10 -204786 -1 -1;
#X obj 286 353 bng 25 250 50 0 \$1_vocoder_highres_s \$1_vocoder_highres_r
High_Resolution 35 7 0 10 -204786 -1 -1;
#X msg 255 485 20;
#X msg 140 481 15;
#X text 449 324 Filterbank Q Value;
#X msg 731 -61 1;
#X msg 916 -79 0;
#X msg 1061 -74 1;
#X text -140 698 The low resolution button will only turn on the left
hand set of filters \, whereas the high res button will turn on both
sets of filter \, meaning that the filterbank resolution is increased.
They will also send messages to the Q section for desirable defult
settings., f 23;
#X text 128 501 The Q value is sent to all bandpass filters. A higher
Q value will narrow and decrease overlap of each band. I have set an
appropriete value range., f 24;
#X text 11 660 The play button will start vocoding when a soundfile
is used as either the modulator or the carrier or both. The loop will
contiously play both soundfiles start to end.;
#X obj 475 306 tgl 15 0 \$1_vocoder_gfv_tog_s \$1_vocoder_gfv_tog_r
Generative_Filter_Volume 17 7 0 10 -257985 -1 -1 0 1;
#X obj 664 425 line \$1 5;
#X obj 832 429 line \$1 5;
#X text 564 1029 This is a generative section which controlls the level
of each filterbank randomly. Loadbang turns this section on and off
when the patch is open to avoid a poping that happens when this section
is turned on for the first time with audio loaded.;
#X obj 139 458 r \$1_vocoder_lowres_s;
#X obj 255 462 r \$1_vocoder_highres_s;
#X obj 420 324 nbx 2 14 10 50 0 1 \$1_vocoder_q_nbx_s empty empty 0
-8 0 10 -204800 -1 -1 20 256;
#X obj 734 -99 r \$1_vocoder_lowres_s;
#X obj 733 -80 r \$1_vocoder_highres_s;
#X obj 916 -98 r \$1_vocoder_lowres_s;
#X obj 1061 -95 r \$1_vocoder_highres_s;
#X obj 664 446 s \$1_vocoder_rateofchange_s;
#X obj 833 446 s \$1_vocoder_fadetime_s;
#X obj 639 306 nbx 4 14 0 1000 0 1 empty \$1_vocoder_rateofchange_r
Rate_Of_Change_(ms) 0 -8 0 10 -262144 -1 -1 1000 256;
#X obj 754 305 nbx 5 14 0 1000 0 1 empty \$1_vocoder_fadetime_r Fade_Time_(ms)
0 -8 0 10 -262144 -1 -1 1000 256;
#X text 478 383 \$1_vocoder_gfv_tog_s;
#X obj 240 121 filterbank \$1 25;
#X obj 239 155 filterbank \$1 80;
#X obj 239 189 filterbank \$1 250;
#X obj 239 223 filterbank \$1 800;
#X obj 239 257 filterbank \$1 3150;
#X obj 239 291 filterbank \$1 10000;
#X obj 356 121 filterbank \$1 31;
#X obj 356 155 filterbank \$1 100;
#X obj 356 189 filterbank \$1 315;
#X obj 356 223 filterbank \$1 1000;
#X obj 356 257 filterbank \$1 4000;
#X obj 356 291 filterbank \$1 12500;
#X obj 474 122 filterbank \$1 40;
#X obj 474 156 filterbank \$1 125;
#X obj 474 190 filterbank \$1 400;
#X obj 474 224 filterbank \$1 1250;
#X obj 474 258 filterbank \$1 5000;
#X obj 591 122 filterbank \$1 50;
#X obj 591 156 filterbank \$1 160;
#X obj 591 190 filterbank \$1 500;
#X obj 591 224 filterbank \$1 1600;
#X obj 591 258 filterbank \$1 6300;
#X obj 708 122 filterbank \$1 63;
#X obj 708 156 filterbank \$1 200;
#X obj 708 190 filterbank \$1 630;
#X obj 708 224 filterbank \$1 2500;
#X obj 708 258 filterbank \$1 8000;
#X obj 677 598 catch~ \$1_vocoder_masterout;
#X obj 677 696 *~;
#X obj 677 716 outlet~;
#X obj 695 652 r \$1_vocoder_mastervolume_slider_s;
#X obj 424 355 hsl 128 15 0 10 0 0 \$1_vocoder_mastervolume_slider_s
\$1_vocoder_mastervolume_slider_r Master_Volume -2 -8 0 10 -99865 -1
-1 12700 1;
#X text 101 111 FILTERBANK VOCODER;
#X obj 627 21 inlet;
#X text 102 100 Modulator in~;
#X text 437 101 Carrier in~;
#X text 122 152 Carrier in~;
#X text 802 100 NOTE in;
#X obj 627 41 s \$1_vocoder_wavefrequency_slider_r;
#N canvas 653 44 787 643 save 0;
#X obj 202 250 textfile;
#X msg 470 188 clear;
#X obj 205 -33 bng 15 250 50 0 empty empty empty 17 7 0 10 -262144
-1 -1;
#X obj -12 177 t b b b;
#X msg 118 208 bang;
#X msg 155 208 rewind;
#X obj 205 -54 r save_parameters;
#X obj -11 103 r recall_parameters;
#X obj 117 -29 loadbang;
#X obj 117 -6 f \$1;
#X obj -12 203 f;
#X obj 204 20 f;
#X obj 4 141 t b f;
#X obj 204 0 t b b b, f 63;
#X obj -11 123 bng 15 250 50 0 empty empty empty 17 7 0 10 -262144
-1 -1;
#N canvas 0 23 983 764 save 0;
#X obj 150 412 outlet;
#X obj 143 204 inlet;
#X obj 197 262 f;
#X obj 211 43 r \$1_vocoder_mastervolume_slider_s;
#X obj 227 64 r \$1_vocoder_source_radio_s;
#X obj 242 83 r \$1_vocoder_wavefrequency_slider_s;
#X obj 257 102 r \$1_vocoder_modpitchtracking_toggle_s;
#X obj 272 121 r \$1_vocoder_unvoicedsensitivity_slider_s;
#X obj 286 142 r \$1_vocoder_unvoicedlevel_slider_s;
#X obj 300 162 r \$1_vocoder_carrierlevel_slider_s;
#X obj 315 182 r \$1_vocoder_drymodlevel_slider_s;
#X obj 329 201 r \$1_vocoder_modhpf_slider_s;
#X obj 343 222 r \$1_vocoder_rateofchange_s;
#X obj 358 246 r \$1_vocoder_gfv_tog_s;
#X obj 371 269 r \$1_vocoder_fadetime_s;
#X obj 212 309 pack f f f f f f f f f f f f;
#X msg 213 328 set \$1 \$2 \$3 \$4 \$5 \$6 \$7 \$8 \$9 \$10 \$11 \$12
;
#X connect 1 0 2 0;
#X connect 2 0 15 0;
#X connect 3 0 2 1;
#X connect 4 0 15 1;
#X connect 5 0 15 2;
#X connect 6 0 15 3;
#X connect 7 0 15 4;
#X connect 8 0 15 5;
#X connect 9 0 15 6;
#X connect 10 0 15 7;
#X connect 11 0 15 8;
#X connect 12 0 15 9;
#X connect 13 0 15 10;
#X connect 14 0 15 11;
#X connect 15 0 16 0;
#X connect 16 0 0 0;
#X restore 390 129 pd save receives;
#N canvas 705 126 735 694 save 0;
#X obj 37 37 inlet;
#X obj 38 58 unpack f f f f f f f f f f f f;
#X obj 41 344 s \$1_vocoder_mastervolume_slider_r;
#X obj 58 326 s \$1_vocoder_source_radio_r;
#X obj 73 307 s \$1_vocoder_wavefrequency_slider_r;
#X obj 88 290 s \$1_vocoder_modpitchtracking_toggle_r;
#X obj 106 268 s \$1_vocoder_unvoicedsensitivity_slider_r;
#X obj 121 250 s \$1_vocoder_unvoicedlevel_slider_r;
#X obj 137 229 s \$1_vocoder_carrierlevel_slider_r;
#X obj 153 210 s \$1_vocoder_drymodlevel_slider_r;
#X obj 168 188 s \$1_vocoder_modhpf_slider_r;
#X obj 184 167 s \$1_vocoder_rateofchange_r;
#X obj 200 146 s \$1_vocoder_gfv_tog_r;
#X obj 216 121 s \$1_vocoder_fadetime_r;
#X connect 0 0 1 0;
#X connect 1 0 2 0;
#X connect 1 1 3 0;
#X connect 1 2 4 0;
#X connect 1 3 5 0;
#X connect 1 4 6 0;
#X connect 1 5 7 0;
#X connect 1 6 8 0;
#X connect 1 7 9 0;
#X connect 1 8 10 0;
#X connect 1 9 11 0;
#X connect 1 10 12 0;
#X connect 1 11 13 0;
#X restore 202 270 pd save sends;
#X obj 179 -71 r \$1_vocoder_savebutton;
#X obj -36 85 r \$1_vocoder_recallbutton;
#X msg -12 228 read Vocoder_\$1.txt;
#X msg 204 55 write Vocoder_\$1.txt;
#X connect 0 0 16 0;
#X connect 1 0 0 0;
#X connect 2 0 13 0;
#X connect 3 0 10 0;
#X connect 3 1 4 0;
#X connect 3 2 5 0;
#X connect 4 0 0 0;
#X connect 5 0 0 0;
#X connect 6 0 2 0;
#X connect 7 0 14 0;
#X connect 8 0 9 0;
#X connect 9 0 11 1;
#X connect 9 0 12 0;
#X connect 10 0 19 0;
#X connect 11 0 20 0;
#X connect 12 0 3 0;
#X connect 12 1 10 1;
#X connect 13 0 11 0;
#X connect 13 1 15 0;
#X connect 13 2 1 0;
#X connect 14 0 3 0;
#X connect 15 0 0 0;
#X connect 17 0 2 0;
#X connect 18 0 3 0;
#X connect 19 0 0 0;
#X connect 20 0 0 0;
#X restore 931 187 pd save mechanism;
#X obj 761 352 bng 15 250 50 0 \$1_vocoder_savebutton empty Save 17
7 0 5 -262130 -1 -258113;
#X obj 794 352 bng 15 250 50 0 \$1_vocoder_recallbutton empty Recall
17 7 0 5 -262130 -1 -258113;
#X text 285 381 \$1_vocoder_lowres_s/r;
#X text 285 398 \$1_vocoder_highres_s/r;
#X text 661 470 \$1_vocoder_rateofchange_s/r;
#X text 848 470 \$1_vocoder_fadetime_s/r;
#X text 480 394 \$1_vocoder_mastervolume_slider_s/r;
#X obj 202 387 loadbang;
#X connect 0 0 16 0;
#X connect 1 0 17 0;
#X connect 10 0 7 0;
#X connect 31 0 46 0;
#X connect 32 0 46 0;
#X connect 34 0 58 1;
#X connect 34 0 56 1;
#X connect 34 0 60 1;
#X connect 34 0 63 1;
#X connect 34 0 65 1;
#X connect 34 0 67 1;
#X connect 34 0 68 1;
#X connect 34 0 70 1;
#X connect 34 0 72 1;
#X connect 34 0 74 1;
#X connect 34 0 76 1;
#X connect 34 0 78 1;
#X connect 34 0 80 1;
#X connect 34 0 82 1;
#X connect 35 0 57 1;
#X connect 35 0 59 1;
#X connect 35 0 61 1;
#X connect 35 0 62 1;
#X connect 35 0 64 1;
#X connect 35 0 66 1;
#X connect 35 0 69 1;
#X connect 35 0 71 1;
#X connect 35 0 73 1;
#X connect 35 0 75 1;
#X connect 35 0 77 1;
#X connect 35 0 79 1;
#X connect 35 0 81 1;
#X connect 36 0 57 1;
#X connect 36 0 59 1;
#X connect 36 0 61 1;
#X connect 36 0 62 1;
#X connect 36 0 64 1;
#X connect 36 0 66 1;
#X connect 36 0 69 1;
#X connect 36 0 71 1;
#X connect 36 0 73 1;
#X connect 36 0 75 1;
#X connect 36 0 77 1;
#X connect 36 0 79 1;
#X connect 36 0 81 1;
#X connect 41 0 51 0;
#X connect 42 0 52 0;
#X connect 44 0 32 0;
#X connect 45 0 31 0;
#X connect 47 0 34 0;
#X connect 48 0 34 0;
#X connect 49 0 35 0;
#X connect 50 0 36 0;
#X connect 53 0 41 0;
#X connect 54 0 42 0;
#X connect 83 0 84 0;
#X connect 84 0 85 0;
#X connect 86 0 84 1;
#X connect 89 0 94 0;
#X connect 103 0 29 0;
#X coords 0 -1 1 1 750 280 2 100 100;
