#N canvas 369 23 505 538 10;
#X declare -lib mrpeach;
#X declare -lib zexy;
#X obj 104 125 nbx 5 14 -1e+37 1e+37 0 1 \$1_OSCin_port_s \$1_OSCin_port_r
empty 0 -8 0 10 -262144 -1 -1 8000 256;
#X text 160 127 Port;
#N canvas 653 44 787 643 save 0;
#X obj 202 250 textfile;
#X msg 470 188 clear;
#X obj 205 -33 bng 15 250 50 0 empty empty empty 17 7 0 10 -262144
-1 -1;
#X obj -12 177 t b b b;
#X msg 118 208 bang;
#X msg 155 208 rewind;
#X obj 205 -54 r save_parameters;
#X obj -11 103 r recall_parameters;
#X obj 117 -29 loadbang;
#X obj 117 -6 f \$1;
#X obj -12 203 f;
#X obj 204 20 f;
#X obj 4 141 t b f;
#X obj 204 0 t b b b, f 63;
#X obj -11 123 bng 15 250 50 0 empty empty empty 17 7 0 10 -262144
-1 -1;
#N canvas 699 49 736 667 save 0;
#X obj 150 412 outlet;
#X obj 143 204 inlet;
#X obj 197 262 f;
#X obj 212 309 pack f;
#X msg 213 328 set \$1;
#X obj 212 223 r \$1_OSCout(local)_port_s;
#X connect 1 0 2 0;
#X connect 2 0 3 0;
#X connect 3 0 4 0;
#X connect 4 0 0 0;
#X connect 5 0 2 1;
#X restore 390 129 pd save receives;
#N canvas 705 126 735 694 save 0;
#X obj 37 37 inlet;
#X obj 38 58 unpack f;
#X obj 38 200 s \$1_OSCout(local)_port_r;
#X connect 0 0 1 0;
#X connect 1 0 2 0;
#X restore 202 270 pd save sends;
#X msg -12 228 read OSCout(local)_\$1.txt;
#X msg 204 54 write OSCout(local)_\$1.txt;
#X connect 0 0 16 0;
#X connect 1 0 0 0;
#X connect 2 0 13 0;
#X connect 3 0 10 0;
#X connect 3 1 4 0;
#X connect 3 2 5 0;
#X connect 4 0 0 0;
#X connect 5 0 0 0;
#X connect 6 0 2 0;
#X connect 7 0 14 0;
#X connect 8 0 9 0;
#X connect 9 0 11 1;
#X connect 9 0 12 0;
#X connect 10 0 17 0;
#X connect 11 0 18 0;
#X connect 12 0 3 0;
#X connect 12 1 10 1;
#X connect 13 0 11 0;
#X connect 13 1 15 0;
#X connect 13 2 1 0;
#X connect 14 0 3 0;
#X connect 15 0 0 0;
#X connect 17 0 0 0;
#X connect 18 0 0 0;
#X restore 247 102 pd save mechanism;
#X msg 85 351 disconnect;
#X obj 271 176 openpanel;
#X obj 104 181 bng 15 250 50 0 empty empty empty 17 7 0 10 -204786
-241291 -1;
#N canvas 529 111 494 344 META 0;
#X text 12 155 HELP_PATCH_AUTHORS "pd meta" information added by Jonathan
Wilkes for Pd version 0.42.;
#X text 12 25 LICENSE GPL v2 or later;
#X text 12 135 AUTHOR Martin Peach;
#X text 12 5 KEYWORDS control network;
#X text 12 115 OUTLET_0 float;
#X text 12 45 DESCRIPTION used in conjunction with packOSC - will send
OSC over udp;
#X text 12 75 INLET_0 connect send list disconnect multicast_interface
multicast_ttl multicast_loopback;
#X restore 928 377 pd META;
#X obj -7 388 udpsend;
#X obj 36 18 declare -lib mrpeach;
#X obj 36 -2 declare -lib zexy;
#X text 124 180 Send a file;
#X symbolatom 104 198 20 0 0 1 Send - -;
#X obj 104 160 tgl 15 0 empty \$1_OSCout_connected_tog_r Connection_Status
17 7 0 10 -262144 -1 -1 1 1;
#X obj 104 142 bng 15 250 50 0 \$1_OSCout_disconnect empty Disconnect
17 7 0 10 -204800 -1 -1;
#X msg 104 220 send \$1;
#X msg -7 287 connect localhost \$1;
#X obj 104 240 packOSC;
#X obj -7 409 s \$1_OSCout_connected_tog_r;
#X obj 85 332 r \$1_OSCout_disconnect;
#X text 104 112 OSC Send (LocalHost);
#X obj 28 58 inlet;
#X text 103 100 Trigger;
#X connect 0 0 15 0;
#X connect 3 0 7 0;
#X connect 4 0 11 0;
#X connect 5 0 4 0;
#X connect 7 0 17 0;
#X connect 11 0 14 0;
#X connect 14 0 16 0;
#X connect 15 0 7 0;
#X connect 16 0 7 0;
#X connect 18 0 3 0;
#X connect 20 0 11 0;
#X coords 0 -1 1 1 150 115 2 100 100;
