#N canvas 245 295 485 377 10;
#X obj 58 304 outlet;
#X obj 58 73 inlet;
#X symbolatom 104 114 15 0 0 0 - #1_OSCroute_r #1_OSCroute_s;
#X obj 113 304 outlet;
#X obj 59 235 routeOSC /test;
#X msg 66 215 set \$1;
#X text 102 100 OSC Route;
#X text 100 126 Match;
#X text 164 126 Other;
#N canvas 653 44 787 643 save 0;
#X obj 202 250 textfile;
#X msg 470 188 clear;
#X obj 205 -33 bng 15 250 50 0 empty empty empty 17 7 0 10 -262144
-1 -1;
#X obj -12 177 t b b b;
#X msg 118 208 bang;
#X msg 155 208 rewind;
#X obj 205 -54 r save_parameters;
#X obj -11 103 r recall_parameters;
#X obj 117 -29 loadbang;
#X obj 117 -6 f \$1;
#X obj -12 203 f;
#X obj 204 20 f;
#X obj 4 141 t b f;
#X obj 204 0 t b b b, f 63;
#X obj -11 123 bng 15 250 50 0 empty empty empty 17 7 0 10 -262144
-1 -1;
#N canvas 699 49 736 667 save 0;
#X obj 150 412 outlet;
#X obj 144 206 inlet;
#X obj 211 247 s2l;
#X obj 211 264 l2s ^;
#X msg 213 328 set \$1;
#X symbolatom 211 284 10 0 0 0 - - -;
#X obj 211 227 r \$1_OSCroute_s;
#X connect 1 0 5 0;
#X connect 2 0 3 0;
#X connect 3 0 5 0;
#X connect 4 0 0 0;
#X connect 5 0 4 0;
#X connect 6 0 2 0;
#X restore 390 129 pd save receives;
#N canvas 705 126 735 694 save 0;
#X obj 37 37 inlet;
#X msg 37 79 symbol \$1;
#X obj 37 99 s2l ^;
#X obj 39 119 l2s;
#X symbolatom 37 139 80 0 0 0 - - -;
#X msg 37 158 symbol \$1;
#X obj 38 58 unpack s;
#X obj 37 175 s \$1_OSCroute_r;
#X connect 0 0 6 0;
#X connect 1 0 2 0;
#X connect 2 0 3 0;
#X connect 3 0 4 0;
#X connect 4 0 5 0;
#X connect 5 0 7 0;
#X connect 6 0 1 0;
#X restore 202 270 pd save sends;
#X msg 204 55 write OSCroute_\$1.txt;
#X msg -12 228 read OSCroute_\$1.txt;
#X connect 0 0 16 0;
#X connect 1 0 0 0;
#X connect 2 0 13 0;
#X connect 3 0 10 0;
#X connect 3 1 4 0;
#X connect 3 2 5 0;
#X connect 4 0 0 0;
#X connect 5 0 0 0;
#X connect 6 0 2 0;
#X connect 7 0 14 0;
#X connect 8 0 9 0;
#X connect 9 0 11 1;
#X connect 9 0 12 0;
#X connect 10 0 18 0;
#X connect 11 0 17 0;
#X connect 12 0 3 0;
#X connect 12 1 10 1;
#X connect 13 0 11 0;
#X connect 13 1 15 0;
#X connect 13 2 1 0;
#X connect 14 0 3 0;
#X connect 15 0 0 0;
#X connect 17 0 0 0;
#X connect 18 0 0 0;
#X restore 206 101 pd save mechanism;
#X obj 66 196 r \$1_OSCroute_s;
#X connect 1 0 4 0;
#X connect 4 0 0 0;
#X connect 4 1 3 0;
#X connect 5 0 4 0;
#X connect 10 0 5 0;
#X coords 0 -1 1 1 100 40 2 100 100;
