#N canvas 575 252 553 349 10;
#X obj 64 111 *~, f 30;
#X obj 241 89 tabread~ \$1_autotune_hann;
#X obj 65 -50 phasor~;
#X obj 64 44 *~, f 10;
#X obj 241 68 *~ 512;
#X obj 64 66 +~ 10;
#X obj 65 -73 inlet~;
#X obj 123 -57 loadbang;
#X obj 64 176 *~;
#X obj 122 -36 f \$2;
#X obj 78 157 f \$3;
#X obj 78 137 loadbang;
#X obj 13 112 outlet~;
#X obj 65 -7 +~;
#X obj 65 14 wrap~;
#X obj 120 7 r \$1_autotune_windowsize_slider_s;
#X obj 64 194 throw~ \$1_autotune_shifters;
#X obj 64 87 vd~ \$1_autotune_delay;
#X text 191 -52 Phasor controls the rate of delay time change;
#X text 161 43 Values from 0-1 are multiplied by the window time;
#X text 404 90 The delay is hanned so that clicks are removed when
phasor returns to 0;
#X text 237 196 Output is sent to output patch;
#X connect 0 0 8 0;
#X connect 1 0 0 1;
#X connect 2 0 13 0;
#X connect 3 0 5 0;
#X connect 4 0 1 0;
#X connect 5 0 17 0;
#X connect 6 0 2 0;
#X connect 7 0 9 0;
#X connect 8 0 16 0;
#X connect 9 0 13 1;
#X connect 10 0 8 1;
#X connect 11 0 10 0;
#X connect 13 0 14 0;
#X connect 14 0 3 0;
#X connect 14 0 4 0;
#X connect 15 0 3 1;
#X connect 17 0 0 0;
#X connect 17 0 12 0;
