#N canvas 393 53 1047 696 10;
#X obj 284 94 fiddle~;
#X obj 310 113 unpack;
#X floatatom 310 130 5 0 0 0 - - -;
#X floatatom 496 203 5 0 0 0 - - -;
#X obj 496 179 rounder;
#X text 344 130 Current Pitch;
#X text 530 203 Target Pitch;
#X text 320 0 Momentary Transpotion factor t= 1- sf/SR;
#X text 454 37 s = window size;
#X text 453 53 f = frequency;
#X text 453 66 SR = sample rate;
#X text 452 134 Window size 2000;
#X text 486 16 f=(t-1)*SR/s;
#X obj 284 71 inlet~;
#X obj 496 223 mtof;
#X floatatom 497 242 10 0 0 0 - - -;
#X obj 310 204 mtof;
#X floatatom 310 225 10 0 0 0 - - -;
#X obj 310 273 pack;
#X obj 310 297 expr ($f2/$f1);
#X text 426 297 Tragetfreq/OrigFreq;
#X text 563 241 Target Frequency;
#X text 376 229 Current Frequency;
#X obj 310 334 expr 1-$f1;
#X obj 310 355 * 1000;
#X obj 310 464 sig~;
#X obj 325 378 r \$1_autotune_windowsize_slider_s;
#X obj 310 484 outlet~;
#X msg 325 398 \$1 5;
#X obj 310 443 /;
#X obj 325 418 line;
#X obj 310 149 t f f;
#X text 380 334 1 - frequency ratio;
#X text 340 447 divided by the window size;
#X text 549 179 Rounds the input pitch to the nearest semi-tone;
#X connect 0 2 1 0;
#X connect 1 0 2 0;
#X connect 2 0 31 0;
#X connect 3 0 14 0;
#X connect 4 0 3 0;
#X connect 13 0 0 0;
#X connect 14 0 15 0;
#X connect 15 0 18 1;
#X connect 16 0 17 0;
#X connect 17 0 18 0;
#X connect 18 0 19 0;
#X connect 19 0 23 0;
#X connect 23 0 24 0;
#X connect 24 0 29 0;
#X connect 25 0 27 0;
#X connect 26 0 28 0;
#X connect 28 0 30 0;
#X connect 29 0 25 0;
#X connect 30 0 29 1;
#X connect 31 0 16 0;
#X connect 31 1 4 0;
