#N canvas 150 82 920 654 10;
#X declare -lib cyclone;
#N canvas 0 23 491 325 (subpatch) 0;
#X array \$1_Sample_player 431484 float 4;
#X coords 0 1 431483 -1 150 80 1 0 0;
#X restore 103 138 graph;
#X obj 29 604 soundfiler;
#X obj 105 222 bng 15 250 50 0 empty empty Load_Sample 17 7 0 10 -261234
-1 -1;
#X obj 30 378 openpanel;
#X obj 147 0 declare -lib cyclone;
#X obj 105 242 bng 15 250 50 0 empty empty Normalise_Soundfile 17 7
0 10 -261234 -1 -1;
#X text 101 377 Choose Modulator sample to load into array;
#X obj 755 158 vu 15 120 empty empty -1 -8 0 10 -66577 -1 1 0;
#X obj 30 474 t s b;
#X obj 426 302 outlet~;
#X obj 755 112 env~;
#X obj 755 133 - 100;
#X obj 29 630 nbx 10 14 -1e+37 1e+37 0 0 \$1_SP_SampleSize empty empty
0 -8 0 10 -262144 -1 -1 431484 256;
#X obj 105 259 tgl 15 0 \$1_samplerloop empty empty 40 5 0 10 -204800
-1 -1 0 1;
#X obj 165 258 bng 15 250 50 0 \$1_samplerplay \$1_samplerplay_r empty
40 5 0 10 -204800 -1 -1;
#X obj 265 18 r \$1_samplerplay;
#X obj 373 18 r \$1_samplerloop;
#X obj 73 490 f \$1;
#X msg 29 575 read -resize \$1 \$2;
#X obj 28 555 pack s s;
#X obj 73 532 symbol;
#X obj 192 318 f \$1;
#X text 123 258 Loop;
#X text 181 260 Play;
#N canvas 653 44 787 643 save 0;
#X obj 202 250 textfile;
#X msg 470 188 clear;
#X obj 205 -33 bng 15 250 50 0 empty empty empty 17 7 0 10 -262144
-1 -1;
#X obj -12 177 t b b b;
#X msg 118 208 bang;
#X msg 155 208 rewind;
#X obj 205 -54 r save_parameters;
#X obj -11 103 r recall_parameters;
#X obj 117 -29 loadbang;
#X obj 117 -6 f \$1;
#X obj -12 203 f;
#X obj 204 20 f;
#X obj 4 141 t b f;
#X obj 204 0 t b b b, f 63;
#X obj -11 123 bng 15 250 50 0 empty empty empty 17 7 0 10 -262144
-1 -1;
#N canvas 699 49 736 667 save 0;
#X obj 150 412 outlet;
#X obj 143 204 inlet;
#X obj 197 262 f;
#X obj 257 271 s2l;
#X obj 257 288 l2s ^;
#X obj 212 309 pack f s;
#X msg 213 328 set \$1 \$2;
#X obj 257 251 r \$1_sampleplayer_openpanel_s;
#X obj 212 223 r \$1_sampleplayer_volume_slider_s;
#X connect 1 0 2 0;
#X connect 2 0 5 0;
#X connect 3 0 4 0;
#X connect 4 0 5 1;
#X connect 5 0 6 0;
#X connect 6 0 0 0;
#X connect 7 0 3 0;
#X connect 8 0 2 1;
#X restore 390 129 pd save receives;
#N canvas 705 126 735 694 save 0;
#X obj 37 37 inlet;
#X msg 95 81 symbol \$1;
#X obj 95 101 s2l ^;
#X obj 97 121 l2s;
#X symbolatom 95 141 80 0 0 0 - - -;
#X msg 95 160 symbol \$1;
#X obj 38 58 unpack f s;
#X obj 95 177 s \$1_sampleplayer_openpanel_r;
#X obj 38 200 s \$1_sampleplayer_volume_slider_r;
#X connect 0 0 6 0;
#X connect 1 0 2 0;
#X connect 2 0 3 0;
#X connect 3 0 4 0;
#X connect 4 0 5 0;
#X connect 5 0 7 0;
#X connect 6 0 8 0;
#X connect 6 1 1 0;
#X restore 202 270 pd save sends;
#X msg 204 55 write Sample_player_\$1.txt;
#X obj 179 -71 r \$1_sampleplayer_savebutton;
#X obj -36 85 r \$1_sampleplayer_recallbutton;
#X msg -12 228 read Sample_player_\$1.txt;
#X connect 0 0 16 0;
#X connect 1 0 0 0;
#X connect 2 0 13 0;
#X connect 3 0 10 0;
#X connect 3 1 4 0;
#X connect 3 2 5 0;
#X connect 4 0 0 0;
#X connect 5 0 0 0;
#X connect 6 0 2 0;
#X connect 7 0 14 0;
#X connect 8 0 9 0;
#X connect 9 0 11 1;
#X connect 9 0 12 0;
#X connect 10 0 20 0;
#X connect 11 0 17 0;
#X connect 12 0 3 0;
#X connect 12 1 10 1;
#X connect 13 0 11 0;
#X connect 13 1 15 0;
#X connect 13 2 1 0;
#X connect 14 0 3 0;
#X connect 15 0 0 0;
#X connect 17 0 0 0;
#X connect 18 0 2 0;
#X connect 19 0 3 0;
#X connect 20 0 0 0;
#X restore 418 115 pd save mechanism;
#X obj 107 278 hsl 100 15 0 1 0 0 \$1_sampleplayer_volume_slider_s
\$1_sampleplayer_volume_slider_r empty -2 -8 0 10 -128992 -1 -1 3100
1;
#X text 101 114 SAMPLE PLAYER;
#X text 211 279 Vol;
#X msg 192 340 \; \$1_Sample_player normalize;
#X obj 248 280 bng 15 250 50 0 \$1_sampleplayer_savebutton empty Save
17 7 0 5 -262130 -1 -258113;
#X obj 281 280 bng 15 250 50 0 \$1_sampleplayer_recallbutton empty
Recall 17 7 0 5 -262130 -1 -258113;
#X msg 73 511 \$1_Sample_player;
#X obj 43 402 s \$1_sampleplayer_openpanel_s;
#X obj 41 454 r \$1_sampleplayer_openpanel_r;
#N canvas 601 135 839 555 \$1_Sample_player 0;
#X obj 22 40 bng 15 250 50 0 empty empty one-shot_play 17 7 0 10 -204800
-1 -1;
#X obj 12 519 outlet~;
#X obj 441 190 tgl 15 0 empty empty play_loop 17 7 0 10 -232576 -1
-1 0 1;
#X obj 29 376 == 0;
#X text 673 397 <- play only one or the other;
#X text 550 261 <- loop(retrigger) if switch on;
#X text 8 -63 samplayer;
#X text 11 -29 This plays a sample;
#X text 12 -12 one-shot or looped;
#X obj 440 112 loadbang;
#X msg 440 135 0;
#X obj 57 309 env~;
#X floatatom 58 328 5 0 0 0 - - -;
#X obj 23 19 inlet;
#X obj 462 161 inlet;
#X text 568 166 Only changes are the the inlet objects which recieve
on off signals from the filter section \, and the array name specified
in the argument.;
#X obj 29 397 tgl 15 0 empty empty empty 17 7 0 10 -228856 -1 -1 1
1;
#X msg 27 420 \$1 5;
#X obj 27 445 line~;
#X obj 12 464 *~;
#X obj 607 359 tgl 15 0 empty empty empty 17 7 0 10 -228856 -1 -1 0
1;
#X msg 606 383 \$1 5;
#X obj 606 408 line~;
#X obj 405 445 *~;
#X obj 155 14 r \$1_SP_SampleSize;
#X floatatom 155 34 5 0 0 0 - - -;
#X obj 10 250 tabread~ \$1_Sample_player;
#X obj 22 60 t b b;
#X obj 11 142 phasor~;
#X obj 155 53 expr $f1/$f2;
#X obj 223 35 r samplerate;
#X floatatom 68 100 5 0 0 0 - - -;
#X obj 10 122 sig~;
#X obj 155 94 expr 1/$f1;
#X obj 328 197 r \$1_SP_SampleSize;
#X obj 9 227 *~;
#X msg 65 186 0;
#X obj 404 362 tabread~ \$1_Sample_player;
#X text 273 10 Get SampleLength;
#X text 245 55 Get period;
#X text 228 97 Get frequency;
#X text 64 145 Apply frequency to phasor \, and reset phase;
#X text 172 166 Set frequency to 0 when sample ends;
#X obj 16 165 threshold~ 0.99 10 0.1 10;
#X obj 404 298 sig~;
#X obj 404 318 phasor~;
#X obj 441 210 t f b;
#X obj 404 343 *~;
#X obj 16 93 f;
#X msg 443 297 0;
#X msg 49 120 0;
#X obj 219 372 *~;
#X obj 220 430 tabread~ \$1_Sample_player;
#X obj 220 396 else/wrap2~;
#X floatatom 243 292 5 0 0 0 - - -;
#X obj 234 261 r \$1_playback_multi;
#X obj 218 306 * 1;
#X obj 218 326 sig~;
#X obj 218 346 phasor~;
#X floatatom 175 274 5 0 0 0 - - -;
#X obj 217 239 r phasor_timeperiod;
#X obj 220 459 *~;
#X obj 168 393 tgl 15 0 empty empty empty 17 7 0 10 -228856 -1 -1 0
1;
#X msg 166 416 \$1 5;
#X obj 166 441 line~;
#X obj 168 364 r \$1_phasorloop;
#X connect 0 0 27 0;
#X connect 2 0 3 0;
#X connect 2 0 46 0;
#X connect 3 0 16 0;
#X connect 9 0 10 0;
#X connect 10 0 2 0;
#X connect 11 0 12 0;
#X connect 13 0 0 0;
#X connect 14 0 2 0;
#X connect 16 0 17 0;
#X connect 17 0 18 0;
#X connect 18 0 19 1;
#X connect 19 0 1 0;
#X connect 20 0 21 0;
#X connect 21 0 22 0;
#X connect 22 0 23 1;
#X connect 23 0 1 0;
#X connect 24 0 25 0;
#X connect 25 0 29 0;
#X connect 26 0 11 0;
#X connect 26 0 19 0;
#X connect 27 0 48 0;
#X connect 27 1 50 0;
#X connect 28 0 35 0;
#X connect 28 0 43 0;
#X connect 29 0 33 0;
#X connect 30 0 29 1;
#X connect 31 0 48 1;
#X connect 32 0 28 0;
#X connect 33 0 31 0;
#X connect 33 0 44 0;
#X connect 34 0 35 1;
#X connect 34 0 47 1;
#X connect 34 0 51 1;
#X connect 34 0 53 2;
#X connect 35 0 26 0;
#X connect 36 0 32 0;
#X connect 37 0 23 0;
#X connect 43 0 36 0;
#X connect 44 0 45 0;
#X connect 45 0 47 0;
#X connect 46 0 20 0;
#X connect 46 1 49 0;
#X connect 47 0 37 0;
#X connect 48 0 32 0;
#X connect 49 0 45 1;
#X connect 50 0 28 1;
#X connect 51 0 53 0;
#X connect 52 0 61 0;
#X connect 53 0 52 0;
#X connect 55 0 54 0;
#X connect 55 0 56 1;
#X connect 56 0 57 0;
#X connect 57 0 58 0;
#X connect 58 0 51 0;
#X connect 60 0 56 0;
#X connect 60 0 59 0;
#X connect 61 0 1 0;
#X connect 62 0 63 0;
#X connect 63 0 64 0;
#X connect 64 0 61 1;
#X connect 65 0 62 0;
#X restore 266 38 pd \$1_Sample_player;
#X symbolatom 194 116 20 0 0 0 - - -;
#X text 101 100 Vol Mod;
#X obj 26 19 inlet;
#X obj 26 39 cyclone/scale 0 127 0 1;
#X obj 25 59 s \$1_sampleplayer_volume_slider_r;
#X obj 427 277 *~;
#X obj 549 27 inlet;
#X obj 549 47 t b;
#X text 242 100 Trigger Play;
#X obj 549 67 s \$1_samplerplay_r;
#X obj 441 234 r \$1_sampleplayer_volume_slider_s;
#X obj 257 140 vradio 15 1 0 6 \$1_playbackmulti_radio empty empty
0 -8 0 10 -262144 -1 -1 4;
#X text 276 156 Norm;
#X text 275 171 1/2;
#X text 277 139 X2;
#X text 274 186 1/4;
#X text 274 200 1/8;
#X obj 477 371 r \$1_playbackmulti_radio;
#X obj 477 497 s \$1_playback_multi;
#X msg 477 431 2;
#X msg 513 431 1;
#X msg 549 431 0.5;
#X msg 584 431 0.25;
#X msg 620 430 0.125;
#X obj 477 451 bng 15 250 50 0 empty empty empty 17 7 0 10 -262144
-1 -1;
#X obj 477 411 sel 0;
#X obj 513 411 sel 1;
#X obj 549 411 sel 2;
#X obj 584 411 sel 3;
#X obj 621 411 sel 4;
#X obj 620 450 bng 15 250 50 0 empty empty empty 17 7 0 10 -262144
-1 -1;
#X text 274 217 1/16;
#X obj 665 412 sel 5;
#X msg 664 431 0.0675;
#X obj 217 258 tgl 15 0 \$1_phasorloop empty empty 40 5 0 10 -204800
-1 -1 0 1;
#X text 235 258 Loop;
#X obj 441 255 line~ \$1 10;
#X connect 1 0 12 0;
#X connect 2 0 3 0;
#X connect 3 0 8 0;
#X connect 3 0 32 0;
#X connect 5 0 21 0;
#X connect 8 0 19 0;
#X connect 8 0 35 0;
#X connect 8 1 17 0;
#X connect 10 0 11 0;
#X connect 11 0 7 0;
#X connect 15 0 34 0;
#X connect 16 0 34 1;
#X connect 17 0 31 0;
#X connect 18 0 1 0;
#X connect 19 0 18 0;
#X connect 20 0 19 1;
#X connect 21 0 28 0;
#X connect 31 0 20 0;
#X connect 33 0 8 0;
#X connect 34 0 40 0;
#X connect 37 0 38 0;
#X connect 38 0 39 0;
#X connect 40 0 9 0;
#X connect 41 0 42 0;
#X connect 42 0 44 0;
#X connect 45 0 71 0;
#X connect 52 0 60 0;
#X connect 52 0 61 0;
#X connect 52 0 62 0;
#X connect 52 0 63 0;
#X connect 52 0 64 0;
#X connect 52 0 67 0;
#X connect 54 0 53 0;
#X connect 54 0 59 0;
#X connect 55 0 53 0;
#X connect 56 0 53 0;
#X connect 57 0 53 0;
#X connect 58 0 53 0;
#X connect 58 0 65 0;
#X connect 60 0 54 0;
#X connect 61 0 55 0;
#X connect 62 0 56 0;
#X connect 63 0 57 0;
#X connect 64 0 58 0;
#X connect 67 0 68 0;
#X connect 68 0 53 0;
#X connect 71 0 40 1;
#X coords 0 -1 1 1 220 200 2 100 100;
