#N canvas 905 192 534 416 10;
#X obj 64 111 *~, f 30;
#X obj 65 -50 phasor~;
#X obj 64 44 *~, f 10;
#X obj 64 66 +~ 10;
#X obj 65 -73 inlet~;
#X obj 123 -57 loadbang;
#X obj 64 176 *~;
#X obj 122 -36 f \$2;
#X obj 78 157 f \$3;
#X obj 78 137 loadbang;
#X obj 13 112 outlet~;
#X obj 65 -7 +~;
#X obj 65 14 wrap~;
#X obj 64 87 vd~ \$1_shepard_delay;
#X obj 120 7 r \$1_shepard_windowsize_slider_s;
#X obj 65 259 throw~ \$1_shepard_shifters;
#X obj 146 178 cos~;
#X obj 146 199 *~ -0.5;
#X obj 146 221 +~ 0.5;
#X obj 241 67 *~ 512;
#X obj 241 87 tabread~ \$1_shepard_hann;
#X obj 64 226 *~;
#X obj 146 159 r~ \$1_\$4_shepard_phasor;
#X connect 0 0 6 0;
#X connect 1 0 11 0;
#X connect 2 0 3 0;
#X connect 3 0 13 0;
#X connect 4 0 1 0;
#X connect 5 0 7 0;
#X connect 6 0 21 0;
#X connect 7 0 11 1;
#X connect 8 0 6 1;
#X connect 9 0 8 0;
#X connect 11 0 12 0;
#X connect 12 0 2 0;
#X connect 12 0 19 0;
#X connect 13 0 10 0;
#X connect 13 0 0 0;
#X connect 14 0 2 1;
#X connect 16 0 17 0;
#X connect 17 0 18 0;
#X connect 18 0 21 1;
#X connect 19 0 20 0;
#X connect 20 0 0 1;
#X connect 21 0 15 0;
#X connect 22 0 16 0;
