#N canvas 75 88 1087 731 10;
#X obj 271 262 unpack;
#X floatatom 271 283 5 0 0 0 - - -;
#X floatatom 457 351 5 0 0 0 - - -;
#X text 305 283 Current Pitch;
#X text 491 351 Target Pitch;
#X text 281 148 Momentary Transpotion factor t= 1- sf/SR;
#X text 415 185 s = window size;
#X text 414 201 f = frequency;
#X text 414 214 SR = sample rate;
#X text 447 164 f=(t-1)*SR/s;
#X obj 245 219 inlet~;
#X obj 457 371 mtof;
#X floatatom 458 390 10 0 0 0 - - -;
#X obj 271 330 mtof;
#X floatatom 271 351 10 0 0 0 - - -;
#X obj 271 421 pack;
#X obj 271 445 expr ($f2/$f1);
#X text 387 445 Tragetfreq/OrigFreq;
#X text 524 389 Target Frequency;
#X text 337 333 Current Frequency;
#X obj 271 482 expr 1-$f1;
#X obj 271 503 * 1000;
#X obj 271 612 sig~;
#X obj 271 632 outlet~;
#X msg 286 546 \$1 5;
#X obj 271 591 /;
#X obj 286 566 line;
#X obj 457 330 +;
#X floatatom 183 466 5 0 0 0 - - -;
#X obj 245 242 fiddle~ 2048;
#X obj 271 302 t f f;
#X obj 544 75 r \$1_shepard_duration_slider_s;
#X floatatom 544 95 5 0 0 0 - - -;
#X obj 544 113 expr 1/$f1;
#X obj 544 137 phasor~;
#X obj 574 248 cyclone/scale~ 0 1, f 39;
#X obj 679 206 r \$1_shepard_lowtransposition_slider_s;
#X obj 726 226 r \$1_shepard_maxtransposition_slider_s;
#X obj 542 268 snapshot~;
#X msg 542 288 \$1 5;
#X obj 542 308 line;
#X obj 482 248 metro 5;
#X obj 482 230 loadbang;
#X obj 286 526 r \$1_shepard_windowsize_slider_s;
#X obj 582 226 s~ \$1_\$2_shepard_phasor;
#X obj 544 176 +~;
#X obj 544 196 wrap~;
#X obj 636 143 f \$2;
#X obj 637 121 loadbang;
#X connect 0 0 1 0;
#X connect 1 0 30 0;
#X connect 2 0 11 0;
#X connect 10 0 29 0;
#X connect 11 0 12 0;
#X connect 12 0 15 1;
#X connect 13 0 14 0;
#X connect 14 0 15 0;
#X connect 15 0 16 0;
#X connect 16 0 20 0;
#X connect 16 0 28 0;
#X connect 20 0 21 0;
#X connect 21 0 25 0;
#X connect 22 0 23 0;
#X connect 24 0 26 0;
#X connect 25 0 22 0;
#X connect 26 0 25 1;
#X connect 27 0 2 0;
#X connect 29 2 0 0;
#X connect 30 0 13 0;
#X connect 30 1 27 0;
#X connect 31 0 32 0;
#X connect 32 0 33 0;
#X connect 33 0 34 0;
#X connect 34 0 45 0;
#X connect 35 0 38 0;
#X connect 36 0 35 3;
#X connect 37 0 35 4;
#X connect 38 0 39 0;
#X connect 39 0 40 0;
#X connect 40 0 27 1;
#X connect 41 0 38 0;
#X connect 42 0 41 0;
#X connect 43 0 24 0;
#X connect 45 0 46 0;
#X connect 46 0 35 0;
#X connect 46 0 44 0;
#X connect 47 0 45 1;
#X connect 48 0 47 0;
