#N canvas 318 205 624 521 10;
#X obj 103 124 nbx 2 14 1 127 0 1 \$1_emo_channel_nbx empty Channel
30 7 0 10 -203904 -1 -1 2 256;
#X obj 264 87 inlet;
#X obj 282 60 inlet;
#X obj 265 172 pack f f f;
#X obj 265 192 unpack f f f;
#X obj 303 106 r \$1_emo_channel_nbx;
#X text 100 110 EXTERNAL MIDIOUT;
#X text 101 100 Note;
#X text 152 99 Velocity;
#X obj 334 216 spigot;
#X obj 369 197 > 0;
#X floatatom 296 230 5 0 0 0 - - -;
#X floatatom 259 230 5 0 0 0 - - -;
#X floatatom 409 241 5 0 0 0 - - -;
#X obj 409 260 bng 15 250 50 0 empty empty empty 17 7 0 10 -262144
-1 -1;
#X obj 372 322 midiout;
#X obj 361 293 pack;
#X obj 266 284 noteout 2;
#X connect 1 0 3 0;
#X connect 1 0 16 0;
#X connect 2 0 3 1;
#X connect 2 0 16 1;
#X connect 3 0 4 0;
#X connect 4 0 12 0;
#X connect 4 0 17 0;
#X connect 4 1 11 0;
#X connect 4 1 17 1;
#X connect 4 2 9 0;
#X connect 5 0 3 2;
#X connect 5 0 10 0;
#X connect 9 0 13 0;
#X connect 10 0 9 1;
#X connect 13 0 14 0;
#X connect 13 0 15 1;
#X connect 16 0 15 0;
#X coords 0 -1 1 1 106 42 2 100 100;
