#N canvas 319 206 624 521 10;
#X obj 103 124 nbx 2 14 0 127 0 1 \$1_eccout_channel_nbx empty Channel
30 7 0 10 -262144 -1 -1 0 256;
#X obj 264 87 inlet;
#X obj 282 66 inlet;
#X obj 265 172 pack f f f;
#X obj 265 192 unpack f f f;
#X text 100 111 EXTERNAL CC OUT;
#X obj 303 106 r \$1_eccout_channel_nbx;
#X obj 266 222 ctlout;
#X text 101 100 Value;
#X text 139 99 Controller;
#X connect 1 0 3 0;
#X connect 2 0 3 1;
#X connect 3 0 4 0;
#X connect 4 0 7 0;
#X connect 4 1 7 1;
#X connect 4 2 7 2;
#X connect 6 0 3 2;
#X coords 0 -1 1 1 105 42 2 100 100;
