#N canvas 524 78 852 658 10;
#X declare -lib cyclone;
#X obj 104 63 inlet;
#X obj 105 129 hsl 128 15 0.01 20 1 0 \$1_lfo_frequency_slider_s \$1_lfo_frequency_slider_r
empty -2 -8 0 10 -261682 -1 -1 2700 1;
#X text 102 113 LFO;
#X floatatom 239 129 5 0 0 0 - #1_lfo_frequency_slider_s -;
#X obj 106 186 hsl 128 15 0 127 0 0 \$1_lfo_scaled_slider_s \$1_lfo_scaled_slider_r
empty -2 -8 0 10 -204786 -1 -1 12670 1;
#X obj -7 -1 declare -lib cyclone;
#X obj 106 150 hsl 128 15 0 127 0 0 \$1_lfo_lower_slider_s \$1_lfo_lower_slider_r
empty -2 -8 0 10 -204800 -1 -1 2200 1;
#X obj 107 168 hsl 128 15 0 127 0 0 \$1_lfo_upper_slider_s \$1_lfo_upper_slider_r
empty -2 -8 0 10 -204800 -1 -1 12700 1;
#X obj -65 573 outlet;
#X obj 297 103 tgl 15 1 \$1_lfo_on/off_tog_s \$1_lfo_on/off_tog_r empty
17 7 0 10 -262144 -1 -1 1 1;
#X obj -68 204 osc~;
#X obj -47 140 sel 1;
#X text 237 150 LOW LIMIT;
#X text 238 168 UPPER LIMIT;
#X text 238 187 SCALED VALUE;
#X text 276 128 Hz;
#X text 101 100 Frequency Mod;
#X text 102 205 Control out;
#X text 254 103 On/Off;
#X obj -65 507 spigot;
#X obj 118 450 sel 1;
#X msg 118 470 1;
#X obj 159 449 sel 0;
#X msg 159 489 0;
#X msg -47 159 0;
#X msg -65 527 \$1 5;
#X obj -65 547 line;
#X obj -47 121 r \$1_lfo_on/off_tog_s;
#X obj 118 416 r \$1_lfo_on/off_tog_s;
#X obj -68 183 r \$1_lfo_frequency_slider_s;
#X obj 48 241 r \$1_lfo_upper_slider_s;
#X obj 19 223 r \$1_lfo_lower_slider_s;
#N canvas 750 76 685 576 save 0;
#X obj 202 250 textfile;
#X msg 470 188 clear;
#X obj 205 -33 bng 15 250 50 0 empty empty empty 17 7 0 10 -262144
-1 -1;
#X obj 333 94 f;
#X obj -12 177 t b b b;
#X msg 118 208 bang;
#X msg 155 208 rewind;
#X floatatom 203 372 5 0 0 0 - - -;
#X floatatom 271 293 5 0 0 0 - - -;
#X floatatom 238 330 5 0 0 0 - - -;
#X obj 205 -54 r save_parameters;
#X obj -11 104 r recall_parameters;
#X obj 117 -29 loadbang;
#X obj 117 -6 f \$1;
#X obj -12 203 f;
#X obj 204 20 f;
#X obj 4 141 t b f;
#X obj 204 0 t b b b, f 63;
#X obj 179 -71 r \$1_lfo_savebutton;
#X obj -36 85 r \$1_lfo_recallbutton;
#X msg 202 177 write lfo_\$1.txt;
#X msg -12 228 read lfo_\$1.txt;
#X obj 344 119 pack f f f;
#X msg 345 139 set \$1 \$2 \$3;
#X obj 202 272 unpack f f f;
#X obj 395 81 r \$1_lfo_upper_slider_s;
#X obj 366 60 r \$1_lfo_lower_slider_s;
#X obj 348 42 r \$1_lfo_frequency_slider_s;
#X obj 203 391 s \$1_lfo_frequency_slider_r;
#X obj 270 312 s \$1_lfo_upper_slider_r;
#X obj 238 349 s \$1_lfo_lower_slider_r;
#X connect 0 0 24 0;
#X connect 1 0 0 0;
#X connect 2 0 17 0;
#X connect 3 0 22 0;
#X connect 4 0 14 0;
#X connect 4 1 5 0;
#X connect 4 2 6 0;
#X connect 5 0 0 0;
#X connect 6 0 0 0;
#X connect 7 0 28 0;
#X connect 8 0 29 0;
#X connect 9 0 30 0;
#X connect 10 0 2 0;
#X connect 11 0 4 0;
#X connect 12 0 13 0;
#X connect 13 0 15 1;
#X connect 13 0 16 0;
#X connect 14 0 21 0;
#X connect 15 0 20 0;
#X connect 16 0 4 0;
#X connect 16 1 14 1;
#X connect 17 0 15 0;
#X connect 17 1 3 0;
#X connect 17 2 1 0;
#X connect 18 0 2 0;
#X connect 19 0 4 0;
#X connect 20 0 0 0;
#X connect 21 0 0 0;
#X connect 22 0 23 0;
#X connect 23 0 0 0;
#X connect 24 0 7 0;
#X connect 24 1 9 0;
#X connect 24 2 8 0;
#X connect 25 0 22 2;
#X connect 26 0 22 1;
#X connect 27 0 3 1;
#X restore 561 194 pd save mechanism;
#X obj 180 103 bng 15 250 50 0 \$1_lfo_savebutton empty Save 17 7 0
5 -262130 -1 -258113;
#X obj 217 102 bng 15 250 50 0 \$1_lfo_recallbutton empty Recall 17
7 0 5 -262130 -1 -258113;
#X obj 297 57 loadbang;
#X msg 297 77 0;
#X obj -68 341 snapshot~;
#X obj -40 321 metro 5;
#X obj -11 570 s \$1_lfo_scaled_slider_r;
#X obj -68 259 cyclone/scale~ -1 1 0 127;
#X obj -40 301 r \$1_lfo_on/off_tog_s;
#X connect 0 0 1 0;
#X connect 10 0 40 0;
#X connect 11 0 24 0;
#X connect 19 0 25 0;
#X connect 20 0 21 0;
#X connect 21 0 19 1;
#X connect 22 0 23 0;
#X connect 23 0 19 1;
#X connect 24 0 10 1;
#X connect 25 0 26 0;
#X connect 26 0 8 0;
#X connect 26 0 39 0;
#X connect 27 0 11 0;
#X connect 28 0 20 0;
#X connect 28 0 22 0;
#X connect 29 0 10 0;
#X connect 30 0 40 4;
#X connect 31 0 40 3;
#X connect 35 0 36 0;
#X connect 36 0 9 0;
#X connect 37 0 19 0;
#X connect 38 0 37 0;
#X connect 40 0 37 0;
#X connect 41 0 38 0;
#X coords 0 -1 1 1 215 120 2 100 100;
