#N canvas 520 271 592 363 10;
#X declare -lib cyclone;
#X obj 45 11 declare -lib cyclone;
#X obj 103 114 nbx 3 14 0 20 0 0 \$1_cvin_min_nbx_s \$1_cvin_min_nbx_r
Min_CV 40 10 0 10 -204800 -1 -1 0 256;
#X obj 104 131 nbx 3 14 0 20 0 0 \$1_cvout_max_nbx_s \$1_cvout_max_nbx_r
Max_CV 40 10 0 10 -204800 -1 -1 0 256;
#N canvas 750 76 685 576 save 1;
#X obj 202 250 textfile;
#X msg 470 188 clear;
#X obj 205 -33 bng 15 250 50 0 empty empty empty 17 7 0 10 -262144
-1 -1;
#X obj 333 94 f;
#X obj -12 177 t b b b;
#X msg 118 208 bang;
#X msg 155 208 rewind;
#X floatatom 203 372 5 0 0 0 - - -;
#X floatatom 260 316 5 0 0 0 - - -;
#X obj 205 -54 r save_parameters;
#X obj -11 104 r recall_parameters;
#X obj 117 -29 loadbang;
#X obj 117 -6 f \$1;
#X obj -12 203 f;
#X obj 204 20 f;
#X obj 4 141 t b f;
#X obj 204 0 t b b b, f 63;
#X msg 345 139 set \$1 \$2;
#X obj 202 272 unpack f f;
#X obj 344 119 pack f f;
#X msg -12 228 read CVin_\$1.txt;
#X obj -36 85 r \$1_CVin_recallbutton;
#X obj 179 -71 r \$1_CVin_savebutton;
#X msg 202 177 write CVin_\$1.txt;
#X obj 347 60 r \$1_cvin_min_nbx_s;
#X obj 374 80 r \$1_cvin_max_nbx_s;
#X obj 260 335 s \$1_cvin_max_nbx_r;
#X obj 203 391 s \$1_cvin_min_nbx_r;
#X connect 0 0 18 0;
#X connect 1 0 0 0;
#X connect 2 0 16 0;
#X connect 3 0 19 0;
#X connect 4 0 13 0;
#X connect 4 1 5 0;
#X connect 4 2 6 0;
#X connect 5 0 0 0;
#X connect 6 0 0 0;
#X connect 7 0 27 0;
#X connect 8 0 26 0;
#X connect 9 0 2 0;
#X connect 10 0 4 0;
#X connect 11 0 12 0;
#X connect 12 0 14 1;
#X connect 12 0 15 0;
#X connect 13 0 20 0;
#X connect 14 0 23 0;
#X connect 15 0 4 0;
#X connect 15 1 13 1;
#X connect 16 0 14 0;
#X connect 16 1 3 0;
#X connect 16 2 1 0;
#X connect 17 0 0 0;
#X connect 18 0 7 0;
#X connect 18 1 8 0;
#X connect 19 0 17 0;
#X connect 20 0 0 0;
#X connect 21 0 4 0;
#X connect 22 0 2 0;
#X connect 23 0 0 0;
#X connect 24 0 3 1;
#X connect 25 0 19 1;
#X restore 254 10 pd save mechanism;
#X obj 104 150 bng 15 250 50 0 \$1_CVin_savebutton empty Save 17 7
0 5 -262130 -1 -258113;
#X obj 141 150 bng 15 250 50 0 \$1_CVin_recallbutton empty Recall 17
7 0 5 -262130 -1 -258113;
#X text -29 113 \$1_cvout_min_nbx_s/r;
#X text -28 134 \$1_cvout_max_nbx_s/r;
#X text 100 99 CV in;
#X obj 252 204 scale 0 5 0 127;
#X obj 303 154 r \$1_cvin_min_nbx_s;
#X obj 321 176 r \$1_cvin_max_nbx_s;
#X text 102 166 Note Out;
#X obj 252 229 outlet;
#X obj 252 78 inlet~;
#X obj 252 98 snapshot~;
#X obj 252 139 line;
#X msg 252 118 \$1 20;
#X obj 314 77 metro 20;
#X obj 313 56 loadbang;
#X connect 9 0 13 0;
#X connect 10 0 9 1;
#X connect 11 0 9 2;
#X connect 14 0 15 0;
#X connect 15 0 17 0;
#X connect 16 0 9 0;
#X connect 17 0 16 0;
#X connect 18 0 15 0;
#X connect 19 0 18 0;
#X coords 0 -1 1 1 85 80 2 100 100;
