#N canvas 388 242 1043 485 10;
#X declare -lib cyclone;
#X obj 90 303 inlet~;
#X obj 90 342 *~;
#X obj 105 323 r \$1_4chanmixer_volume1_slider_s;
#X obj 90 409 +~;
#X obj 104 115 vsl 15 95 0 1 0 0 \$1_4chanmixer_volume1_slider_s \$1_4chanmixer_volume1_slider_r
empty 0 -9 0 10 -162280 -1 -1 8120 1;
#X obj 123 115 vsl 15 95 0 1 0 0 \$1_4chanmixer_volume2_slider_s \$1_4chanmixer_volume2_slider_r
empty 0 -9 0 10 -162280 -1 -1 8462 1;
#X obj 142 115 vsl 15 95 0 1 0 0 \$1_4chanmixer_volume3_slider_s \$1_4chanmixer_volume3_slider_r
empty 0 -9 0 10 -162280 -1 -1 7902 1;
#X obj 161 115 vsl 15 95 0 1 0 0 \$1_4chanmixer_volume4_slider_s \$1_4chanmixer_volume4_slider_r
empty 0 -9 0 10 -162280 -1 -1 8243 1;
#X obj 121 343 inlet~;
#X obj 121 382 *~;
#X obj 340 311 inlet~;
#X obj 340 350 *~;
#X obj 340 417 +~;
#X obj 371 351 inlet~;
#X obj 371 390 *~;
#X obj 137 364 r \$1_4chanmixer_volume2_slider_s;
#X obj 355 331 r \$1_4chanmixer_volume3_slider_s;
#X obj 386 371 r \$1_4chanmixer_volume4_slider_s;
#X obj 90 435 +~;
#X obj 90 455 outlet~;
#X text 100 100 4 Channel Mixer;
#X obj 192 164 nbx 5 14 0 10000 0 0 \$1_4chanmixer_fadetime_s \$1_4chanmixer_fadetime_r
Fade_Time 0 -8 0 10 -204800 -1 -1 500 256;
#X obj 194 192 nbx 5 14 0 1 0 0 \$1_4chanmixer_min_s \$1_4chanmixer_min_r
Minimum 0 -8 0 10 -204800 -1 -1 0.2 256;
#X obj 195 220 nbx 5 14 0 1 0 0 \$1_4chanmixer_max_s \$1_4chanmixer_max_r
Maximum 0 -8 0 10 -204800 -1 -1 1 256;
#X obj 192 133 nbx 5 14 0 10000 0 0 \$1_4chanmixer_rate_s \$1_4chanmixer_rate_r
Rate_(ms) 0 -8 0 10 -204800 -1 -1 500 256;
#X obj 71 16 declare -lib cyclone;
#N canvas 866 211 450 300 Generative 0;
#X obj 335 21 r \$1_4chanmixer_gen_s;
#X obj 335 47 metro, f 26;
#X obj 487 21 r \$1_4chanmixer_rate_s;
#X obj 335 112 random 1000;
#X obj 335 132 / 1000;
#X obj 335 176 scale 0 1 0 1;
#X obj 380 131 r \$1_4chanmixer_min_s;
#X obj 395 154 r \$1_4chanmixer_max_s;
#X msg 350 82 seed 10;
#X obj 350 65 loadbang;
#X obj 334 258 line;
#X obj 334 237 pack f f;
#X obj 379 217 r \$1_4chanmixer_fadetime_s;
#X obj 334 278 s \$1_4chanmixer_volume1_slider_r;
#X obj 549 112 random 1000;
#X obj 549 132 / 1000;
#X obj 549 176 scale 0 1 0 1;
#X obj 594 131 r \$1_4chanmixer_min_s;
#X obj 609 154 r \$1_4chanmixer_max_s;
#X obj 564 65 loadbang;
#X obj 548 258 line;
#X obj 548 237 pack f f;
#X obj 593 217 r \$1_4chanmixer_fadetime_s;
#X msg 564 82 seed 20;
#X obj 548 278 s \$1_4chanmixer_volume2_slider_r;
#X obj 764 114 random 1000;
#X obj 764 134 / 1000;
#X obj 764 178 scale 0 1 0 1;
#X obj 809 133 r \$1_4chanmixer_min_s;
#X obj 824 156 r \$1_4chanmixer_max_s;
#X obj 779 67 loadbang;
#X obj 763 260 line;
#X obj 763 239 pack f f;
#X obj 808 219 r \$1_4chanmixer_fadetime_s;
#X msg 779 84 seed 30;
#X obj 978 115 random 1000;
#X obj 978 135 / 1000;
#X obj 978 179 scale 0 1 0 1;
#X obj 1023 134 r \$1_4chanmixer_min_s;
#X obj 1038 157 r \$1_4chanmixer_max_s;
#X obj 993 68 loadbang;
#X obj 977 261 line;
#X obj 977 240 pack f f;
#X obj 1022 220 r \$1_4chanmixer_fadetime_s;
#X obj 763 280 s \$1_4chanmixer_volume3_slider_r;
#X obj 977 281 s \$1_4chanmixer_volume4_slider_r;
#X msg 993 85 seed 40;
#X connect 0 0 1 0;
#X connect 1 0 3 0;
#X connect 1 0 14 0;
#X connect 1 0 25 0;
#X connect 1 0 35 0;
#X connect 2 0 1 1;
#X connect 3 0 4 0;
#X connect 4 0 5 0;
#X connect 5 0 11 0;
#X connect 6 0 5 3;
#X connect 7 0 5 4;
#X connect 8 0 3 0;
#X connect 9 0 8 0;
#X connect 10 0 13 0;
#X connect 11 0 10 0;
#X connect 12 0 11 1;
#X connect 14 0 15 0;
#X connect 15 0 16 0;
#X connect 16 0 21 0;
#X connect 17 0 16 3;
#X connect 18 0 16 4;
#X connect 19 0 23 0;
#X connect 20 0 24 0;
#X connect 21 0 20 0;
#X connect 22 0 21 1;
#X connect 23 0 14 0;
#X connect 25 0 26 0;
#X connect 26 0 27 0;
#X connect 27 0 32 0;
#X connect 28 0 27 3;
#X connect 29 0 27 4;
#X connect 30 0 34 0;
#X connect 31 0 44 0;
#X connect 32 0 31 0;
#X connect 33 0 32 1;
#X connect 34 0 25 0;
#X connect 35 0 36 0;
#X connect 36 0 37 0;
#X connect 37 0 42 0;
#X connect 38 0 37 3;
#X connect 39 0 37 4;
#X connect 40 0 46 0;
#X connect 41 0 45 0;
#X connect 42 0 41 0;
#X connect 43 0 42 1;
#X connect 46 0 35 0;
#X restore 279 114 pd Generative;
#X obj 191 102 tgl 15 0 \$1_4chanmixer_gen_s \$1_4chanmixer_gen_r Generative
17 7 0 10 -204786 -1 -1 1 1;
#N canvas 653 44 787 643 save 0;
#X obj 202 250 textfile;
#X msg 470 188 clear;
#X obj 205 -33 bng 15 250 50 0 empty empty empty 17 7 0 10 -262144
-1 -1;
#X obj -12 177 t b b b;
#X msg 118 208 bang;
#X msg 155 208 rewind;
#X obj 205 -54 r save_parameters;
#X obj -11 103 r recall_parameters;
#X obj 117 -29 loadbang;
#X obj 117 -6 f \$1;
#X obj -12 203 f;
#X obj 204 20 f;
#X obj 4 141 t b f;
#X obj 204 0 t b b b, f 63;
#X obj -11 123 bng 15 250 50 0 empty empty empty 17 7 0 10 -262144
-1 -1;
#N canvas 704 46 736 667 save 0;
#X obj 150 412 outlet;
#X obj 142 125 inlet;
#X obj 196 164 f;
#X msg 213 328 set \$1 \$2 \$3 \$4 \$5 \$6 \$7 \$8 \$9;
#X obj 212 309 pack f f f f f f f f f;
#X obj 340 286 r \$1_4chanmixer_max_s;
#X obj 323 268 r \$1_4chanmixer_min_s;
#X obj 307 247 r \$1_4chanmixer_fadetime_s;
#X obj 293 226 r \$1_4chanmixer_rate_s;
#X obj 257 196 r \$1_4chanmixer_volume4_slider_s;
#X obj 211 134 r \$1_4chanmixer_volume1_slider_s;
#X obj 243 176 r \$1_4chanmixer_volume3_slider_s;
#X obj 270 211 r \$1_4chanmixer_gen_s;
#X obj 225 156 r \$1_4chanmixer_volume2_slider_s;
#X connect 1 0 2 0;
#X connect 2 0 4 0;
#X connect 3 0 0 0;
#X connect 4 0 3 0;
#X connect 5 0 4 8;
#X connect 6 0 4 7;
#X connect 7 0 4 6;
#X connect 8 0 4 5;
#X connect 9 0 4 3;
#X connect 10 0 2 1;
#X connect 11 0 4 2;
#X connect 12 0 4 4;
#X connect 13 0 4 1;
#X restore 390 129 pd save receives;
#N canvas 705 126 735 694 save 0;
#X obj 37 37 inlet;
#X obj 37 58 unpack f f f f f f f f f;
#X obj 40 277 s \$1_4chanmixer_volume1_slider_r;
#X obj 70 233 s \$1_4chanmixer_volume3_slider_r;
#X obj 86 211 s \$1_4chanmixer_volume4_slider_r;
#X obj 107 191 s \$1_4chanmixer_gen_r;
#X obj 117 172 s \$1_4chanmixer_rate_r;
#X obj 142 151 s \$1_4chanmixer_fadetime_r;
#X obj 162 130 s \$1_4chanmixer_min_r;
#X obj 178 101 s \$1_4chanmixer_max_r;
#X obj 53 253 s \$1_4chanmixer_volume2_slider_r;
#X connect 0 0 1 0;
#X connect 1 0 2 0;
#X connect 1 1 10 0;
#X connect 1 2 3 0;
#X connect 1 3 4 0;
#X connect 1 4 5 0;
#X connect 1 5 6 0;
#X connect 1 6 7 0;
#X connect 1 7 8 0;
#X connect 1 8 9 0;
#X restore 202 270 pd save sends;
#X obj -36 85 r \$1_4chanmixer_recallbutton;
#X obj 179 -71 r \$1_4chanmixer_savebutton;
#X msg 204 55 write 4chanmixer_\$1.txt;
#X msg -12 228 read 4chanmixer_\$1.txt;
#X connect 0 0 16 0;
#X connect 1 0 0 0;
#X connect 2 0 13 0;
#X connect 3 0 10 0;
#X connect 3 1 4 0;
#X connect 3 2 5 0;
#X connect 4 0 0 0;
#X connect 5 0 0 0;
#X connect 6 0 2 0;
#X connect 7 0 14 0;
#X connect 8 0 9 0;
#X connect 9 0 11 1;
#X connect 9 0 12 0;
#X connect 10 0 20 0;
#X connect 11 0 19 0;
#X connect 12 0 3 0;
#X connect 12 1 10 1;
#X connect 13 0 11 0;
#X connect 13 1 15 0;
#X connect 13 2 1 0;
#X connect 14 0 3 0;
#X connect 15 0 0 0;
#X connect 17 0 3 0;
#X connect 18 0 2 0;
#X connect 19 0 0 0;
#X connect 20 0 0 0;
#X restore 280 93 pd save mechanism;
#X obj 105 219 bng 15 250 50 0 \$1_4chanmixer_savebutton empty Save
17 7 0 5 -262130 -1 -258113;
#X obj 138 219 bng 15 250 50 0 \$1_4chanmixer_recallbutton empty Recall
17 7 0 5 -262130 -1 -258113;
#X connect 0 0 1 0;
#X connect 1 0 3 0;
#X connect 2 0 1 1;
#X connect 3 0 18 0;
#X connect 8 0 9 0;
#X connect 9 0 3 1;
#X connect 10 0 11 0;
#X connect 11 0 12 0;
#X connect 12 0 18 1;
#X connect 13 0 14 0;
#X connect 14 0 12 1;
#X connect 15 0 9 1;
#X connect 16 0 11 1;
#X connect 17 0 14 1;
#X connect 18 0 19 0;
#X coords 0 -1 1 1 170 140 2 100 100;
