#N canvas 653 328 450 300 10;
#X declare -lib zexy;
#X obj 47 93 inlet~;
#X obj 47 131 *~;
#X obj 106 124 hsl 128 15 0 1 0 0 \$1_externalaudioout_slider_s \$1_externalaudioout_slider_r
empty -2 -8 0 10 -128992 -1 -1 12700 1;
#X obj 103 142 hradio 15 1 1 3 \$1_externalaudioout_radio_s \$1_externalaudioout_radio_r
empty 0 -8 0 10 -204800 -1 -1 0;
#X obj 281 28 declare -lib zexy;
#X obj 47 192 demultiplex~ . . .;
#X text 108 156 L;
#X text 123 156 R;
#X text 132 156 LR;
#X obj 102 3 inlet;
#X text 193 99 Vol Mod;
#X obj 103 22 cyclone/scale 0 127 0 1;
#N canvas 277 253 784 567 save 0;
#X obj 202 250 textfile;
#X msg 470 188 clear;
#X obj 205 -33 bng 15 250 50 0 empty empty empty 17 7 0 10 -262144
-1 -1;
#X obj 333 94 f;
#X obj -12 177 t b b b;
#X msg 118 208 bang;
#X msg 155 208 rewind;
#X floatatom 230 371 5 0 0 0 - - -;
#X floatatom 202 411 5 0 0 0 - - -;
#X obj 205 -54 r save_parameters;
#X obj -11 104 r recall_parameters;
#X obj 117 -29 loadbang;
#X obj 117 -6 f \$1;
#X obj -12 203 f;
#X obj 204 20 f;
#X obj 4 141 t b f;
#X obj 204 0 t b b b, f 63;
#X obj 179 -71 r \$1_audiosend_savebutton;
#X obj -36 85 r \$1_audiosend_recallbutton;
#X msg 202 177 write externalaudioout_\$1.txt;
#X msg -12 228 read externalaudioout_\$1.txt;
#X obj 344 119 pack f f f f;
#X obj 412 99 r \$1_externalaudioout_right_s;
#X obj 390 82 r \$1_externalaudioout_left_s;
#X obj 202 272 unpack f f f f;
#X obj 284 312 s \$1_externalaudioout_right_r;
#X obj 255 342 s \$1_externalaudioout_left_r;
#X obj 349 42 r \$1_externalaudioout_radio_s;
#X obj 367 64 r \$1_externalaudioout_slider_s;
#X msg 345 139 set \$1 \$2 \$3 \$4;
#X obj 229 390 s \$1_externalaudioout_slider_r;
#X obj 202 428 s \$1_externalaudioout_radio_r;
#X connect 0 0 24 0;
#X connect 1 0 0 0;
#X connect 2 0 16 0;
#X connect 3 0 21 0;
#X connect 4 0 13 0;
#X connect 4 1 5 0;
#X connect 4 2 6 0;
#X connect 5 0 0 0;
#X connect 6 0 0 0;
#X connect 7 0 30 0;
#X connect 8 0 31 0;
#X connect 9 0 2 0;
#X connect 10 0 4 0;
#X connect 11 0 12 0;
#X connect 12 0 14 1;
#X connect 12 0 15 0;
#X connect 13 0 20 0;
#X connect 14 0 19 0;
#X connect 15 0 4 0;
#X connect 15 1 13 1;
#X connect 16 0 14 0;
#X connect 16 1 3 0;
#X connect 16 2 1 0;
#X connect 17 0 2 0;
#X connect 18 0 4 0;
#X connect 19 0 0 0;
#X connect 20 0 0 0;
#X connect 21 0 29 0;
#X connect 22 0 21 3;
#X connect 23 0 21 2;
#X connect 24 0 8 0;
#X connect 24 1 7 0;
#X connect 24 2 26 0;
#X connect 24 3 25 0;
#X connect 27 0 3 1;
#X connect 28 0 21 1;
#X connect 29 0 0 0;
#X restore 293 127 pd save mechanism;
#X obj 48 235 dac~;
#X obj 141 235 dac~;
#X obj 154 153 nbx 2 14 1 70 0 1 \$1_externalaudioout_left_s \$1_externalaudioout_left_r
DAC~_L 0 -8 0 10 -262144 -1 -1 3 256;
#X obj 202 154 nbx 2 14 1 70 0 1 \$1_externalaudioout_right_s \$1_externalaudioout_right_r
DAC~_R 0 -8 0 10 -262144 -1 -1 4 256;
#X msg 154 172 set \$1;
#X msg 202 173 set \$1;
#X text 102 109 EXTERNAL AUDIO OUT;
#X text 102 99 Inlet~;
#X connect 0 0 1 0;
#X connect 1 0 5 0;
#X connect 2 0 1 1;
#X connect 3 0 5 0;
#X connect 5 0 13 0;
#X connect 5 1 14 0;
#X connect 5 2 13 0;
#X connect 5 2 14 0;
#X connect 9 0 11 0;
#X connect 11 0 2 0;
#X connect 15 0 17 0;
#X connect 16 0 18 0;
#X connect 17 0 13 0;
#X connect 18 0 14 0;
#X coords 0 -1 1 1 140 70 2 100 100;
