#N canvas 426 129 644 464 10;
#X declare -lib zexy;
#X declare -lib else;
#X obj -1 99 inlet~;
#X obj -1 188 *~;
#X obj -2 269 throw~ mixl;
#X obj 55 251 throw~ mixr;
#X obj 106 124 hsl 128 15 0 1 0 0 \$1_mixsend_slider_s \$1_mixsend_slider_r
empty -2 -8 0 10 -128992 -1 -1 0 1;
#X obj 549 79 declare -lib zexy;
#X text 101 156 L;
#X text 228 156 R;
#X text 162 156 LR;
#X obj 75 24 inlet;
#X text 144 99 Vol Mod;
#X obj 76 43 cyclone/scale 0 127 0 1;
#N canvas 656 95 784 567 save 0;
#X obj 202 250 textfile;
#X msg 470 188 clear;
#X obj 205 -33 bng 15 250 50 0 empty empty empty 17 7 0 10 -262144
-1 -1;
#X obj 333 94 f;
#X obj -12 177 t b b b;
#X msg 118 208 bang;
#X msg 155 208 rewind;
#X floatatom 230 371 5 0 0 0 - - -;
#X floatatom 202 411 5 0 0 0 - - -;
#X obj 205 -54 r save_parameters;
#X obj -11 104 r recall_parameters;
#X obj 117 -29 loadbang;
#X obj 117 -6 f \$1;
#X obj -12 203 f;
#X obj 204 20 f;
#X obj 4 141 t b f;
#X obj 204 0 t b b b, f 63;
#X msg 202 177 write mixsend_\$1.txt;
#X msg -12 228 read mixsend_\$1.txt;
#X obj 202 272 unpack f f;
#X obj 344 119 pack f f;
#X obj 388 78 r \$1_mixsend_slider_s;
#X msg 345 139 set \$1 \$2;
#X obj 229 390 s \$1_mixsend_slider_r;
#X obj 348 42 r \$1_mixsend_panner_s;
#X obj 202 429 s \$1_mixsend_panner_r;
#X connect 0 0 19 0;
#X connect 1 0 0 0;
#X connect 2 0 16 0;
#X connect 3 0 20 0;
#X connect 4 0 13 0;
#X connect 4 1 5 0;
#X connect 4 2 6 0;
#X connect 5 0 0 0;
#X connect 6 0 0 0;
#X connect 7 0 23 0;
#X connect 8 0 25 0;
#X connect 9 0 2 0;
#X connect 10 0 4 0;
#X connect 11 0 12 0;
#X connect 12 0 14 1;
#X connect 12 0 15 0;
#X connect 13 0 18 0;
#X connect 14 0 17 0;
#X connect 15 0 4 0;
#X connect 15 1 13 1;
#X connect 16 0 14 0;
#X connect 16 1 3 0;
#X connect 16 2 1 0;
#X connect 17 0 0 0;
#X connect 18 0 0 0;
#X connect 19 0 8 0;
#X connect 19 1 7 0;
#X connect 20 0 22 0;
#X connect 21 0 20 1;
#X connect 22 0 0 0;
#X connect 24 0 3 1;
#X restore 293 127 pd save mechanism;
#X text 266 86 MASTER BUS;
#X obj 106 142 hsl 128 15 -1 1 0 0 \$1_mixsend_panner_s \$1_mixsend_panner_r
empty -2 -8 0 10 -228856 -1 -1 0 1;
#X floatatom 57 187 0 0 0 0 - - -;
#X text 69 230 Equal Power Panner;
#X text 140 260 Master Out Sends;
#X obj 76 62 s \$1_mixsend_slider_r;
#X obj 549 95 declare -lib else;
#X obj 57 208 else/float2sig~ 100;
#X obj -1 230 else/pan2~;
#X obj 239 23 inlet;
#X obj 240 61 s \$1_mixsend_panner_r;
#X text 192 99 Pan Mod;
#X obj 240 42 cyclone/scale 0 127 -1 1;
#X msg 26 143 \$1 5;
#X obj 25 162 line~;
#X text 102 110 MASTER BUS SEND;
#X text 102 99 Inlet~;
#X connect 0 0 1 0;
#X connect 1 0 21 0;
#X connect 4 0 26 0;
#X connect 9 0 11 0;
#X connect 11 0 18 0;
#X connect 14 0 15 0;
#X connect 15 0 20 0;
#X connect 20 0 21 1;
#X connect 21 0 2 0;
#X connect 21 1 3 0;
#X connect 22 0 25 0;
#X connect 25 0 23 0;
#X connect 26 0 27 0;
#X connect 27 0 1 1;
#X coords 0 -1 1 1 140 70 2 100 100;
