#N canvas 38 138 442 404 10;
#X obj 222 211 samphold~, f 41;
#X obj 28 232 +~, f 33;
#X obj 28 308 *~;
#X obj 465 188 *~ 1;
#X obj 31 80 phasor~;
#X floatatom 86 81 5 0 0 0 - - -;
#X obj 71 37 loadbang;
#X obj 29 -14 expr 44100/$f1;
#N canvas 608 59 601 366 index 0;
#X obj 36 157 outlet~;
#X obj 36 128 cyclone/selector~ 3, f 49;
#X obj 36 106 r \$1_indexsel;
#X floatatom 1 129 5 0 0 0 - - -;
#X obj 331 216 snapshot~;
#X floatatom 331 237 5 0 0 0 - - -;
#N canvas 215 379 450 300 random 0;
#X obj 229 52 noise~;
#X obj 230 90 *~ 0.5;
#X obj 230 72 +~ 1;
#X obj 200 -48 loadbang;
#X obj 201 7 list prepend seed;
#X obj 264 -48 bng 15 250 50 0 empty empty empty 17 7 0 10 -262144
-1 -1;
#X msg 201 28 \$1 \$2;
#X obj 201 -30 f \$2;
#X obj 201 -13 * 100;
#X obj 230 109 *~, f 10;
#X obj 232 133 outlet~;
#X obj 287 77 r \$1_scaledsamplelength;
#X connect 0 0 2 0;
#X connect 1 0 9 0;
#X connect 2 0 1 0;
#X connect 3 0 7 0;
#X connect 4 0 6 0;
#X connect 5 0 7 0;
#X connect 6 0 0 0;
#X connect 7 0 8 0;
#X connect 8 0 4 0;
#X connect 9 0 10 0;
#X connect 11 0 9 1;
#X restore 230 107 pd random;
#N canvas 0 23 450 300 freeze 0;
#X obj 402 65 r \$1_spray;
#X obj 327 22 r \$1_drunkmetro;
#X floatatom 507 130 5 0 0 0 - - -;
#X obj 327 86 drunk;
#X obj 327 126 outlet~;
#X obj 327 107 sig~;
#X obj 341 46 r \$1_sclaedsamplelength;
#X obj 402 86 i;
#X connect 0 0 7 0;
#X connect 1 0 3 0;
#X connect 3 0 2 0;
#X connect 3 0 5 0;
#X connect 5 0 4 0;
#X connect 6 0 3 1;
#X connect 7 0 3 2;
#X restore 327 107 pd freeze;
#X obj 365 191 metro 5;
#X obj 366 172 tgl 15 0 empty empty empty 17 7 0 10 -262144 -1 -1 0
1;
#N canvas 9 423 450 300 syncronous 0;
#X obj 93 113 phasor~;
#X floatatom 109 -28 5 0 0 0 - - -;
#X obj 108 -47 expr 44100/$f1;
#X obj 93 40 t b f;
#X obj 93 60 * 1;
#X floatatom 49 85 5 0 0 0 - - -;
#X obj 12 40 r \$1_pos/neg;
#X obj 102 0 f, f 5;
#X obj -2 -34 t f b;
#X obj 93 20 *, f 2;
#X obj -2 -55 r \$1_samplength;
#X floatatom 114 20 5 0 0 0 - - -;
#X obj 93 134 outlet~;
#X obj 109 -67 r \$1_scaledsamplelength;
#X obj 93 81 sig~;
#X connect 0 0 12 0;
#X connect 1 0 7 1;
#X connect 2 0 1 0;
#X connect 3 0 4 0;
#X connect 3 1 4 1;
#X connect 4 0 5 0;
#X connect 4 0 14 0;
#X connect 6 0 4 0;
#X connect 7 0 9 1;
#X connect 8 0 9 0;
#X connect 8 1 7 0;
#X connect 9 0 3 0;
#X connect 9 0 11 0;
#X connect 10 0 8 0;
#X connect 13 0 2 0;
#X connect 14 0 0 0;
#X restore 131 107 pd syncronous;
#X connect 1 0 0 0;
#X connect 2 0 1 0;
#X connect 2 0 3 0;
#X connect 4 0 5 0;
#X connect 6 0 1 2;
#X connect 6 0 4 0;
#X connect 7 0 1 3;
#X connect 8 0 4 0;
#X connect 9 0 8 0;
#X connect 10 0 1 1;
#X restore 221 191 pd index and master;
#X obj 486 168 r \$1_pos/neg;
#X obj 43 111 r \$1_grainsize;
#X obj 70 59 f \$2, f 5;
#X obj -82 -63 r \$1_pitch;
#X obj 13 15 f;
#X obj 30 57 *~;
#X obj -82 -42 t f b;
#X obj -82 -10 list append 20;
#X obj -82 11 line~;
#X obj 29 181 *~;
#X obj 64 279 r \$1_streamslider;
#X obj 64 300 list append 20;
#X obj 64 321 line~;
#X obj 28 343 *~;
#X obj 30 -34 r \$1_scaledsamplelength;
#X obj 28 252 tabread~ \$1_scaled_sample;
#X obj -83 71 *~;
#N canvas 0 23 450 300 streams 0;
#X obj 103 47 r \$1_streams;
#X obj 103 68 >=, f 19;
#X obj 217 42 f \$2;
#X obj 217 17 loadbang;
#X obj 103 89 outlet;
#X connect 0 0 1 0;
#X connect 1 0 4 0;
#X connect 2 0 1 1;
#X connect 3 0 2 0;
#X restore -68 51 pd streams;
#X floatatom -40 83 5 0 0 0 - - -;
#X obj -98 249 tabread~ \$1_hanning;
#X obj -98 226 *~ 512;
#X obj 44 157 line~;
#X msg 43 132 \$1 20;
#X obj 28 364 *~ 0.5;
#X obj 28 385 outlet~;
#X connect 0 0 1 1;
#X connect 1 0 24 0;
#X connect 2 0 22 0;
#X connect 3 0 0 1;
#X connect 4 0 3 0;
#X connect 4 0 18 0;
#X connect 4 0 29 0;
#X connect 6 0 11 0;
#X connect 7 0 13 1;
#X connect 8 0 0 0;
#X connect 9 0 3 1;
#X connect 10 0 31 0;
#X connect 11 0 4 1;
#X connect 11 0 5 0;
#X connect 12 0 15 0;
#X connect 13 0 14 1;
#X connect 14 0 4 0;
#X connect 15 0 16 0;
#X connect 15 1 13 0;
#X connect 16 0 17 0;
#X connect 17 0 25 0;
#X connect 18 0 1 0;
#X connect 19 0 20 0;
#X connect 20 0 21 0;
#X connect 21 0 22 1;
#X connect 22 0 32 0;
#X connect 23 0 7 0;
#X connect 24 0 2 0;
#X connect 25 0 14 0;
#X connect 26 0 25 1;
#X connect 26 0 27 0;
#X connect 28 0 2 1;
#X connect 29 0 28 0;
#X connect 30 0 18 1;
#X connect 31 0 30 0;
#X connect 32 0 33 0;
