#N canvas 269 78 1192 765 10;
#X obj 222 211 samphold~, f 41;
#X obj 27 290 +~, f 33;
#X obj 27 416 *~;
#X obj 465 188 *~ 1;
#X obj 31 80 phasor~;
#X floatatom 155 58 5 0 0 0 - - -;
#X obj 156 14 loadbang;
#X obj 59 -54 expr 44100/$f1;
#N canvas 617 80 601 366 index 0;
#X obj 36 157 outlet~;
#X obj 36 128 cyclone/selector~ 3, f 49;
#N canvas 215 379 844 402 random 0;
#X obj 229 52 noise~;
#X obj 230 90 *~ 0.5;
#X obj 230 72 +~ 1;
#X obj 200 -48 loadbang;
#X obj 201 7 list prepend seed;
#X obj 264 -48 bng 15 250 50 0 empty empty empty 17 7 0 10 -262144
-1 -1;
#X msg 201 28 \$1 \$2;
#X obj 201 -30 f \$2;
#X obj 201 -13 * 100;
#X obj 230 109 *~, f 10;
#X obj 232 133 outlet~;
#X obj 287 77 r \$1_gs_scaledsamplelength;
#X text 334 102 Reads array positions of the scaled sample randomly
\, usinf noise (scaled to 0-1) as a random value generator.;
#X text 311 1 Makes the noise start from a different point for each
stream abstraction so that the results are different \, and more randomised.
;
#X connect 0 0 2 0;
#X connect 1 0 9 0;
#X connect 2 0 1 0;
#X connect 3 0 7 0;
#X connect 4 0 6 0;
#X connect 5 0 7 0;
#X connect 6 0 0 0;
#X connect 7 0 8 0;
#X connect 8 0 4 0;
#X connect 9 0 10 0;
#X connect 11 0 9 1;
#X restore 230 107 pd random;
#N canvas 152 203 935 480 freeze 0;
#X floatatom 507 130 10 0 0 0 - - -;
#X obj 327 86 drunk;
#X obj 327 126 outlet~;
#X obj 327 107 sig~;
#X obj 402 86 i;
#X obj 341 46 r \$1_gs_scaledsamplelength;
#X obj 327 22 r \$1_gs_drunkmetro;
#X obj 402 65 r \$1_gs_spray_value;
#X text 501 87 Uses drunk output values within the scaled sample array
range- however the distance between each random value can be capped
using the freeze slider.;
#X connect 1 0 0 0;
#X connect 1 0 3 0;
#X connect 3 0 2 0;
#X connect 4 0 1 2;
#X connect 5 0 1 1;
#X connect 6 0 1 0;
#X connect 7 0 4 0;
#X restore 327 107 pd freeze;
#N canvas 719 287 721 466 syncronous 0;
#X obj 80 191 phasor~;
#X floatatom 133 -77 5 0 0 0 - - -;
#X obj 132 -96 expr 44100/$f1;
#X obj 80 118 t b f;
#X obj 80 138 * 1;
#X floatatom 36 163 5 0 0 0 - - -;
#X obj 102 17 f, f 5;
#X obj 80 38 *, f 4;
#X floatatom 92 63 5 0 0 0 - - -;
#X obj 81 251 outlet~;
#X obj 80 159 sig~;
#X floatatom -28 5 5 0 0 0 - - -;
#X obj 133 -57 expr 1/$f1;
#X obj 15 -46 t b f b;
#X obj 73 15 f;
#X obj 133 -36 t b b f;
#X msg -20 76 \$1 200;
#X obj -21 99 line;
#X obj 80 231 *~;
#X obj 133 -116 r \$1_gs_scaledsamplelength;
#X obj -52 -73 r \$1_gs_samplelength_slider_s;
#X obj -20 55 r \$1_gs_pos/neg;
#X obj 98 213 r \$1_gs_scaledsamplelength;
#X text 161 25 This selection reads the scaled sample syncronously
in one instance. The speed of playback is controlled by the sample
lenght slider.;
#X text 156 135 When the samplehold object is activated the array position
of this sample is outputted;
#X connect 0 0 18 0;
#X connect 1 0 12 0;
#X connect 2 0 1 0;
#X connect 3 0 4 0;
#X connect 3 1 4 1;
#X connect 4 0 5 0;
#X connect 4 0 10 0;
#X connect 6 0 7 1;
#X connect 7 0 3 0;
#X connect 7 0 8 0;
#X connect 10 0 0 0;
#X connect 12 0 15 0;
#X connect 13 0 14 0;
#X connect 13 1 14 1;
#X connect 13 1 11 0;
#X connect 13 2 6 0;
#X connect 14 0 7 0;
#X connect 15 0 14 0;
#X connect 15 1 6 0;
#X connect 15 2 6 1;
#X connect 16 0 17 0;
#X connect 17 0 4 0;
#X connect 18 0 9 0;
#X connect 19 0 2 0;
#X connect 20 0 13 0;
#X connect 21 0 16 0;
#X connect 22 0 18 1;
#X restore 131 107 pd syncronous;
#X obj 36 82 r \$1_gs_indexsel_radio_s;
#X obj 36 102 + 1;
#X text 190 81 Receives mode selection from radio on main patch window
;
#X connect 1 0 0 0;
#X connect 2 0 1 2;
#X connect 3 0 1 3;
#X connect 4 0 1 1;
#X connect 5 0 6 0;
#X connect 6 0 1 0;
#X restore 222 191 pd index and master;
#X obj 155 36 f \$2, f 5;
#X obj 45 6 f;
#X obj 30 57 *~;
#X obj 29 181 *~;
#X obj 63 408 list append 20;
#X obj 63 429 line~;
#X obj 27 451 *~;
#X msg 43 132 \$1 20;
#X text 479 211 When Phasor drops in value (1-0) the value fo the left
inlet is released. The index and master subopatch fed into the left
inlet contains a syncronous \, random and freeze system. These selections
read the scaled sample array diffently \, and provide different outcomes
for how the granular sampler works.;
#X text 585 156 Ensures that the value is always positive \, even if
the phasor frequency is negative.;
#X text 112 333 Ensures that values do not exceed the value of the
scaled sample array. Works like modulo but at signal level.;
#X text 236 291 Samphold value added to phasor output value;
#X obj 44 157 line~;
#X floatatom 117 -16 5 0 0 0 - - -;
#X obj 59 -35 expr 1/$f1;
#X obj 59 -17 t b f;
#X obj -98 225 *~ 1024;
#N canvas 748 53 450 300 pitch 0;
#X obj 48 67 t f b;
#X obj 48 142 line~;
#X obj 47 203 *~;
#N canvas 532 435 746 384 streams 0;
#X obj 103 68 >=, f 19;
#X obj 257 47 f \$2;
#X obj 257 22 loadbang;
#X obj 103 89 outlet;
#X text 230 67 Mechanism for turning streams on/off based on their
phase value in the creation argument.;
#X obj 103 47 r \$1_gs_streams_slider_s;
#X connect 0 0 3 0;
#X connect 1 0 0 1;
#X connect 2 0 1 0;
#X connect 5 0 0 0;
#X restore 62 182 pd streams;
#X text 197 47 Pitch factor recieved from slider on parent patch;
#X obj 181 93 outlet;
#X obj 47 223 outlet~;
#X obj 48 46 r \$1_gs_pitch_slider_s;
#X msg 48 113 \$1 5;
#X text 226 95 Promts the output of the true playback frequency;
#X connect 0 0 8 0;
#X connect 0 1 5 0;
#X connect 1 0 2 0;
#X connect 2 0 6 0;
#X connect 3 0 2 1;
#X connect 7 0 0 0;
#X connect 8 0 1 0;
#X restore -166 -50 pd pitch slider;
#X obj -223 14 cyclone/selector~ 2;
#X obj 60 -74 r \$1_gs_scaledsamplelength;
#X obj -223 -27 r \$1_gs_pitchsequencer_tog_s;
#X obj 43 111 r \$1_gs_grainsize_slider_s;
#X obj -98 249 tabread~ \$1_gs_hanning;
#X obj 102 318 r \$1_gs_scaledsamplelength;
#X obj 27 360 tabread~ \$1_gs_scaled_sample;
#X obj 26 501 throw~ \$1_gs_out_l;
#X obj 486 163 r \$1_gs_pos/neg;
#X obj 1321 185 samphold~, f 41;
#X obj 1127 335 +~, f 33;
#X obj 1130 460 *~;
#X obj 1564 167 *~ 1;
#X obj 1130 59 phasor~;
#X floatatom 1254 37 5 0 0 0 - - -;
#X obj 1255 -7 loadbang;
#X obj 1158 -75 expr 44100/$f1;
#N canvas 617 80 601 366 index 0;
#X obj 36 157 outlet~;
#X obj 36 128 cyclone/selector~ 3, f 49;
#X floatatom 1 129 5 0 0 0 - - -;
#N canvas 215 379 450 300 random 0;
#X obj 229 52 noise~;
#X obj 230 90 *~ 0.5;
#X obj 230 72 +~ 1;
#X obj 200 -48 loadbang;
#X obj 201 7 list prepend seed;
#X obj 264 -48 bng 15 250 50 0 empty empty empty 17 7 0 10 -262144
-1 -1;
#X msg 201 28 \$1 \$2;
#X obj 201 -30 f \$2;
#X obj 201 -13 * 100;
#X obj 230 109 *~, f 10;
#X obj 232 133 outlet~;
#X obj 287 77 r \$1_gs_scaledsamplelength;
#X connect 0 0 2 0;
#X connect 1 0 9 0;
#X connect 2 0 1 0;
#X connect 3 0 7 0;
#X connect 4 0 6 0;
#X connect 5 0 7 0;
#X connect 6 0 0 0;
#X connect 7 0 8 0;
#X connect 8 0 4 0;
#X connect 9 0 10 0;
#X connect 11 0 9 1;
#X restore 230 107 pd random;
#N canvas 835 242 572 370 freeze 0;
#X floatatom 507 130 10 0 0 0 - - -;
#X obj 327 86 drunk;
#X obj 327 126 outlet~;
#X obj 327 107 sig~;
#X obj 402 86 i;
#X obj 341 46 r \$1_gs_scaledsamplelength;
#X obj 327 22 r \$1_gs_drunkmetro;
#X obj 402 65 r \$1_gs_spray_value;
#X connect 1 0 0 0;
#X connect 1 0 3 0;
#X connect 3 0 2 0;
#X connect 4 0 1 2;
#X connect 5 0 1 1;
#X connect 6 0 1 0;
#X connect 7 0 4 0;
#X restore 327 107 pd freeze;
#N canvas 719 248 721 467 syncronous 0;
#X obj 80 191 phasor~;
#X floatatom 133 -77 5 0 0 0 - - -;
#X obj 132 -96 expr 44100/$f1;
#X obj 80 118 t b f;
#X obj 80 138 * 1;
#X floatatom 36 163 5 0 0 0 - - -;
#X obj 102 17 f, f 5;
#X obj 80 38 *, f 4;
#X floatatom 92 63 5 0 0 0 - - -;
#X obj 81 251 outlet~;
#X floatatom -28 5 5 0 0 0 - - -;
#X floatatom 166 17 5 0 0 0 - - -;
#X obj 133 -57 expr 1/$f1;
#X obj 15 -46 t b f b;
#X obj 73 15 f;
#X obj 133 -36 t b b f;
#X msg -20 76 \$1 200;
#X obj -21 99 line;
#X text 295 -8 This selection reads the scaled sample syncronously
\, and is;
#X obj 80 231 *~;
#X obj 133 -116 r \$1_gs_scaledsamplelength;
#X obj -52 -73 r \$1_gs_samplelength_slider_s;
#X obj -20 55 r \$1_gs_pos/neg;
#X obj 95 213 r \$1_gs_scaledsamplelength;
#X obj 80 157 sig~;
#X connect 0 0 19 0;
#X connect 1 0 12 0;
#X connect 2 0 1 0;
#X connect 3 0 4 0;
#X connect 3 1 4 1;
#X connect 4 0 5 0;
#X connect 4 0 24 0;
#X connect 6 0 7 1;
#X connect 7 0 3 0;
#X connect 7 0 8 0;
#X connect 12 0 15 0;
#X connect 13 0 14 0;
#X connect 13 1 14 1;
#X connect 13 1 10 0;
#X connect 13 2 6 0;
#X connect 14 0 7 0;
#X connect 15 0 14 0;
#X connect 15 1 11 0;
#X connect 15 1 6 0;
#X connect 15 2 6 1;
#X connect 16 0 17 0;
#X connect 17 0 4 0;
#X connect 19 0 9 0;
#X connect 20 0 2 0;
#X connect 21 0 13 0;
#X connect 22 0 16 0;
#X connect 23 0 19 1;
#X connect 24 0 0 0;
#X restore 131 107 pd syncronous;
#X obj 36 82 r \$1_gs_indexsel_radio_s;
#X obj 36 102 + 1;
#X connect 1 0 0 0;
#X connect 3 0 1 2;
#X connect 4 0 1 3;
#X connect 5 0 1 1;
#X connect 6 0 2 0;
#X connect 6 0 7 0;
#X connect 7 0 1 0;
#X restore 1321 165 pd index and master;
#X obj 1254 15 f \$2, f 5;
#X obj 1144 -15 f;
#X obj 1129 36 *~;
#X obj 1128 160 *~;
#X obj 1166 452 list append 20;
#X obj 1166 473 line~;
#X obj 1130 495 *~;
#X msg 1142 111 \$1 20;
#X text 1046 205 Hanning;
#X obj 1143 136 line~;
#X floatatom 1216 -37 5 0 0 0 - - -;
#X obj 1158 -56 expr 1/$f1;
#X obj 1158 -38 t b f;
#X obj 1001 204 *~ 1024;
#N canvas 933 100 450 300 pitch 0;
#X obj 48 67 t f b;
#X obj 48 142 line~;
#X obj 47 203 *~;
#N canvas 532 435 746 384 streams 0;
#X obj 103 68 >=, f 19;
#X obj 257 47 f \$2;
#X obj 257 22 loadbang;
#X obj 103 89 outlet;
#X text 230 67 Mechanism for turning streams on/off based on their
phase value in the creation argument.;
#X obj 103 47 r \$1_gs_streams_slider_s;
#X connect 0 0 3 0;
#X connect 1 0 0 1;
#X connect 2 0 1 0;
#X connect 5 0 0 0;
#X restore 62 182 pd streams;
#X floatatom 75 203 5 0 0 0 - - -;
#X text 197 47 Pitch factor recieved from slider on parent patch;
#X obj 181 93 outlet;
#X obj 47 223 outlet~;
#X obj 48 46 r \$1_gs_pitch_slider_s;
#X msg 49 112 \$1 5;
#X connect 0 0 9 0;
#X connect 0 1 6 0;
#X connect 1 0 2 0;
#X connect 2 0 7 0;
#X connect 3 0 2 1;
#X connect 3 0 4 0;
#X connect 8 0 0 0;
#X connect 9 0 1 0;
#X restore 933 -71 pd pitch slider;
#X obj 875 -4 cyclone/selector~ 2;
#X obj 1159 -95 r \$1_gs_scaledsamplelength;
#X obj 875 -52 r \$1_gs_pitchsequencer_tog_s;
#X obj 1142 90 r \$1_gs_grainsize_slider_s;
#X obj 1000 228 tabread~ \$1_gs_hanning;
#X obj 1205 368 r \$1_gs_scaledsamplelength;
#X obj 1130 410 tabread~ \$1_gs_scaled_sample;
#X obj 1585 142 r \$1_gs_pos/neg;
#X obj 1129 545 throw~ \$1_gs_out_r;
#X obj 875 -32 + 1;
#X obj -223 -7 + 1;
#N canvas 770 143 574 521 pitch 0;
#X floatatom 290 118 5 0 0 0 - - -;
#X text 324 118 Target Pitch;
#X obj 290 138 mtof;
#X floatatom 291 157 10 0 0 0 - - -;
#X obj 91 131 mtof;
#X floatatom 91 152 10 0 0 0 - - -;
#X obj 91 193 pack;
#X obj 91 217 expr ($f2/$f1);
#X text 180 217 Tragetfreq/OrigFreq;
#X text 361 156 Target Frequency;
#X obj 88 422 sig~;
#X text 123 131 Sample Pitch;
#X text 157 152 Sample Frequency;
#X obj 92 74 t b f;
#X obj 88 375 *;
#X floatatom 117 258 5 0 0 0 - - -;
#X obj 116 354 /;
#X msg 117 277 \$1 5;
#X obj 117 314 line;
#X obj 88 403 *;
#X msg 322 343 \$1 5;
#X obj 322 363 line;
#X obj 88 442 outlet~;
#X obj 116 334 expr 44100/$f1;
#X obj 92 54 r \$1_gs_pitchsequencer_inlet;
#X obj 117 238 r \$1_gs_grainsize_slider_s;
#X obj 322 323 r \$1_gs_pitch_slider_s;
#X obj 117 297 + 1;
#X obj 91 114 f;
#X floatatom 124 114 5 0 0 0 - - -;
#X obj 105 96 r \$1_gs_rootpitch_nbx_s;
#X connect 0 0 2 0;
#X connect 2 0 3 0;
#X connect 3 0 6 1;
#X connect 4 0 5 0;
#X connect 5 0 6 0;
#X connect 6 0 7 0;
#X connect 7 0 14 0;
#X connect 10 0 22 0;
#X connect 13 0 28 0;
#X connect 13 1 0 0;
#X connect 14 0 19 0;
#X connect 15 0 17 0;
#X connect 16 0 14 1;
#X connect 17 0 27 0;
#X connect 18 0 23 0;
#X connect 19 0 10 0;
#X connect 20 0 21 0;
#X connect 21 0 16 1;
#X connect 21 0 19 1;
#X connect 23 0 16 0;
#X connect 24 0 13 0;
#X connect 25 0 15 0;
#X connect 26 0 20 0;
#X connect 27 0 18 0;
#X connect 28 0 4 0;
#X connect 30 0 28 1;
#X connect 30 0 29 0;
#X restore -61 -49 pd pitch sequencer;
#N canvas 316 242 574 521 pitch 0;
#X floatatom 290 118 5 0 0 0 - - -;
#X text 324 118 Target Pitch;
#X obj 290 138 mtof;
#X floatatom 291 157 10 0 0 0 - - -;
#X obj 91 131 mtof;
#X floatatom 91 152 10 0 0 0 - - -;
#X obj 91 193 pack;
#X obj 91 217 expr ($f2/$f1);
#X text 180 217 Tragetfreq/OrigFreq;
#X text 361 156 Target Frequency;
#X obj 88 422 sig~;
#X text 123 131 Sample Pitch;
#X text 157 152 Sample Frequency;
#X obj 92 74 t b f;
#X obj 88 375 *;
#X floatatom 117 258 5 0 0 0 - - -;
#X obj 116 354 /;
#X msg 117 277 \$1 5;
#X obj 117 314 line;
#X obj 88 403 *;
#X msg 322 343 \$1 5;
#X obj 322 363 line;
#X obj 88 442 outlet~;
#X obj 116 334 expr 44100/$f1;
#X obj 92 54 r \$1_gs_pitchsequencer_inlet;
#X obj 117 238 r \$1_gs_grainsize_slider_s;
#X obj 322 323 r \$1_gs_pitch_slider_s;
#X obj 117 297 + 1;
#X obj 91 114 f;
#X obj 105 96 r \$1_gs_rootpitch_nbx_s;
#X connect 0 0 2 0;
#X connect 2 0 3 0;
#X connect 3 0 6 1;
#X connect 4 0 5 0;
#X connect 5 0 6 0;
#X connect 6 0 7 0;
#X connect 7 0 14 0;
#X connect 10 0 22 0;
#X connect 13 0 28 0;
#X connect 13 1 0 0;
#X connect 14 0 19 0;
#X connect 15 0 17 0;
#X connect 16 0 14 1;
#X connect 17 0 27 0;
#X connect 18 0 23 0;
#X connect 19 0 10 0;
#X connect 20 0 21 0;
#X connect 21 0 16 1;
#X connect 21 0 19 1;
#X connect 23 0 16 0;
#X connect 24 0 13 0;
#X connect 25 0 15 0;
#X connect 26 0 20 0;
#X connect 27 0 18 0;
#X connect 28 0 4 0;
#X connect 29 0 28 1;
#X restore 1041 -72 pd pitch sequencer;
#X obj 27 338 else/wrap2~ 1;
#X obj 1130 388 else/wrap2~ 1;
#X obj 63 387 r \$1_gs_streamvolume_slider_s;
#X obj 1166 432 r \$1_gs_streamvolume_slider_s;
#X obj 1323 302 +~;
#X obj 1338 267 line;
#X obj 1337 225 r \$1_gs_offset_value;
#X msg 1338 245 \$1 10;
#X obj 1338 284 i;
#X text 1474 221 Adds stereo offset value;
#X text 136 -36 Calculates frequency of playback for scaled sample
length;
#X text -51 225 Reads hanning array to avoid clicks;
#X text 109 430 Volume of each stream is controlled by stream volume
slider;
#X text 196 41 Phase position (stated in creation argument)- important
because when mlre streams are added \, they play in different positions
;
#X text 215 104 Recieved from grainsize slider on main parent patch.
This affects how much of the sample is read by an individual stream
cycle.;
#X text 342 190 Granular mode subpatch;
#X connect 0 0 1 1;
#X connect 1 0 73 0;
#X connect 2 0 15 0;
#X connect 3 0 0 1;
#X connect 4 0 3 0;
#X connect 4 0 12 0;
#X connect 4 0 25 0;
#X connect 6 0 9 0;
#X connect 7 0 23 0;
#X connect 8 0 0 0;
#X connect 9 0 4 1;
#X connect 9 0 5 0;
#X connect 10 0 11 1;
#X connect 11 0 4 0;
#X connect 12 0 1 0;
#X connect 13 0 14 0;
#X connect 14 0 15 1;
#X connect 15 0 34 0;
#X connect 16 0 21 0;
#X connect 21 0 12 1;
#X connect 23 0 22 0;
#X connect 23 0 24 0;
#X connect 24 0 10 0;
#X connect 24 1 10 1;
#X connect 25 0 31 0;
#X connect 26 0 27 1;
#X connect 26 1 10 0;
#X connect 27 0 11 0;
#X connect 28 0 7 0;
#X connect 29 0 70 0;
#X connect 30 0 16 0;
#X connect 31 0 2 1;
#X connect 32 0 73 2;
#X connect 33 0 2 0;
#X connect 35 0 3 1;
#X connect 36 0 77 0;
#X connect 37 0 74 0;
#X connect 38 0 51 0;
#X connect 39 0 36 1;
#X connect 40 0 39 0;
#X connect 40 0 48 0;
#X connect 40 0 58 0;
#X connect 42 0 45 0;
#X connect 43 0 56 0;
#X connect 44 0 36 0;
#X connect 45 0 40 1;
#X connect 45 0 41 0;
#X connect 46 0 47 1;
#X connect 47 0 40 0;
#X connect 48 0 37 0;
#X connect 49 0 50 0;
#X connect 50 0 51 1;
#X connect 51 0 68 0;
#X connect 52 0 54 0;
#X connect 54 0 48 1;
#X connect 56 0 55 0;
#X connect 56 0 57 0;
#X connect 57 0 46 0;
#X connect 57 1 46 1;
#X connect 58 0 64 0;
#X connect 59 0 60 1;
#X connect 59 1 46 0;
#X connect 60 0 47 0;
#X connect 61 0 43 0;
#X connect 62 0 69 0;
#X connect 63 0 52 0;
#X connect 64 0 38 1;
#X connect 65 0 74 2;
#X connect 66 0 38 0;
#X connect 67 0 39 1;
#X connect 69 0 60 0;
#X connect 70 0 27 0;
#X connect 71 0 27 2;
#X connect 72 0 60 2;
#X connect 73 0 33 0;
#X connect 74 0 66 0;
#X connect 75 0 13 0;
#X connect 76 0 49 0;
#X connect 77 0 37 1;
#X connect 78 0 81 0;
#X connect 79 0 80 0;
#X connect 80 0 78 0;
#X connect 81 0 77 1;
