#N canvas 381 87 752 711 10;
#X msg -59 362 1 \$2 \, \$4 \$3 \$2;
#X obj 119 124 hsl 128 15 5 5000 0 0 \$1_midiadsr_a_s \$1_midiadsr_a_r
A -15 10 0 10 -204800 -1 -1 4600 1;
#X obj 119 141 hsl 128 15 5 5000 0 0 \$1_midiadsr_d_s \$1_midiadsr_d_r
D -15 10 0 10 -204800 -1 -1 2900 1;
#X obj 119 158 hsl 128 15 0 1 0 0 \$1_midiadsr_s_s \$1_midiadsr_s_r
S -15 10 0 10 -204786 -1 -1 10800 1;
#X obj 119 175 hsl 128 15 5 5000 0 0 \$1_midiadsr_r_s \$1_midiadsr_r_r
R -15 10 0 10 -204800 -1 -1 5700 1;
#X obj -59 329 pack f f f f, f 10;
#X obj 71 398 pack f f;
#X obj 70 376 sel 0;
#X msg 71 422 0 \$2;
#X obj -59 122 inlet;
#X obj -59 142 unpack f f f, f 17;
#X text -158 140 ADSR triggered by MIDI velocity, f 14;
#X text -19 458 ADSR created from messages.;
#X text 136 398 Release triggered by note-off;
#X text 10 334 Parameters packed;
#X text 35 359 Parameters sent as listed message;
#X text 250 114 5ms-5sec;
#X text 259 147 5ms-5sec;
#X text 261 207 5ms-5sec;
#X text 263 174 0-1 (0%-100%);
#X obj -109 275 stripnote;
#X text -265 269 Removes note off to stop triggering when velocity
=0, f 24;
#X text 102 101 MIDI IN;
#X text 101 111 MIDI ADSR;
#N canvas 404 119 784 567 save 0;
#X obj 202 250 textfile;
#X msg 470 188 clear;
#X obj 205 -33 bng 15 250 50 0 empty empty empty 17 7 0 10 -262144
-1 -1;
#X msg 345 139 set \$1 \$2 \$3 \$4;
#X obj 344 119 pack f f f f;
#X obj 333 94 f;
#X obj 202 272 unpack f f f f;
#X obj -12 177 t b b b;
#X msg 118 208 bang;
#X msg 155 208 rewind;
#X floatatom 283 295 5 0 0 0 - - -;
#X floatatom 257 333 5 0 0 0 - - -;
#X floatatom 230 371 5 0 0 0 - - -;
#X floatatom 202 411 5 0 0 0 - - -;
#X obj 205 -54 r save_parameters;
#X obj -11 104 r recall_parameters;
#X obj 283 314 s \$1_midiadsr_r_r;
#X obj 257 352 s \$1_midiadsr_s_r;
#X obj 229 390 s \$1_midiadsr_d_r;
#X obj 202 430 s \$1_midiadsr_a_r;
#X obj 348 42 r \$1_midiadsr_a_s;
#X obj 366 60 r \$1_midiadsr_d_s;
#X obj 388 78 r \$1_midiadsr_s_s;
#X obj 413 93 r \$1_midiadsr_r_s;
#X obj 117 -29 loadbang;
#X obj 117 -6 f \$1;
#X obj -12 203 f;
#X obj 204 20 f;
#X msg -12 228 read midiadsr_\$1.txt;
#X msg 202 177 write midiadsr_\$1.txt;
#X obj 4 141 t b f;
#X obj 204 0 t b b b, f 63;
#X obj -36 85 r \$1_midiadsr_recallbutton;
#X obj 179 -71 r \$1_midiadsr_savebutton;
#X connect 0 0 6 0;
#X connect 1 0 0 0;
#X connect 2 0 31 0;
#X connect 3 0 0 0;
#X connect 4 0 3 0;
#X connect 5 0 4 0;
#X connect 6 0 13 0;
#X connect 6 1 12 0;
#X connect 6 2 11 0;
#X connect 6 3 10 0;
#X connect 7 0 26 0;
#X connect 7 1 8 0;
#X connect 7 2 9 0;
#X connect 8 0 0 0;
#X connect 9 0 0 0;
#X connect 10 0 16 0;
#X connect 11 0 17 0;
#X connect 12 0 18 0;
#X connect 13 0 19 0;
#X connect 14 0 2 0;
#X connect 15 0 7 0;
#X connect 20 0 5 1;
#X connect 21 0 4 1;
#X connect 22 0 4 2;
#X connect 23 0 4 3;
#X connect 24 0 25 0;
#X connect 25 0 27 1;
#X connect 25 0 30 0;
#X connect 26 0 28 0;
#X connect 27 0 29 0;
#X connect 28 0 0 0;
#X connect 29 0 0 0;
#X connect 30 0 7 0;
#X connect 30 1 26 1;
#X connect 31 0 27 0;
#X connect 31 1 5 0;
#X connect 31 2 1 0;
#X connect 32 0 7 0;
#X connect 33 0 2 0;
#X restore 303 252 pd save mechanism;
#X obj -39 274 r \$1_midiadsr_a_s;
#X obj -30 292 r \$1_midiadsr_d_s;
#X obj -7 311 r \$1_midiadsr_s_s;
#X obj 116 376 r \$1_midiadsr_r_s;
#X obj 173 104 bng 15 250 50 0 \$1_midiadsr_savebutton empty Save 17
7 0 5 -262130 -1 -258113;
#X obj 210 104 bng 15 250 50 0 \$1_midiadsr_recallbutton empty Recall
17 7 0 5 -262130 -1 -258113;
#X text 101 194 ADSR~ OUT;
#X obj -61 457 vline~;
#X obj -61 477 *~ 127;
#X obj -61 497 snapshot~;
#X obj -122 476 metro 5;
#X msg -61 517 \$1 5;
#X obj -61 537 line;
#X obj -61 562 outlet;
#X obj 192 193 tgl 15 0 \$1_midiadsr_tog_s \$1_midiadsr_tog_r on/off
17 7 0 10 -262144 -1 -1 0 1;
#X obj -211 431 r \$1_midiadsr_tog_s;
#X connect 0 0 32 0;
#X connect 5 0 0 0;
#X connect 6 0 8 0;
#X connect 7 0 6 0;
#X connect 8 0 32 0;
#X connect 9 0 10 0;
#X connect 10 0 20 0;
#X connect 10 1 7 0;
#X connect 10 1 20 1;
#X connect 20 1 5 0;
#X connect 25 0 5 1;
#X connect 26 0 5 2;
#X connect 27 0 5 3;
#X connect 28 0 6 1;
#X connect 32 0 33 0;
#X connect 33 0 34 0;
#X connect 34 0 36 0;
#X connect 35 0 34 0;
#X connect 36 0 37 0;
#X connect 37 0 38 0;
#X connect 40 0 35 0;
#X coords 0 -1 1 1 150 110 2 100 100;
