#N canvas 0 23 695 647 10;
#X obj 2 84 osc~ 1000;
#X obj 20 297 *~;
#X obj 145 146 *~ 0.5;
#X obj 143 194 +~ 0.5;
#X text 189 121 range [-1 \, 1];
#X text 183 165 range [-0.5 \, 0.5];
#X text 174 221 range [0 \, 1];
#X obj 16 398 *~ 0.25;
#X obj 214 264 sig~ 3;
#X obj 157 281 pow~;
#X floatatom 276 229 5 0 0 0 - - -;
#X obj 282 205 hsl 128 15 2 90 0 0 empty empty empty -2 -8 0 10 -262144
-1 -1 6600 1;
#X obj 146 100 osc~ 4;
#X obj 16 423 throw~ streams;
#X floatatom 2 40 5 0 0 0 - - -;
#X text 37 39 carrier freq;
#X floatatom 145 74 5 0 0 0 - - -;
#X text 194 74 grains/sec;
#X text 286 188 grain shortness;
#X obj 4 20 r carrierFreq;
#X obj 146 53 r grain/sec;
#X obj 300 174 r grainshort;
#X obj 56 367 r vol;
#X obj 299 77 f \$1;
#X obj 299 56 r sync;
#X obj 7 226 r~ carrierSamp;
#X obj 6 253 *~, f 16;
#X obj 2 105 *~, f 15;
#X obj 91 63 r radio;
#X obj 91 84 == 1;
#X obj 101 105 == 0;
#X connect 0 0 27 0;
#X connect 1 0 7 0;
#X connect 2 0 3 0;
#X connect 3 0 9 0;
#X connect 7 0 13 0;
#X connect 8 0 9 1;
#X connect 9 0 1 1;
#X connect 10 0 8 0;
#X connect 11 0 10 0;
#X connect 12 0 2 0;
#X connect 14 0 0 0;
#X connect 16 0 12 0;
#X connect 19 0 14 0;
#X connect 20 0 16 0;
#X connect 21 0 11 0;
#X connect 22 0 7 1;
#X connect 23 0 12 1;
#X connect 24 0 23 0;
#X connect 25 0 26 0;
#X connect 26 0 1 0;
#X connect 27 0 1 0;
#X connect 28 0 29 0;
#X connect 28 0 30 0;
#X connect 29 0 27 1;
#X connect 30 0 26 1;
