#N canvas 288 23 992 688 10;
#X declare -lib zexy;
#X declare -lib cyclone;
#X obj 299 370 +~;
#X obj 366 415 delwrite~ kp 1000;
#X obj 366 313 delread~ kp 40;
#X floatatom 366 293 5 0 0 0 - - -;
#N canvas 0 23 450 300 saf 0;
#X obj 37 37 inlet~;
#X obj 36 102 +~;
#X obj 154 5 declare -lib zexy;
#X obj 51 61 z~;
#X obj 36 123 *~ 0.5;
#X obj 36 144 outlet~;
#X obj 51 82 *~, f 21;
#X obj 173 45 inlet~;
#X connect 0 0 1 0;
#X connect 0 0 3 0;
#X connect 1 0 4 0;
#X connect 3 0 6 0;
#X connect 4 0 5 0;
#X connect 6 0 1 1;
#X connect 7 0 6 1;
#X restore 366 375 pd saf;
#X f 9;
#X obj 575 169 expr 1/$f1;
#X floatatom 575 149 5 0 0 0 - - -;
#X floatatom 575 190 5 0 0 0 - - -;
#X obj 575 210 * 1000;
#X floatatom 575 231 5 0 0 0 - - -;
#X obj 575 128 mtof;
#X text 614 150 freq;
#X text 617 190 Period in sec;
#X text 617 233 period in ms;
#X obj 432 68 pack f f;
#X obj 366 395 +~;
#X obj 432 20 inlet;
#X text 469 21 Notein;
#X obj 432 41 unpack f f;
#X obj 104 210 hsl 128 15 0 1 0 0 empty empty Level -2 -8 0 10 -128992
-1 -1 0 1;
#X obj 12 3 declare -lib cyclone;
#X obj 209 46 inlet~;
#X obj 104 134 vradio 15 1 0 2 empty empty empty 0 -8 0 10 -162280
-1 -1 1;
#X text 122 134 Noise;
#X text 121 150 External input;
#X obj 105 46 + 1;
#X text 104 102 EXT IN;
#X text 377 100 MIDI IN;
#X obj 299 487 *~;
#X obj 105 180 hsl 128 15 0 0.99 0 0 empty empty Feedback -2 -8 0 10
-260097 -1 -1 0 1;
#X obj 299 508 outlet~;
#X obj 517 99 stripnote;
#X obj 105 70 selector~ 2, f 18;
#X text 577 97 Clear note-off messages;
#X obj 158 46 pink~;
#X text 102 115 KARPLUS STRONG;
#X obj 314 466 line~ \$1 5;
#X obj 418 356 line~ \$1 20;
#X obj 239 105 adsr;
#X obj 449 149 fiddle~;
#X obj 8 256 s kp \$1 lev;
#X obj 12 198 s kp \$1 feedback;
#X obj 418 335 r kp \$1 feedback;
#X obj 314 445 r kp \$1 lev;
#X connect 0 0 1 0;
#X connect 0 0 28 0;
#X connect 2 0 4 0;
#X connect 3 0 2 0;
#X connect 4 0 15 0;
#X connect 5 0 7 0;
#X connect 6 0 5 0;
#X connect 7 0 8 0;
#X connect 8 0 9 0;
#X connect 9 0 3 0;
#X connect 10 0 6 0;
#X connect 14 0 38 1;
#X connect 15 0 0 1;
#X connect 16 0 18 0;
#X connect 18 0 14 0;
#X connect 18 0 31 0;
#X connect 18 1 14 1;
#X connect 18 1 31 1;
#X connect 19 0 40 0;
#X connect 21 0 32 2;
#X connect 22 0 25 0;
#X connect 25 0 32 0;
#X connect 28 0 30 0;
#X connect 29 0 41 0;
#X connect 31 0 10 0;
#X connect 32 0 38 0;
#X connect 32 0 39 0;
#X connect 34 0 32 1;
#X connect 36 0 28 1;
#X connect 37 0 4 1;
#X connect 38 0 0 0;
#X connect 39 2 38 1;
#X connect 42 0 37 0;
#X connect 43 0 36 0;
#X coords 0 -1 1 1 325 135 2 100 100;
