#N canvas 393 65 1047 696 10;
#X obj 310 114 unpack;
#X floatatom 310 135 5 0 0 0 - - -;
#X floatatom 496 203 5 0 0 0 - - -;
#X text 344 135 Current Pitch;
#X text 530 203 Target Pitch;
#X text 320 0 Momentary Transpotion factor t= 1- sf/SR;
#X text 454 37 s = window size;
#X text 453 53 f = frequency;
#X text 453 66 SR = sample rate;
#X text 486 16 f=(t-1)*SR/s;
#X obj 284 71 inlet~;
#X obj 496 223 mtof;
#X floatatom 497 242 10 0 0 0 - - -;
#X obj 310 182 mtof;
#X floatatom 310 203 10 0 0 0 - - -;
#X obj 310 273 pack;
#X obj 310 297 expr ($f2/$f1);
#X text 426 297 Tragetfreq/OrigFreq;
#X text 563 241 Target Frequency;
#X text 376 185 Current Frequency;
#X obj 310 334 expr 1-$f1;
#X obj 310 355 * 1000;
#X obj 310 464 sig~;
#X obj 310 484 outlet~;
#X msg 325 398 \$1 5;
#X obj 310 443 /;
#X obj 325 418 line;
#X obj 496 182 +;
#X obj 511 116 r \$1_pitchshifter_transposition_slider_s;
#X msg 511 136 \$1 5;
#X obj 511 156 line;
#X obj 325 378 r \$1_pitchshifter_windowsize_slider_s;
#X floatatom 222 318 5 0 0 0 - - -;
#X obj 284 94 fiddle~ 2048;
#X obj 310 154 t f f;
#X connect 0 0 1 0;
#X connect 1 0 34 0;
#X connect 2 0 11 0;
#X connect 10 0 33 0;
#X connect 11 0 12 0;
#X connect 12 0 15 1;
#X connect 13 0 14 0;
#X connect 14 0 15 0;
#X connect 15 0 16 0;
#X connect 16 0 20 0;
#X connect 16 0 32 0;
#X connect 20 0 21 0;
#X connect 21 0 25 0;
#X connect 22 0 23 0;
#X connect 24 0 26 0;
#X connect 25 0 22 0;
#X connect 26 0 25 1;
#X connect 27 0 2 0;
#X connect 28 0 29 0;
#X connect 29 0 30 0;
#X connect 30 0 27 1;
#X connect 31 0 24 0;
#X connect 33 2 0 0;
#X connect 34 0 13 0;
#X connect 34 1 27 0;
