#N canvas 40 23 450 300 10;
#X obj 102 128 nbx 5 14 -1e+37 1e+37 0 0 \$1_scaler_inmin_nbx_s \$1_scaler_inmin_nbx_r
Input_Min 0 -8 0 10 -204800 -1 -1 95 256;
#X obj 159 128 nbx 5 14 -1e+37 1e+37 0 0 \$1_scaler_inmax_nbx_s \$1_scaler_inmax_nbx_r
Input_Max 0 -8 0 10 -204800 -1 -1 173 256;
#X obj 102 157 nbx 5 14 -1e+37 1e+37 0 0 \$1_scaler_outmin_nbx_s \$1_scaler_outmin_nbx_r
Output_Min 0 -8 0 10 -204786 -1 -1 166 256;
#X obj 159 157 nbx 5 14 -1e+37 1e+37 0 0 \$1_scaler_outmax_nbx_s \$1_scaler_outmax_nbx_r
Output_Max 0 -8 0 10 -204786 -1 -1 13 256;
#X obj 10 100 inlet;
#X obj 10 199 cyclone/scale;
#X obj 10 219 outlet;
#X text 100 101 Value Scaler;
#N canvas 653 108 787 643 save 0;
#X obj 202 250 textfile;
#X msg 470 188 clear;
#X obj 205 -33 bng 15 250 50 0 empty empty empty 17 7 0 10 -262144
-1 -1;
#X obj -12 177 t b b b;
#X msg 118 208 bang;
#X msg 155 208 rewind;
#X obj 205 -54 r save_parameters;
#X obj -11 103 r recall_parameters;
#X obj 117 -29 loadbang;
#X obj 117 -6 f \$1;
#X obj -12 203 f;
#X obj 204 20 f;
#X obj 4 141 t b f;
#X obj 204 0 t b b b, f 63;
#X obj -11 123 bng 15 250 50 0 empty empty empty 17 7 0 10 -262144
-1 -1;
#N canvas 331 36 1109 763 save 0;
#X obj 15 412 outlet;
#X obj 8 204 inlet;
#X obj 80 325 pack f f f f;
#X msg 79 345 set \$1 \$2 \$3 \$4;
#X obj 126 290 r \$1_scaler_inmax_nbx_s;
#X obj 149 305 r \$1_scaler_inmin_nbx_s;
#X obj 104 272 r \$1_scaler_outmin_nbx_s;
#X obj 79 232 r \$1_scaler_outmax_nbx_s;
#X obj 80 257 f;
#X connect 1 0 8 0;
#X connect 2 0 3 0;
#X connect 3 0 0 0;
#X connect 4 0 2 2;
#X connect 5 0 2 3;
#X connect 6 0 2 1;
#X connect 7 0 8 1;
#X connect 8 0 2 0;
#X restore 390 129 pd save receives;
#N canvas 619 120 821 694 save 0;
#X obj 37 37 inlet;
#X obj 38 58 unpack f f f f;
#X obj 38 156 s \$1_scaler_outmax_nbx_r;
#X obj 66 129 s \$1_scaler_outmin_nbx_r;
#X obj 92 105 s \$1_scaler_inmax_nbx_r;
#X obj 119 83 s \$1_scaler_inmin_nbx_r;
#X connect 0 0 1 0;
#X connect 1 0 2 0;
#X connect 1 1 3 0;
#X connect 1 2 4 0;
#X connect 1 3 5 0;
#X restore 202 270 pd save sends;
#X msg 204 55 write Scaler_\$1.txt;
#X msg -12 228 read Scaler_\$1.txt;
#X obj -35 84 r \$1_scaler_recallbutton;
#X obj 179 -71 r \$1_scaler_savebutton;
#X connect 0 0 16 0;
#X connect 1 0 0 0;
#X connect 2 0 13 0;
#X connect 3 0 10 0;
#X connect 3 1 4 0;
#X connect 3 2 5 0;
#X connect 4 0 0 0;
#X connect 5 0 0 0;
#X connect 6 0 2 0;
#X connect 7 0 14 0;
#X connect 8 0 9 0;
#X connect 9 0 11 1;
#X connect 9 0 12 0;
#X connect 10 0 18 0;
#X connect 11 0 17 0;
#X connect 12 0 3 0;
#X connect 12 1 10 1;
#X connect 13 0 11 0;
#X connect 13 1 15 0;
#X connect 13 2 1 0;
#X connect 14 0 3 0;
#X connect 15 0 0 0;
#X connect 17 0 0 0;
#X connect 18 0 0 0;
#X connect 19 0 3 0;
#X connect 20 0 2 0;
#X restore 365 91 pd save mechanism;
#X obj 148 173 bng 15 250 50 0 \$1_scaler_savebutton empty Save 17
7 0 5 -262130 -1 -258113;
#X obj 181 173 bng 15 250 50 0 \$1_scaler_recallbutton empty Recall
17 7 0 5 -262130 -1 -258113;
#X connect 0 0 5 1;
#X connect 1 0 5 2;
#X connect 2 0 5 3;
#X connect 3 0 5 4;
#X connect 4 0 5 0;
#X connect 5 0 6 0;
#X coords 0 -1 1 1 120 90 2 100 100;
